CoelacanthItalic.sfdir
StartChar: zero
Encoding: 48 48 1229
Width: 503
VWidth: 1159
Flags: HW
LayerCount: 2
Fore
SplineSet
269.017578125 369 m 3
 193.447265625 369 145.41015625 292.412109375 131.08984375 221 c 0
 112.099609375 117.569335938 135.801757812 28 233.72265625 28 c 3
 313.885742188 28 351.719726562 120.92578125 364.567382812 189 c 0
 383.422851562 288.771484375 365.709960938 369 269.017578125 369 c 3
296.35546875 405 m 3
 401.118164062 405 467.342773438 311.724609375 445.810546875 200 c 0
 424.274414062 87.4091796875 324.922851562 -5 212.997070312 -5 c 3
 103.456054688 -5 32.837890625 87.4091796875 53.810546875 200 c 0
 75.8212890625 309.674804688 187.051757812 405 296.35546875 405 c 3
EndSplineSet
Substitution2: "'zero' Slashed Zero lookup 22-1" zero.alt
Substitution2: "dnom-1" zero.denom
Substitution2: "numr-1" zero.numerator
Substitution2: "lnum-1" zero.proportionallining
Substitution2: "tnum-1" zero.tabulartext
EndChar
StartChar: seven
Encoding: 55 55 450
Width: 420
VWidth: 1159
Flags: HW
LayerCount: 2
Fore
SplineSet
122.236328125 422 m 17
 127.790039062 410 137.803710938 406.586914062 151.974609375 406 c 24
 270.9921875 401.072265625 445.568359375 404 460.3828125 408 c 9
 460.3828125 408 463.77734375 390.900390625 466.103515625 387 c 1
 423.98828125 357 68.322265625 -132 64.576171875 -170 c 9
 64.576171875 -170 18.322265625 -167.219726562 -6.0166015625 -168 c 1
 128.225585938 0 229.0546875 122.745117188 366.8359375 317 c 0
 371.918945312 324.166992188 368.377929688 334.358398438 360.50390625 335 c 0
 285.336914062 341.12109375 276.134765625 343 159.319335938 339 c 0
 113.13671875 337.418945312 76.240234375 328.799804688 51.9052734375 283 c 9
 51.9052734375 283 32.8662109375 291.440429688 26.943359375 293 c 9
 26.943359375 293 86.9365234375 396 99.2548828125 427 c 9
 122.236328125 422 l 17
EndSplineSet
Substitution2: "dnom-1" seven.denom
Substitution2: "numr-1" seven.numerator
Substitution2: "tnum-1" seven.tabulartext
Substitution2: "lnum-1" seven.proportionallining
EndChar
StartChar: at
Encoding: 64 64 163
Width: 802
VWidth: 1159
Flags: HW
LayerCount: 2
Fore
SplineSet
564.755 335 m 1
 539.555 278.3 520.869 211.186 510.755 150.5 c 0
 505.822 120.901 501.64 87.547 501.64 75.1396 c 3
 501.64 56.5948 506.697 48.7998 515.255 48.7998 c 3
 536.667 48.7998 581.1 56.0977 613.5 83.5 c 0
 676.636494033 131.958 728.092773438 199 744.80859375 285 c 0
 773.966796875 435.002929688 666.405273438 517 523.2890625 517 c 3
 328.951171875 517 140.296875 367.009765625 99.4755859375 157 c 0
 65.751953125 -16.4931640625 176.06640625 -132 315.924804688 -132 c 3
 445.32421875 -132 565.131835938 -81.1982421875 657.161132812 -11 c 1
 661.805664062 -17.6298828125 664.42578125 -21.3701171875 669.0703125 -28 c 1
 577.974609375 -108 433.8046875 -184 289.350585938 -184 c 3
 125.283203125 -184 -10.2666015625 -52.6005859375 30.4755859375 157 c 0
 73.7880859375 379.82421875 309.671875 561 556.466796875 561 c 3
 702.305664062 561 825.37109375 456.0390625 792.708007812 288 c 0
 773.16015625 187.435546875 686.922295872 103.668 629.5 65.5 c 0
 593.246 39.4713 536.574 1.09961 478.355 1.09961 c 3
 439.181 1.09961 436.86 44.567 439.655 89.2998 c 1
 395.555 42.4999 337.055 6.5 301.955 6.5 c 3
 255.02 6.5 222.851 50.7988 222.851 103.97 c 3
 222.851 201.658 297.9 289.633 360.455 322.4 c 0
 401.855 344.9 452.255 353 519.755 368.3 c 0
 531.919 371.057 544.824 385.269 549.455 394.4 c 1
 596.255 398.9 l 1
 585.463 377.317 575.358 356.207 564.755 335 c 1
479.155 314.8 m 1
 470.155 316.6 445.855 318.4 437.755 318.4 c 3
 409.855 318.4 377.455 303.1 358.556 289.6 c 0
 323.189 264.337 286.949 213.234 286.949 145.586 c 3
 286.949 102.981 305.419 65 351.455 65 c 3
 379.355 65 417.155 91.3378 442.355 116.7 c 1
 451.355 154.163 463.055 195.981 472.955 237.8 c 0
 478.177 259.858 483.105 283.587 483.105 298.967 c 3
 483.105 306.389 481.962 311.994 479.155 314.8 c 1
EndSplineSet
Position2: "'case' vertical ajustments for all-caps-1" dx=0 dy=160 dh=0 dv=0
Position2: "cpsp-1" dx=0 dy=0 dh=50 dv=100
EndChar
StartChar: B
Encoding: 66 66 1250
Width: 611
VWidth: 1159
Flags: HMW
AnchorPoint: "Top" 378.996 699 basechar 0
AnchorPoint: "Bottom" 241.692 -15 basechar 0
LayerCount: 2
Fore
SplineSet
14.4091796875 34 m 1
 58.357421875 36 93.80859375 35.1494140625 100.388671875 73 c 0
 101.256835938 78 126.80078125 175.720703125 152.653320312 292 c 0
 190.228515625 461 217.556640625 604.989257812 218.221679688 614 c 0
 218.959960938 624 219.260742188 640.092773438 201.383789062 646 c 0
 195.331054688 648 157.1484375 655 151.122070312 656 c 1
 166.126953125 694 l 1
 175.126953125 694 208.388671875 684 260.388671875 684 c 3
 302.44140625 684 347.59765625 694 387.126953125 694 c 3
 507.130859375 694 556.901367188 578.6796875 544.735351562 518 c 0
 530.5 447 477.713867188 402 388.63671875 369 c 1
 512.270507812 363 581.778320312 278.422851562 558.560546875 181 c 0
 532.10546875 70 416.598632812 -4 261.404296875 -4 c 3
 211.404296875 -4 166.247070312 2 113.247070312 2 c 3
 59.2470703125 2 16.3525390625 -2 9.3525390625 -2 c 1
 14.4091796875 34 l 1
342.323242188 381 m 0
 403.34765625 391 442.857421875 440.204101562 456.233398438 499 c 0
 469.9765625 547 468.528320312 653 367.200195312 653 c 3
 359.836914062 653 345.776367188 650.999023438 340.3046875 649 c 0
 318.436523438 644 312.305664062 624.235351562 309.221679688 614 c 0
 275.180664062 501 247.375 379 247.375 379 c 1
 323.375 379 332.446289062 379.381835938 342.323242188 381 c 0
311.161132812 349 m 0
 241.161132812 349 l 1
 220.727539062 251 198.484375 154.501953125 185.786132812 96 c 0
 177.754882812 59 180.749023438 45.4716796875 203.2265625 41 c 0
 213.278320312 39 254.409179688 34 277.409179688 34 c 3
 368.772460938 34 451.165039062 83.3291015625 474.638671875 178 c 0
 495.466796875 262 457.002929688 349 311.161132812 349 c 0
EndSplineSet
Position2: "cpsp-1" dx=0 dy=0 dh=50 dv=100
Substitution2: "c2pc-1" b.pcap
Substitution2: "c2sc-1" b.smcp
EndChar
StartChar: U
Encoding: 85 85 1328
Width: 777
VWidth: 1159
Flags: HW
AnchorPoint: "Horn" 760.5 573 basechar 0
AnchorPoint: "Ogonek" 377.686 10 basechar 0
AnchorPoint: "Top" 503.036 699 basechar 0
AnchorPoint: "Bottom" 328.471 -15 basechar 0
LayerCount: 2
Fore
SplineSet
124.318359375 690 m 1
 151.428710938 686.5 195.483886719 684.75 242.358886719 684.75 c 0
 289.233886719 684.75 338.928710938 686.5 377.318359375 690 c 1
 373.418945312 655 l 1
 308.638671875 648 280.94921875 648.659179688 270.3671875 593 c 0
 268.630859375 583.892578125 194.045898438 286.654296875 186.987304688 255 c 0
 172.967773438 192 174.19140625 140.728515625 200.700195312 105 c 0
 228.89453125 67 284.6171875 44 380.6171875 44 c 3
 403.6171875 44 483.813476562 45.8740234375 548.794921875 102 c 0
 591.6328125 139 613.733398438 189.1015625 633.830078125 260 c 0
 661.155273438 356.104492188 692.993164062 512.041992188 710.895507812 608 c 0
 719.44921875 654 692.544921875 651 630.512695312 652 c 1
 640.318359375 690 l 1
 665.387458973 686.283755099 715.778150285 683.97674246 762.284515391 683.97674246 c 0
 803.378554579 683.97674246 841.439760307 685.778029158 856.318359375 690 c 1
 849.576171875 650 l 1
 802.606445312 649 781.286132812 656.360351562 768.581054688 618 c 0
 764.888671875 606.876953125 739.217773438 487.592773438 683.987304688 255 c 0
 664.563476562 173 626.622070312 107.98046875 572.95703125 65 c 0
 510.529296875 15 427.314453125 -10 329.314453125 -10 c 3
 220.314453125 -10 154.056640625 18.771484375 120.86328125 68 c 0
 92.54296875 110 88.9677734375 165.724609375 102.584960938 236 c 0
 108.673828125 267.348632812 183.453125 581.645507812 186.272460938 596 c 0
 194.890625 640 185.827148438 642 110.544921875 651 c 1
 124.318359375 690 l 1
EndSplineSet
Position2: "cpsp-1" dx=0 dy=0 dh=50 dv=100
Substitution2: "c2pc-1" u.pcap
Substitution2: "c2sc-1" u.smcp
EndChar
StartChar: Z
Encoding: 90 90 1349
Width: 682
VWidth: 1159
Flags: HW
AnchorPoint: "Top" 448 699 basechar 0
AnchorPoint: "Bottom" 296.689 -15 basechar 0
LayerCount: 2
Fore
SplineSet
104.147460938 570 m 1
 170.388671875 679 168.772460938 716 195.3359375 726 c 1
 207.515625 699 240.924804688 690.24609375 250.952148438 689 c 0
 280.280273438 684.284179688 616.0625 679.569335938 713.643554688 684.6171875 c 0
 723.2890625 685.001953125 730.610351562 685.4609375 735.083007812 686 c 1
 742 665 l 1
 729.067382812 651.998046875 l 0
 138.11328125 44 l 1
 209.11328125 44 281.200195312 42 352.200195312 42 c 0
 497.200195312 42 591.41015625 83 630.1796875 157 c 1
 652.747070312 144 l 1
 599.719726562 53 580.291992188 17 550.08203125 -24 c 1
 533.6015625 -13 519.037109375 -0.099609375 441.990234375 1 c 0
 301.903320312 3 75.5537109375 11 0.859375 4 c 1
 -2.40625 33 l 1
 38.6767578125 54 76.931640625 88.2509765625 106.838867188 119 c 0
 273.729492188 289.559570312 442.420898438 465.3203125 606.134765625 639 c 0
 609.916992188 644 l 1
 271.829101562 646 l 2
 219.822265625 646.154296875 176.702148438 626 125.93359375 552 c 1
 104.147460938 570 l 1
EndSplineSet
Position2: "cpsp-1" dx=0 dy=0 dh=50 dv=100
Substitution2: "c2pc-1" z.pcap
Substitution2: "c2sc-1" z.smcp
EndChar
StartChar: b
Encoding: 98 98 164
Width: 438
VWidth: 1159
Flags: HMW
AnchorPoint: "Top" 244.66 749 basechar 0
AnchorPoint: "Bottom" 145 -15 basechar 0
LayerCount: 2
Fore
SplineSet
130.883789062 240 m 1
 120.637695312 190.9140625 111.430664062 153.515625 104.682617188 113 c 1
 105.293945312 99 105.642578125 91 109.905273438 85 c 0
 120.500976562 64 143.970703125 49 167.4765625 49 c 3
 258.6484375 49 351.192382812 137.7109375 346.077148438 254.865234375 c 0
 343.510742188 313.650390625 319.513671875 357 274.775390625 357 c 3
 220.1796875 357 164.393554688 291.084960938 130.883789062 240 c 1
129.09765625 699 m 1
 142.180664062 720 173.438476562 737 204.696289062 754 c 1
 233.569335938 734 249.704101562 708 264.795898438 683 c 1
 226.274414062 655.286132812 192.296875 529.505859375 140.482421875 295 c 1
 164.02734375 325.904296875 254.388671875 413 319.330078125 413 c 3
 373.053710938 413 411.827148438 355.814453125 414.827148438 287.098632812 c 0
 421.063476562 144.262695312 257.515625 -9 139.008789062 -9 c 3
 96.2177734375 -9 87.7333984375 15 71.7431640625 20 c 0
 57.1708984375 23.3173828125 39.4814453125 26 33.5244140625 25 c 1
 18.9130859375 39 l 1
 58.365234375 168.291015625 114.234375 461 127.935546875 539 c 0
 134.84375 578.329101562 136.845703125 613.137695312 135.672851562 640 c 0
 134.805664062 659.865234375 132.361328125 681.0234375 129.09765625 699 c 1
EndSplineSet
Substitution2: "case-1" B
Substitution2: "pcap-1" b.pcap
Substitution2: "smcp-1" b.smcp
EndChar
StartChar: h
Encoding: 104 104 292
Width: 427
VWidth: 1159
Flags: HMW
AnchorPoint: "Top" 221.647 733 basechar 0
AnchorPoint: "Bottom" 145.315 -15 basechar 0
LayerCount: 2
Fore
SplineSet
115.896484375 196 m 1
 96.125 139.833984375 84.3955078125 62.576171875 79.0859375 -4 c 1
 1.0859375 -4 l 1
 36.111328125 138 113.811523438 498.5546875 130.3984375 592 c 0
 134.727539062 616.395507812 136.7734375 631.544921875 136.637695312 638 c 0
 136.302734375 654 134.009765625 668 117.009765625 668 c 3
 112.009765625 668 89.1142578125 663 80.134765625 662 c 1
 81.98828125 669 83.4853515625 693 83.3388671875 700 c 1
 135.108398438 711 196.877929688 722 264.103515625 759 c 1
 279.54296875 738 l 1
 265.8359375 724 249.071289062 701.142578125 243.52734375 691 c 0
 210.068359375 629.780273438 163.831054688 483.0859375 122.577148438 259 c 1
 144.50390625 296.360351562 228.592773438 412 305.372070312 412 c 3
 366.681640625 412 406.565429688 353.778320312 407.938476562 288.192382812 c 0
 410.711914062 155.81640625 319.624023438 40 235.420898438 -20 c 1
 197.182617188 -6.7373046875 186.017578125 8.4208984375 186.913085938 52 c 1
 280.776367188 58.4912109375 354.650390625 112.248046875 352.016601562 238 c 0
 350.518554688 309.530273438 315.4453125 352 274.62890625 352 c 3
 215.719726562 352 140.2421875 264.112304688 115.896484375 196 c 1
EndSplineSet
Substitution2: "case-1" H
Substitution2: "pcap-1" h.pcap
Substitution2: "smcp-1" h.smcp
EndChar
StartChar: l
Encoding: 108 108 318
Width: 262
VWidth: 1159
Flags: HMW
AnchorPoint: "Bottom" 82.294 -15 basechar 0
AnchorPoint: "TopRight" 291.755 581 basechar 0
AnchorPoint: "Top" 219.92 749 basechar 0
LayerCount: 2
Fore
SplineSet
176.58984375 413 m 0
 154.73828125 318 122.809570312 163.696289062 121.692382812 90 c 0
 121.434570312 73 122.264648438 54 139.307617188 53 c 1
 154.3515625 52 191.12890625 80 212.211914062 101 c 1
 234.0859375 81 l 1
 209.701171875 44 140.05859375 -10 99.05859375 -10 c 3
 50.404296875 -10 46.0888671875 11.4677734375 42.0068359375 37 c 0
 39.5986328125 52.0634765625 42.2763671875 69.880859375 46.4306640625 96 c 0
 58.2001953125 170 96.4833984375 309.90234375 115.114257812 401 c 0
 153.447265625 588.435546875 157.067382812 624.796875 157.067382812 663 c 3
 157.067382812 673.250976562 154.315429688 688.598632812 145.66015625 694 c 1
 144.079101562 700.612304688 142.2890625 707.0078125 140.4921875 713 c 1
 158.873046875 732.125 204.131835938 748.517578125 248.046875 764 c 1
 257.986328125 757.142578125 261.8046875 748.571289062 267 740 c 1
 256.727539062 712.8984375 239.4375 657.459960938 232.115234375 630 c 0
 216.6484375 572 202.5859375 526.018554688 176.58984375 413 c 0
EndSplineSet
Substitution2: "case-1" L
Substitution2: "pcap-1" l.pcap
Substitution2: "smcp-1" l.smcp
EndChar
StartChar: o
Encoding: 111 111 358
Width: 422
VWidth: 1159
Flags: HW
AnchorPoint: "Middle" 224.787 213 mark 0
AnchorPoint: "Top" 277 465 basechar 0
AnchorPoint: "Horn" 369.611 341.8 basechar 0
AnchorPoint: "Ogonek" 247.839 19 basechar 0
AnchorPoint: "Bottom" 165 -15 basechar 0
LayerCount: 2
Fore
SplineSet
264.71875 419 m 3
 342.473054455 419 388.87109375 353.183856197 388.87109375 265.012695312 c 0
 388.87109375 114.403732028 274.067531643 -10 163.9375 -10 c 3
 85.8265398985 -10 33.529296875 48.286333341 33.529296875 147.842773438 c 0
 33.529296875 320.034321532 182.23799869 419 264.71875 419 c 3
238.530273438 373 m 3
 182.835633526 373 109.249023438 291.326680331 109.249023438 169.911132812 c 0
 109.249023438 87.317476158 140.658621615 31 185.431640625 31 c 3
 242.599156482 31 314.522460938 120.900264325 314.522460938 246.533203125 c 0
 314.522460938 328.408246152 280.431344037 373 238.530273438 373 c 3
EndSplineSet
Substitution2: "case-1" O
Substitution2: "pcap-1" o.pcap
Substitution2: "smcp-1" o.smcp
EndChar
StartChar: r
Encoding: 114 114 438
Width: 359
VWidth: 1159
Flags: HMW
AnchorPoint: "Bottom" 95.99 -15 basechar 0
AnchorPoint: "Top" 231.956 465 basechar 0
LayerCount: 2
Fore
SplineSet
119.409179688 288 m 1
 119.256835938 321 110.349609375 347 95.349609375 347 c 3
 85.349609375 347 61.431640625 316 53.5146484375 285 c 1
 33.9560546875 301 l 1
 53.1513671875 361.606445312 115.85546875 407.060546875 155.590820312 426 c 1
 182.670898438 421.4921875 193.432617188 397.630859375 194.5625 365.287109375 c 0
 195.413085938 340.921875 193.608398438 312.112304688 186.654296875 281 c 1
 230.9765625 348.028320312 311.572265625 416.23828125 334.6953125 423 c 1
 357.48828125 417.911132812 382.069335938 392.463867188 378.685546875 366 c 1
 375.295898438 345 345.770507812 305 314.165039062 295 c 1
 309.327148438 312.727539062 295.928710938 334 285.803710938 334 c 3
 255.096679688 334 184.758789062 264 164.111328125 182 c 0
 162.482421875 175.532226562 161.241210938 169.01171875 160.669921875 166 c 0
 153.802734375 129.825195312 149.493164062 103.138671875 146.498046875 85 c 0
 144.84765625 75 143.935546875 66.8056640625 141.4765625 57 c 0
 139.720703125 50 136.598632812 38.841796875 134.349609375 32 c 0
 130.733398438 21 128.083007812 11 123.466796875 0 c 1
 119.447265625 0.5556640625 91.5380859375 -2.037109375 85.537109375 -2 c 1
 79.537109375 -2 59.5712890625 -3 55.431640625 1 c 1
 55.1875 8 60.4189453125 30 61.279296875 34 c 0
 62.1396484375 38 64.69140625 55.3125 66.40625 59 c 0
 67.3369140625 61 70.7021484375 80.29296875 72.498046875 85 c 0
 77.0791015625 97 95.2021484375 169.440429688 107.203125 208 c 0
 115.294921875 234 119.177734375 266 119.409179688 288 c 1
EndSplineSet
Substitution2: "case-1" R
Substitution2: "pcap-1" r.pcap
Substitution2: "smcp-1" r.smcp
EndChar
StartChar: z
Encoding: 122 122 1223
Width: 375
VWidth: 1159
Flags: HMW
AnchorPoint: "Bottom" 112.098 -15 basechar 0
AnchorPoint: "Top" 257.867 465 basechar 0
LayerCount: 2
Fore
SplineSet
111.8671875 5 m 3
 82.51171875 5 48.0751953125 -8.45464409722 35.8876953125 -12 c 1
 24.8876953125 -12 10.4892578125 8 10 15 c 1
 53.3017578125 106.29296875 121.809570312 156.661132812 269.693359375 334 c 1
 259.4140625 330 237.740234375 329 221.903320312 331 c 1
 191.974609375 336 156.59375 352 135.9453125 359 c 1
 115.713867188 348 105.833007812 332 89.44140625 309 c 1
 75.44140625 309 71.44140625 309 70.8125 318 c 1
 69.0634765625 343 133.700195312 434 149.700195312 434 c 1
 160.07421875 428 176.77734375 407 232.938476562 402 c 1
 309.685546875 397 339.717773438 400 360.819335938 418 c 1
 373.798828125 404 l 1
 311.230013891 269.529513889 167.158847122 177.94921875 90 40 c 1
 106.584514919 45.4476062772 121.671999363 47.8740234375 135.51953125 47.8740234375 c 3
 228.186523438 47.8740234375 252.89453125 -59 325.356445312 -59 c 3
 336.052734375 -59 367.634765625 -53.6597222222 371.46875 -47 c 1
 381.013671875 -47 385.577148438 -48.548828125 385.677734375 -50 c 1
 389.48828125 -91.0111906091 347.206054688 -133 281.8671875 -133 c 3
 217.796875 -133 173.177734375 5 111.8671875 5 c 3
EndSplineSet
Substitution2: "case-1" Z
Substitution2: "pcap-1" z.pcap
Substitution2: "smcp-1" z.smcp
EndChar
StartChar: ordmasculine
Encoding: 186 186 396
Width: 358
VWidth: 1159
Flags: HW
LayerCount: 2
Fore
SplineSet
180.543945312 686.768554688 m 1
 276.709960938 686.768554688 333.563476562 606.377929688 333.563476562 530.818359375 c 1
 333.563476562 444.318359375 269.990234375 370.536132812 180.123046875 370.536132812 c 1
 94.27734375 370.536132812 23.5791015625 433.458984375 23.5791015625 522.08984375 c 1
 23.5791015625 633.205078125 117.4375 686.768554688 180.543945312 686.768554688 c 1
169.442382812 647.001953125 m 1
 113.729492188 647.001953125 79.5751953125 596.493164062 79.5751953125 541.794921875 c 1
 79.5751953125 473.078125 126.454101562 406.7109375 185.43359375 406.7109375 c 1
 243.959960938 406.7109375 276.166992188 461.763671875 276.166992188 516.84375 c 1
 276.166992188 597.084960938 218.982421875 647.001953125 169.442382812 647.001953125 c 1
EndSplineSet
Refer: 487 58113 N 0.344 0 0 1 7 320 2
Position2: "cpsp-1" dx=0 dy=0 dh=7 dv=14
EndChar
StartChar: germandbls
Encoding: 223 223 280
Width: 477
VWidth: 1159
Flags: HW
LayerCount: 2
Fore
SplineSet
519.40625 613 m 0
 514.268554688 465.877929688 333.514648438 392.073242188 330.869140625 316.326171875 c 0
 329.959960938 290.267578125 347.7890625 260.630859375 384.06640625 231 c 0
 418.391601562 202.96484375 444.063476562 168.865234375 442.87109375 134.7109375 c 0
 439.801757812 46.80859375 360.916015625 8.8095703125 310.895507812 -3 c 0
 292.828125 -7.265625 270.4765625 -9.166015625 248.403320312 -9.166015625 c 3
 217.189453125 -9.166015625 186.489257812 -6.1083984375 167.96484375 -1 c 1
 175.365234375 20 186.762695312 60 190.8984375 83 c 1
 206.038085938 87 l 1
 235.646484375 52.9921875 282.888671875 35.9853515625 315.490234375 35.9853515625 c 3
 340.62890625 35.9853515625 371.887695312 56.69921875 373.423828125 100.663085938 c 0
 374.442382812 129.840820312 350.52734375 160.653320312 325.459960938 185 c 0
 296.780273438 212.85546875 263.640625 228.599609375 265.313476562 276.489257812 c 0
 268.770507812 375.487304688 453.498046875 443.814453125 458.32421875 582 c 0
 459.5390625 616.794921875 407.645507812 697 361.33984375 697 c 3
 279.33984375 697 253.029296875 620.734375 201.390625 498 c 0
 138.295898438 348.038085938 108.6640625 19 33.9931640625 -172 c 0
 9.2939453125 -235.178710938 -22.4990234375 -278.947265625 -59.279296875 -323 c 1
 -69.244140625 -322 -68.2099609375 -321 -110.209960938 -321 c 3
 -131.209960938 -321 -163.349609375 -325 -175.383789062 -326 c 1
 -179.126953125 -290 l 1
 -119.5234375 -275.814453125 -82.3984375 -237.158203125 -52.5302734375 -187 c 0
 20.087890625 -65.0498046875 89.0966796875 290.11328125 128.215820312 493 c 0
 153.860351562 626 208.443359375 654.627929688 280.479492188 701 c 0
 322.421875 728 360.330078125 754 417.330078125 754 c 3
 444.297851562 754 521.486328125 672.559570312 519.40625 613 c 0
EndSplineSet
Substitution2: "pcap-1" uni1E9E.pcap
Substitution2: "case-1" uni1E9E
Substitution2: "smcp-1" uni1E9E.smcp
MultipleSubs2: "case-2" S S
EndChar
StartChar: dotlessi
Encoding: 305 305 213
Width: 315
VWidth: 1159
Flags: HMW
AnchorPoint: "Top" 218 465 basechar 0
LayerCount: 2
Fore
SplineSet
185 197 m 0
 173 153.317382812 162 91.349609375 167 69 c 1
 169 60 176 59 188 63 c 1
 202 67.142578125 234 97.1787109375 254 121 c 1
 274 106 l 1
 247 66.025390625 170 -11 133 -11 c 3
 99.4541015625 -11 85 20.158203125 85 56 c 3
 85 100.1875 110.362304688 147.377929688 124 194 c 0
 129.818359375 212.58203125 150.181640625 274.830078125 156 325 c 0
 157 335 156 343 152 344 c 1
 141.166992188 344 98.818359375 301.576171875 87 288 c 1
 72 305 l 1
 97.3154296875 342.451171875 174.237304688 413 220 413 c 3
 250 413 253 392 247 365 c 0
 246 358 239 347 237 341 c 0
 222.142578125 303.200195312 189.235351562 212.41796875 185 197 c 0
EndSplineSet
Substitution2: "case-1" I
Substitution2: "pcap-1" i.pcap
Substitution2: "smcp-1" i.smcp
EndChar
StartChar: longs
Encoding: 383 383 332
Width: 210
VWidth: 1159
Flags: HW
AnchorPoint: "Top" 298 748 basechar 0
AnchorPoint: "Bottom" 75 -204 basechar 0
LayerCount: 2
Fore
SplineSet
391 754 m 3
 422 754 493 728 514 706 c 1
 509 679 500 672 448 646 c 1
 412 664 374 697 337 697 c 3
 255 697 231.352539062 620.734375 184 498 c 0
 126.142578125 348.038085938 108 19 40 -172 c 0
 17.5068359375 -235.178710938 -12.7578125 -278.947265625 -48 -323 c 1
 -58 -322 -57 -321 -99 -321 c 3
 -120 -321 -152 -325 -164 -326 c 1
 -169 -290 l 1
 -109.891601562 -275.814453125 -74.1162109375 -237.158203125 -46 -187 c 0
 22.359375 -65.0498046875 78.96484375 290.11328125 111 493 c 0
 132 626 185.583007812 654.627929688 256 701 c 0
 297 728 334 754 391 754 c 3
EndSplineSet
Substitution2: "case-1" S
Substitution2: "pcap-1" s.pcap
Substitution2: "smcp-1" s.smcp
EndChar
StartChar: uni0181
Encoding: 385 385 533
Width: 723
Flags: HW
LayerCount: 2
Fore
SplineSet
421 381 m 0
 490 391 527 440 527 499 c 3
 527 537 508 653 403 653 c 3
 389 653 364 651 355 649 c 0
 333 644 331 624 330 614 c 0
 320 501 322 379 322 379 c 1
 404 379 411 380 421 381 c 0
397 349 m 0
 320 349 l 9
 321 251 321 155 323 96 c 0
 324 59 329 47 355 41 c 0
 365 39 410 34 436 34 c 3
 528 34 598 83 598 178 c 3
 598 262 540 349 397 349 c 0
196 653 m 3
 155 653 96 634 96 592 c 3
 96 571 111 554 135 537 c 1
 123 506 98 487 71 487 c 3
 32 487 7 515 7 544 c 3
 7 621 108 686 189 686 c 3
 200 686 209 684 263 684 c 3
 316 684 371 694 421 694 c 3
 576 694 617 578 617 518 c 3
 617 447 567 402 475 369 c 1
 598 363 688 278 688 181 c 3
 688 70 586 -4 427 -4 c 3
 374 -4 324 2 267 2 c 3
 208 2 163 -2 156 -2 c 1
 153 34 l 1
 200 36 235 36 237 73 c 0
 237 78 240 176 240 292 c 3
 240 461 233 605 232 614 c 0
 231 624 220 653 196 653 c 3
EndSplineSet
EndChar
StartChar: uni0194
Encoding: 404 404 542
Width: 749
UnlinkRmOvrlpSave: 1
Flags: HW
LayerCount: 2
Fore
SplineSet
125 608 m 0
 98 636 76 636 17 652 c 1
 21 692 l 1
 78 686 222 679 280 690 c 1
 285 651 l 1
 285 651 263 649 248 649 c 0
 230 649 214.844009904 638.898043821 226 622 c 0
 325.378973408 458.754267846 530 72.883537374 530 -80 c 3
 530 -160.120526714 495.109999894 -242 395 -242 c 3
 309.791732073 -242 272 -174.480377907 272 -94 c 3
 272 7.25500959342 451.830860347 420.853785411 547 589 c 0
 559 609 565 633 539 643 c 0
 527 648 508 650 492 652 c 1
 494 691 l 1
 532 685 675 674 740 690 c 1
 740 647 l 1
 675 645 649.293842756 627.713645513 622 600 c 0
 508.323947346 477.883142293 316 -5.88164981191 316 -86 c 3
 316 -139.983642578 343.017907694 -190 395 -190 c 3
 432.930571222 -190 448 -133.524263822 448 -84 c 3
 448 25.3077460043 246.832662671 471.233665558 125 608 c 0
EndSplineSet
EndChar
StartChar: uni01A2
Encoding: 418 418 553
Width: 827
UnlinkRmOvrlpSave: 1
Flags: HW
LayerCount: 2
Fore
SplineSet
426 665 m 3
 262.329101562 665 130 563 130 384 c 3
 130 206.6015625 273 43 443 43 c 3
 479.974609375 43 508.85546875 48.2373046875 526 57 c 1
 538.351711978 73 546.000976562 263.72265625 546.000976562 360.349609375 c 3
 546.000976562 454.005859375 541.2890625 600.963867188 531 638 c 1
 500.9609375 654.033203125 468.143554688 665 426 665 c 3
422 706 m 3
 494.547626023 706 560.837368642 685.89827073 612 652.66796875 c 1
 608.607306469 554.847330717 606.963867188 457.026692701 606.963867188 359.206054688 c 3
 606.963867188 257.264648444 609.369119683 155.323242202 614 53.3818359375 c 1
 563.844532022 15.6906138771 498.210996857 -7 424 -7 c 3
 210 -7 37 148.774414062 37 343 c 3
 37 536.796875 212 706 422 706 c 3
544 655 m 1
 779 695 l 1
 789 669 l 1
 774.512695312 634.34765625 762.517578125 477.96484375 762.517578125 327.6484375 c 3
 762.517578125 203.588867188 762.138522029 65.2988204406 770 -88 c 0
 772 -127 824 -122 878 -124 c 1
 877 -163 l 1
 825.492812273 -157.390306287 768.264049355 -154.121256971 713.006209155 -154.121256971 c 0
 659.909427281 -154.121256971 608.632422453 -157.13961018 566 -164 c 1
 561 -124 l 1
 621 -124 677.939769904 -126.997083367 680 -77 c 0
 684.643554688 35.6884765625 686.915039062 184.162109375 686.915039062 329.857421875 c 3
 686.915039062 439.138671875 682.915868772 582.798664848 678 612 c 0
 676.200101007 622.691793489 664.270507812 636.02734375 647.625 636.02734375 c 3
 629.220703125 636.02734375 611.552789652 620.189514532 600 603 c 1
 544 655 l 1
EndSplineSet
Substitution2: "c2sc-1" gha.smcp
Substitution2: "c2pc-1" gha.pcap
EndChar
StartChar: uni01A3
Encoding: 419 419 554
Width: 557
UnlinkRmOvrlpSave: 1
Flags: HW
LayerCount: 2
Fore
SplineSet
235 371 m 3
 167.323216976 371 107.180664062 316.00363021 107.180664062 223.540039062 c 3
 107.180664062 120.253709448 177.826434932 25 264 25 c 3
 285.938476562 25 303.07421875 29.879138054 313.247070312 35.3681640625 c 1
 318.65945983 44.4950968477 322.010742188 153.28668175 322.010742188 208.404296875 c 3
 322.010742188 258.648419938 316.073522705 337.487393612 303.110351562 357.356445312 c 1
 283.62478018 365.458363748 262.337025657 371 235 371 c 3
258.436523438 416 m 3
 304.15422771 416 345.928497353 402.477677165 378.170898438 380.124023438 c 1
 376.158203125 322.656255568 369.18359375 265.188476562 369.18359375 207.721679688 c 3
 369.18359375 145.791015625 376.610351562 83.8593696575 379.357421875 21.9287109375 c 1
 345.639043415 -0.5986328125 301.514031234 -14.1611328125 251.623046875 -14.1611328125 c 3
 129.625165664 -14.1611328125 31 68.995869006 31 192.034179688 c 3
 31 333.604324776 148.380414706 416 258.436523438 416 c 3
500 175 m 3
 500 89.859375 501.19140625 -22.3154296875 509 -103 c 0
 511 -118 531.338867188 -120.6328125 542 -124 c 0
 548.333007812 -126 555.458007812 -126.5 561 -127 c 1
 557 -161 l 1
 531.416015625 -156.63671875 493.551757812 -153 466 -153 c 3
 436 -153 400 -160 370 -164 c 1
 367 -131 l 1
 378 -130 394.181640625 -128.822265625 405 -126 c 0
 428 -120 429.774414062 -109.044921875 431 -81 c 0
 433 -14 434 85.32 434 155 c 3
 434 182.36 435.388027072 239.791566855 430 326 c 0
 429 342 424 355 407 355 c 3
 400.6 355 384.6 351 375 350 c 1
 370 382 l 1
 416.873239437 386.540540541 459.225585938 391.837890625 507 410 c 1
 527 394 l 1
 521 380 516.477539062 352.90234375 514 342 c 0
 504 298 500 192 500 175 c 3
EndSplineSet
Substitution2: "pcap-1" gha.pcap
Substitution2: "smcp-1" gha.smcp
EndChar
StartChar: uni0223
Encoding: 547 547 600
Width: 505
UnlinkRmOvrlpSave: 1
Flags: HW
LayerCount: 2
Fore
SplineSet
209.600585938 632.404296875 m 1
 200.3828125 620.896484375 189.336914062 604.55078125 184.43359375 581.482421875 c 0
 164.169921875 486.147460938 222.559570312 443.466796875 290.717773438 429 c 0
 396.280273438 406.59375 474.553710938 325.307617188 449.665039062 208.216796875 c 0
 421.784179688 77.046875 309.079101562 -10 183.995117188 -10 c 3
 69.099609375 -10 -22.318359375 62.4541015625 6.7294921875 199.11328125 c 0
 29.3681640625 305.616210938 129.125 385.955078125 214.015625 412.166992188 c 1
 230.771484375 421.47265625 246.224609375 425.19921875 260.594726562 427 c 1
 346.36328125 432.524414062 411.657226562 493.68359375 421.30859375 539.088867188 c 0
 430.193359375 580.888671875 430.622070312 610.212890625 425.311523438 634.676757812 c 1
 456.71875 646 l 1
 475.6171875 635.650390625 493.841796875 599.532226562 485.227539062 559.005859375 c 0
 470.737304688 490.8359375 398.59375 429.026367188 306.296875 404.080078125 c 1
 289.782226562 396.063476562 273.288085938 391.955078125 256.16796875 388 c 1
 188.35546875 379.478515625 107.618164062 315.930664062 88.412109375 225.57421875 c 0
 67.666015625 127.970703125 110.728515625 28.341796875 204.74609375 28.341796875 c 3
 319.189453125 28.341796875 355.837890625 138.733398438 365.909179688 186.11328125 c 0
 386.01953125 280.7265625 339.1640625 369.016601562 235.853515625 387.515625 c 0
 153.075195312 402.337890625 103.672851562 466.737304688 120.431640625 545.581054688 c 0
 131.806640625 599.095703125 165.548828125 628.612304688 186.794921875 643 c 1
 209.600585938 632.404296875 l 1
EndSplineSet
Substitution2: "pcap-1" uni0223.pcap
Substitution2: "smcp-1" uni0223.smcp
EndChar
StartChar: uni0263
Encoding: 611 611 626
Width: 446
Flags: HW
AnchorPoint: "Top" 232.5 465 basechar 0
LayerCount: 2
Fore
SplineSet
58 348 m 0
 50.3424671066 357.505902902 47.9141031266 367.57464375 37 370 c 0
 28 372 16 375 6 376 c 1
 10 406 l 1
 33 402 68 400 91 400 c 3
 125 400 153 401 185 407 c 1
 189 379 l 1
 156 370 l 0
 149 369 145 368 145 359 c 3
 145 358 146.932155488 350.985951073 148 346 c 0
 166.252631579 260.775300172 352 3.06190365398 352 -200 c 3
 352 -277.724271498 293.29747869 -339 223 -339 c 3
 159.095285776 -339 109 -283.268120235 109 -216 c 3
 109 -113.542459633 181.567480875 -15.7673194624 237.803865363 83.9999967888 c 0
 277.768602999 154.90026278 312.294317866 243.030112532 342 319 c 0
 344.651190392 325.780205713 347 335 347 344 c 3
 347 366 340 367 271 381 c 1
 277 411 l 1
 308 404 351 400 369 400 c 3
 394 400 422 402 443 408 c 1
 448 378 l 1
 410 368 401.650711875 362.728148218 383 319 c 0
 370.592105888 289.908658264 324.402676102 184.870733252 259.75671854 63.0000044808 c 0
 215 -21.3754787147 158 -101.168796677 158 -179 c 3
 158 -234.200296232 188.832485703 -290 243 -290 c 3
 271.048568987 -290 285 -253.197531905 285 -220 c 3
 285 -144.597682743 254.464776162 -30.3370426374 199.844726562 78 c 0
 135.622784065 205.382076247 74.2317951804 327.850185293 58 348 c 0
EndSplineSet
EndChar
StartChar: uni0327
Encoding: 807 807 665
Width: 0
VWidth: 1159
UnlinkRmOvrlpSave: 1
Flags: HW
AnchorPoint: "Bottom" -218 -15 mark 0
LayerCount: 2
Fore
SplineSet
-327.174804688 -200.002929688 m 1
 -323.140625 -177.811523438 l 1
 -276.999816953 -187.999431503 -233 -161.723668612 -233 -125 c 0
 -233 -109.445003255 -243.999931887 -85.0000083693 -274.635742188 -95.12890625 c 1
 -279.123046875 -72.462890625 l 1
 -276.075185752 -70.4490340728 -272.628664578 -69.0681522047 -269.521484375 -67.076171875 c 0
 -238.370164562 -47.1053905662 -244.753230093 -43.6228112641 -224.624023438 5.4326171875 c 1
 -189.624023438 13.4326171875 l 1
 -189.624023438 13.4326171875 -206.925202134 -41.8597066048 -213.072265625 -51.9287109375 c 1
 -189.745265625 -56.8679860336 -170.572265625 -75.8805901717 -170.572265625 -111.428710938 c 0
 -170.572265625 -180.249880904 -258.060008117 -229.425002351 -327.174804688 -200.002929688 c 1
EndSplineSet
EndChar
StartChar: uni0357
Encoding: 855 855 682
Width: 0
Flags: HW
AnchorPoint: "TopMark" -225.294 382 mark 0
AnchorPoint: "TopMark" -185.034 562 basemark 0
AnchorPoint: "Top" -220.531 395 mark 0
LayerCount: 2
Fore
SplineSet
-228.352539062 457 m 1
 -205.352539062 457 -179.313476562 476 -173.787109375 502 c 0
 -168.686523438 526 -185.647460938 545 -209.647460938 545 c 1
 -215.647460938 545 l 1
 -208.845703125 577 l 1
 -202.845703125 577 l 1
 -160.845703125 577 -132.860351562 544 -141.787109375 502 c 0
 -151.352539062 457 -195.154296875 425 -235.154296875 425 c 1
 -241.154296875 425 l 1
 -234.352539062 457 l 1
 -228.352539062 457 l 1
EndSplineSet
EndChar
StartChar: uni0376
Encoding: 886 886 689
Width: 768
Flags: HW
AnchorPoint: "Bottom" 348.479 -15 basechar 0
AnchorPoint: "Top" 503.245 699 basechar 0
LayerCount: 2
Fore
SplineSet
678.78125 678 m 0
 685.694335938 687 695.486328125 690.840820312 701.33203125 690 c 0
 743.056640625 684 791.481445312 686 835.544921875 691 c 1
 830.041992188 651 l 1
 772.6171875 649 749.852539062 641.001953125 735.163085938 581 c 0
 697.216796875 426 662.233398438 271.016601562 632.599609375 122 c 0
 618.083007812 49 637.233398438 45 699.020507812 44 c 1
 686.880859375 1 l 1
 612.856445312 15 519.069335938 16 414.243164062 -2 c 1
 418.3203125 36 l 1
 501.658203125 47 525.357421875 60.15625 545.875 128 c 0
 568.005859375 201.173828125 586.375 273.842773438 601.552734375 345.25 c 0
 616.80859375 417.021484375 630.522460938 487.525390625 642.849609375 556 c 1
 475.177734375 382.404296875 305.758789062 204.081054688 158.21875 12 c 0
 151.305664062 3 141.520507812 -0.822265625 135.66796875 0 c 0
 92.943359375 6 43.5185546875 4 -1.544921875 -1 c 1
 3.9580078125 39 l 1
 63.3828125 41 87.1474609375 48.998046875 101.836914062 109 c 0
 139.783203125 264 174.766601562 418.983398438 204.400390625 568 c 0
 218.916992188 641 199.766601562 645 137.979492188 646 c 1
 150.119140625 689 l 1
 224.143554688 675 317.930664062 674 422.756835938 692 c 1
 418.6796875 654 l 1
 335.341796875 643 311.642578125 629.84375 291.125 562 c 0
 268.994140625 488.826171875 250.625 416.157226562 235.447265625 344.75 c 0
 220.046875 272.296875 206.190429688 201.125 193.725585938 132 c 1
 361.532226562 306.233398438 531.977539062 485.979492188 678.78125 678 c 0
EndSplineSet
Position2: "cpsp-1" dx=0 dy=0 dh=50 dv=100
EndChar
StartChar: Lambda
Encoding: 923 923 1289
Width: 730
VWidth: 1159
Flags: HW
AnchorPoint: "Top" 572.141 699 basechar 0
AnchorPoint: "Bottom" 314.976 -15 basechar 0
LayerCount: 2
Fore
SplineSet
495.557617188 539 m 1
 369.56080531 378.353515625 243.675100986 241.354890607 134.141601562 81 c 0
 110.890165309 47.3319661145 128.8828125 29.5660377358 214.388671875 34 c 1
 197.649414062 -10 l 1
 164.696816558 -3.42116167511 110.522137587 0.296115413079 59.0766465611 0.296115413079 c 0
 24.5038508718 0.296115413079 -8.83638555357 -1.38268590218 -33.6748046875 -5 c 1
 -33.6748046875 -5 -29.30078125 20 -25.611328125 34 c 1
 28.078125 48 55.1165032872 56.9815152132 73.7978515625 80 c 0
 243.4181296 289 392.937849019 466.721334825 519.37890625 640 c 0
 547.107421875 678 544.442382812 679 559.495117188 712 c 1
 602.495117188 712 l 1
 598.452148438 685 593.285063837 681.010498309 593.047851562 642 c 0
 591.6796875 417 591.032321655 281.11675616 618.767578125 62 c 0
 622.05859375 36 646.388671875 34 673.71875 32 c 1
 673.71875 32 664.6796875 8 659.66015625 -4 c 1
 629.010081737 0.0415945787923 593.247011961 2.46990651666 556.791260434 2.46990651666 c 0
 512.065746165 2.46990651666 466.29764486 -1.18505702896 427.649414062 -10 c 1
 427.649414062 -10 429.01953125 12 430.043945312 27 c 1
 487.704101562 37 522.351546445 47.0289744873 521.458007812 76 c 0
 516.55859375 236.586928638 507.612304688 384.027810168 495.557617188 539 c 1
EndSplineSet
Position2: "cpsp-1" dx=0 dy=0 dh=50 dv=104
Substitution2: "c2pc-1" lambda.pcap
Substitution2: "c2sc-1" lambda.smcp
EndChar
StartChar: Phi
Encoding: 934 934 1311
Width: 713
UnlinkRmOvrlpSave: 1
Flags: HW
AnchorPoint: "Top" 453.065 699 basechar 0
AnchorPoint: "Bottom" 313.595 -15 basechar 0
LayerCount: 2
Fore
SplineSet
403.263671875 545.25390625 m 1
 291.461914062 545.25390625 184.186523438 471.870117188 160.814453125 370.262695312 c 1
 134.03125 253.826171875 223.760742188 146.444335938 359.794921875 146.444335938 c 1
 482.255859375 146.444335938 581.090820312 231.6328125 603.171875 327.629882812 c 1
 629.673828125 442.841796875 540.342773438 545.25390625 403.263671875 545.25390625 c 1
444.23046875 589.5 m 1
 616.485351562 589.5 729.8046875 477.982421875 698.43359375 341.606445312 c 1
 668.196289062 210.14453125 512.185546875 103.5 334.10546875 103.5 c 1
 156.025390625 103.5 36.44140625 209.474609375 66.8330078125 341.606445312 c 1
 97.2763671875 473.951171875 269.479492188 589.5 444.23046875 589.5 c 1
EndSplineSet
Refer: 1281 921 N 1 0 0 1 161 0 2
Position2: "cpsp-1" dx=0 dy=0 dh=50 dv=100
Substitution2: "c2pc-1" phi.pcap
Substitution2: "c2sc-1" phi.smcp
EndChar
StartChar: Upsilon1
Encoding: 978 978 1342
Width: 697
Flags: HW
AnchorPoint: "Top" 427.872 699 basechar 0
AnchorPoint: "Bottom" 301.084 -15 basechar 0
LayerCount: 2
Fore
SplineSet
428.669921875 379 m 0
 395.592773438 286 381.877929688 164 376.55078125 80 c 0
 373.969726562 41 392.998046875 36 473.219726562 32 c 1
 459.862304688 -11 l 1
 359.583007812 3 272.749023438 9 162.6953125 -17 c 1
 158.859375 25 l 1
 240.581054688 39 280.107421875 52 289.438476562 100 c 0
 299.157226562 150 335.89453125 339 334.864257812 380 c 0
 331.94140625 473 298.29296875 624 174.29296875 624 c 3
 153.29296875 624 130.73828125 616 104.627929688 600 c 1
 87.265625 629 l 1
 110.319335938 655 171.06640625 700 212.06640625 700 c 3
 387.06640625 700 372.801757812 498 381.115234375 371 c 1
 434.801757812 498 496.06640625 700 656.06640625 700 c 3
 728.06640625 700 758.125 654 746.65625 595 c 0
 734.993164062 535 703.328125 511 665.328125 511 c 3
 653.328125 511 637.328125 511 620.049804688 525 c 1
 623.909179688 550 634.2421875 562 656.907226562 586 c 1
 679.991210938 571 696.490234375 589 699.2109375 603 c 0
 702.126953125 618 677.29296875 624 664.29296875 624 c 3
 552.29296875 624 461.13671875 474 428.669921875 379 c 0
EndSplineSet
Position2: "cpsp-1" dx=0 dy=0 dh=50 dv=100
EndChar
StartChar: uni03DC
Encoding: 988 988 706
Width: 566
VWidth: 1159
Flags: HW
AnchorPoint: "Top" 401.872 699 basechar 0
AnchorPoint: "Bottom" 125.084 -15 basechar 0
LayerCount: 2
Fore
SplineSet
270.862304688 -11 m 1
 218 0 179.971679688 5 135.971679688 5 c 0
 96.9716796875 5 53 0 -9.7490234375 -9 c 1
 -12.9462890625 26 l 1
 41.998046875 36 69.5244140625 49 74.966796875 77 c 1
 93.962890625 154.143554688 162.991210938 529.84375 176.349609375 614 c 0
 180.59765625 641 166.59765625 641 96.3193359375 655 c 1
 107.344726562 686 l 1
 162.76171875 683 225.567382812 682 287.567382812 682 c 3
 447.567382812 682 603.122070312 690 610.260742188 701 c 1
 624.31640625 691 627.956054688 684 623.874023438 663 c 0
 619.59765625 641 607.405273438 604 590.993164062 535 c 1
 559.41015625 532 l 1
 555.408203125 568 568.73828125 616 534.681640625 626 c 0
 475.180664062 644 375.541992188 651 292.791992188 642 c 0
 274.403320312 640 268.098632812 623 263.599609375 605 c 0
 243.004882812 519.625976562 237.733398438 492.506835938 215.28125 377 c 1
 351.669921875 379 471.225585938 387 476.974609375 396 c 1
 491.03125 386 494.475585938 378 490.393554688 357 c 0
 486.1171875 335 474.120117188 299 457.70703125 230 c 1
 426.124023438 227 l 1
 422.122070312 263 435.452148438 311 401.396484375 321 c 0
 353.311523438 336 278.672851562 343 208.088867188 340 c 1
 198.953125 293 167.3515625 151 170.745117188 81 c 0
 171.440429688 64 175.1640625 42 287.1640625 42 c 1
 270.862304688 -11 l 1
EndSplineSet
Position2: "cpsp-1" dx=0 dy=0 dh=50 dv=100
EndChar
StartChar: uni03F5
Encoding: 1013 1013 717
Width: 416
UnlinkRmOvrlpSave: 1
Flags: HW
LayerCount: 2
Fore
SplineSet
90 208 m 1
 150.578125 217.303710938 226.774414062 225.270507812 314 232 c 1
 316 186 l 1
 234.30078125 178.610351562 152.83203125 172.602539062 87 172 c 1
 90 208 l 1
EndSplineSet
Refer: 714 1010 N 1 0 0 1 0 0 2
EndChar
StartChar: afii10051
Encoding: 1026 1026 40
Width: 818
Flags: HW
AnchorPoint: "Bottom" 188.942 -15 basechar 0
AnchorPoint: "Top" 483.477 699 basechar 0
LayerCount: 2
Fore
SplineSet
690.739257812 263 m 0
 690.177734375 340 661.73046875 392 560.159179688 392 c 0
 501.583984375 392 423.83203125 364 375.555664062 328 c 1
 362.71484375 277 355.888671875 259 342.072265625 194 c 0
 326.981445312 123 320.640625 78.025390625 318.102539062 53 c 0
 316.276367188 35 339.146484375 34.6318359375 351.850585938 33 c 0
 359.638671875 32 375.788085938 28 384.575195312 27 c 1
 372.7734375 -5 l 1
 330.836914062 0 299.26171875 2 253.26171875 2 c 0
 222.26171875 2 185.19921875 -3 153.561523438 -6 c 1
 156.150390625 25 l 1
 169.575195312 27 178.352539062 26.0498046875 191.42578125 31 c 0
 209.9140625 38 219.9453125 48.0087890625 229.840820312 80 c 0
 249.01953125 142 281.439453125 271 298.018554688 349 c 0
 311.700195312 413.366210938 349.48046875 595.375 356.796875 634.262695312 c 1
 306.719726562 634.125 257.243164062 632.172851562 207.322265625 628 c 0
 159.471679688 624 157.322265625 628 104.592773438 554 c 1
 69.6318359375 573 l 1
 97.9208984375 612 143.712890625 691 159.389648438 713 c 1
 178.563476562 695 198.499023438 685.27734375 220.4375 685 c 0
 332.307617188 683.5859375 444.176757812 682.171875 556.6640625 682.171875 c 0
 608.65234375 682.171875 660.874023438 683 713.012695312 683 c 0
 729.012695312 683 745.288085938 689 754.201171875 698 c 1
 775.799804688 682 l 1
 754.1484375 646 728.645507812 606 716.65625 559 c 1
 680.930664062 565 l 1
 693.307617188 595 l 2
 712.841796875 642.34765625 519.999023438 633.805664062 449.994140625 633.05078125 c 1
 422.215820312 564.24609375 412.196289062 487.040039062 382.482421875 370 c 1
 459.693359375 418 572.751953125 450 623.487304688 450 c 0
 749.047851562 450 801.071289062 381.141601562 783.203125 284 c 0
 777.423828125 252.330078125 776.243164062 237.814453125 758.852539062 156 c 0
 733.9609375 38.89453125 718.551757812 -30.162109375 682.614257812 -84 c 0
 656.709960938 -122.80859375 620.139648438 -153.709960938 561.663085938 -189 c 0
 516.924804688 -216 474.610351562 -241 415.610351562 -241 c 3
 383.610351562 -241 335.948242188 -230 315.625 -208 c 1
 323.215820312 -178.046875 321.991210938 -178.046875 390.716796875 -137 c 1
 425.890625 -155 444.137695312 -179 489.7890625 -179 c 3
 522.633789062 -179 549.578125 -170.0234375 569.853515625 -152 c 0
 602.182617188 -123.260742188 625.661132812 -74.5869140625 637.264648438 -20 c 0
 654.416992188 60.6982421875 692.022460938 202.48828125 690.739257812 263 c 0
EndSplineSet
Position2: "cpsp-1" dx=0 dy=0 dh=50 dv=111
EndChar
StartChar: afii10057
Encoding: 1032 1032 44
Width: 337
Flags: HW
AnchorPoint: "Top" 259.037 699 basechar 0
LayerCount: 2
Fore
SplineSet
181.276367188 65 m 0
 164.361328125 -14.580078125 114.220703125 -67.4306640625 61.50390625 -108 c 0
 23.1337890625 -137.528320312 -12.6005859375 -160 -61.548828125 -160 c 3
 -84.5771484375 -160 -118.220703125 -149 -131.53515625 -127 c 1
 -123.943359375 -97.046875 -125.16796875 -97.046875 -56.443359375 -56 c 1
 -31.1005859375 -69.2861328125 -18.001953125 -87 14.9677734375 -87 c 3
 84.5107421875 -87 93.4716796875 45.853515625 111.043945312 128.524414062 c 0
 118.375 163.010742188 198.73828125 581.618164062 197.969726562 614 c 0
 198.684570312 650 147.506835938 647 96.046875 652 c 1
 108.548828125 692 l 1
 221.360351562 677 287.998046875 680 413.548828125 692 c 1
 406.409179688 649 l 1
 347.403320312 647 310.125 657.081054688 298.39453125 616 c 0
 264.975585938 498.962890625 240.576171875 375.547851562 212.408203125 243.026367188 c 0
 200.709960938 187.9921875 194.969726562 129.420898438 181.276367188 65 c 0
EndSplineSet
Position2: "cpsp-1" dx=0 dy=0 dh=28 dv=114
EndChar
StartChar: afii10060
Encoding: 1035 1035 47
Width: 852
Flags: HW
AnchorPoint: "Top" 463.477 699 basechar 0
AnchorPoint: "Bottom" 355.437 -15 basechar 0
LayerCount: 2
Fore
SplineSet
459.125 633.05078125 m 1
 431.346679688 564.24609375 421.328125 487.040039062 391.61328125 370 c 1
 468.825195312 418 581.8828125 450 632.618164062 450 c 0
 758.178710938 450 809.125 381.1015625 792.333984375 284 c 0
 788.232421875 260 787.89453125 249 774.715820312 187 c 0
 760.26171875 119 749.122070312 76 744.87109375 56 c 0
 741.044921875 38 762.102539062 32.556640625 774.34375 30 c 0
 779.131835938 29 795.131835938 29 800.918945312 28 c 1
 787.479492188 -7 l 1
 753.1796875 1 728.392578125 2 689.392578125 2 c 0
 649.392578125 2 609.754882812 -1 573.904296875 -5 c 1
 576.918945312 28 l 1
 593.131835938 29 601.498046875 30.5859375 618.76953125 32 c 0
 643.194335938 34 653.890625 48.94140625 664.397460938 82 c 0
 670.435546875 101 675.686523438 121 679.512695312 139 c 0
 691.840820312 197 700.372070312 239.307617188 699.870117188 263 c 0
 699.30859375 340 670.861328125 392 569.290039062 392 c 0
 510.71484375 392 432.962890625 364 384.686523438 328 c 1
 371.845703125 277 365.01953125 259 351.203125 194 c 0
 336.112304688 123 329.771484375 78.025390625 327.233398438 53 c 0
 325.407226562 35 348.27734375 34.6318359375 360.981445312 33 c 0
 368.76953125 32 384.918945312 28 393.70703125 27 c 1
 381.904296875 -5 l 1
 339.967773438 0 308.392578125 2 262.392578125 2 c 0
 231.392578125 2 194.330078125 -3 162.692382812 -6 c 1
 165.28125 25 l 1
 178.70703125 27 187.483398438 26.0498046875 200.556640625 31 c 0
 219.044921875 38 229.076171875 48.0087890625 238.971679688 80 c 0
 258.150390625 142 290.5703125 271 307.149414062 349 c 0
 320.831054688 413.366210938 358.611328125 595.375 365.927734375 634.262695312 c 1
 315.850585938 634.125 266.374023438 632.172851562 216.453125 628 c 0
 168.602539062 624 166.453125 628 113.723632812 554 c 1
 78.7626953125 573 l 1
 107.051757812 612 152.84375 691 168.520507812 713 c 1
 187.694335938 695 207.623046875 685.249023438 229.568359375 685 c 0
 341.438476562 683.5859375 453.307617188 682.171875 565.794921875 682.171875 c 0
 617.783203125 682.171875 670.004882812 683 722.143554688 683 c 0
 738.143554688 683 754.418945312 689 763.33203125 698 c 1
 784.930664062 682 l 1
 763.279296875 646 737.776367188 606 725.787109375 559 c 1
 690.061523438 565 l 1
 702.438476562 595 l 2
 723.7421875 641.977539062 529.129882812 633.805664062 459.125 633.05078125 c 1
EndSplineSet
Position2: "cpsp-1" dx=0 dy=0 dh=50 dv=111
EndChar
StartChar: afii10046
Encoding: 1068 1068 35
Width: 599
Flags: HW
AnchorPoint: "Bottom" 261.942 -15 basechar 0
AnchorPoint: "Top" 338.477 699 basechar 0
LayerCount: 2
Fore
SplineSet
338.0625 349 m 0
 221.0625 349 l 1
 201.232421875 251 181.234375 155.012695312 170.286132812 96 c 0
 163.420898438 59 165.036132812 44.9228515625 190.595703125 41 c 0
 203.626953125 39 263.120117188 34 298.107421875 34 c 3
 377.61328125 34 448.522460938 83 468.715820312 178 c 0
 486.5703125 262 456.874023438 349 338.0625 349 c 0
286.815429688 620 m 0
 262.059570312 527.665039062 229.439453125 379 229.439453125 379 c 1
 300.45703125 379 362.840820312 379.70703125 419.926757812 371.883789062 c 0
 531.802734375 356.551757812 579.106445312 273.93359375 559.353515625 181 c 0
 535.759765625 70 426.627929688 -4 281.030273438 -4 c 3
 218.754882812 -4 161.280273438 1 94.3056640625 1 c 3
 35.3056640625 1 -10.544921875 -5 -17.544921875 -5 c 1
 -12.892578125 34 l 1
 34.5322265625 36 71.521484375 35.9462890625 79.3974609375 73 c 0
 80.4599609375 78 104.290039062 176 128.947265625 292 c 0
 165.205078125 462.579101562 179.90625 535.05859375 194.815429688 620 c 0
 199.5546875 647 185.5546875 647 115.530273438 661 c 1
 127.119140625 692 l 1
 199.016601562 685.428710938 286.752929688 685.571289062 400.969726562 696 c 1
 393.830078125 653 l 1
 335.404296875 651 296.467773438 656 286.815429688 620 c 0
EndSplineSet
Position2: "cpsp-1" dx=0 dy=0 dh=50 dv=111
EndChar
StartChar: afii10048
Encoding: 1070 1070 37
Width: 1030
UnlinkRmOvrlpSave: 1
Flags: HW
AnchorPoint: "Bottom" 444.942 -15 basechar 0
AnchorPoint: "Top" 581.477 699 basechar 0
LayerCount: 2
Fore
SplineSet
736.221679688 660 m 3
 618.408203125 660 498.28515625 543 463.850585938 381 c 0
 425.590820312 201 510.623046875 35 653.65625 35 c 3
 781.439453125 35 892.60546875 169 924.701171875 320 c 0
 962.961914062 500 879.213867188 660 736.221679688 660 c 3
778.713867188 709 m 3
 958.16796875 709 1067.66113281 543 1024.51171875 340 c 0
 982.850585938 144 812.080078125 -15 626.556640625 -15 c 3
 441.033203125 -15 324.638671875 143 366.51171875 340 c 0
 408.385742188 537 596.658203125 709 778.713867188 709 c 3
EndSplineSet
Refer: 1280 73 N 0.921136 0 0 1 2.83912 0 2
Refer: 340 58114 N 0.16 0 0 0.913043 222 341 2
Position2: "cpsp-1" dx=0 dy=0 dh=50 dv=100
EndChar
StartChar: afii10078
Encoding: 1084 1084 60
Width: 607
UnlinkRmOvrlpSave: 1
Flags: HW
AnchorPoint: "Bottom" 238.064 -15 basechar 0
AnchorPoint: "Top" 353.003 465 basechar 0
LayerCount: 2
Fore
SplineSet
530.1015625 373 m 1
 524.213867188 342.57421875 512.774414062 290.615234375 506.002929688 260 c 0
 489.228515625 184.155273438 477.034179688 147.53125 477.034179688 91.544921875 c 3
 477.034179688 65 482.469726562 63 490.05859375 63 c 3
 512.05859375 63 543.333007812 116.280273438 557.883789062 137 c 1
 577.002929688 121 l 1
 557.84765625 80.310546875 506.163085938 -10 447.163085938 -10 c 3
 417.262695312 -10 404.00390625 27.638671875 404.00390625 58.5654296875 c 3
 404.00390625 114.860351562 425.258789062 176.994140625 438.6328125 251 c 0
 445.71484375 290.186523438 450.180664062 310.681640625 456.002929688 335 c 1
 530.1015625 373 l 1
177.149414062 333.400390625 m 1
 167.091796875 294.002929688 146.384765625 217.629882812 130.998046875 161 c 0
 106.727539062 71.67578125 72.1396484375 -6.2998046875 -6.353515625 -6.2998046875 c 3
 -12.9033203125 -6.2998046875 -22.6591796875 -2.93359375 -26.8203125 3.7998046875 c 1
 -21.021484375 38.6044921875 -21.87890625 38.6044921875 26.8916015625 86.2998046875 c 1
 34.5244140625 82.5712890625 38.7041015625 77.599609375 48.2578125 77.599609375 c 3
 71.3515625 77.599609375 86.7744140625 123.1953125 95.5390625 157.166992188 c 0
 118.1015625 244.620117188 143.801757812 345.112304688 148.08984375 372 c 1
 177.149414062 333.400390625 l 1
449.600585938 292 m 0
 402.002929688 237 355.594726562 181.504882812 306.116210938 105 c 0
 286.067382812 74 265.068359375 33 253.41015625 4 c 1
 223.41015625 4 l 1
 226.515625 40 226.805664062 80 218.091796875 110 c 1
 218.091796875 110 173.002929688 302 134.891601562 355 c 0
 123.264648438 368.830078125 112.5703125 378 69.76953125 380 c 1
 80.2314453125 408 l 1
 115.56640625 404 170.302734375 400 209.865234375 401 c 1
 223.865234375 401 223.803710938 389.052734375 225.57421875 379 c 0
 242.442382812 283.217773438 259.096679688 216.674804688 285.774414062 134 c 1
 285.59375 127.954101562 482.109375 394.157226562 482.6953125 395 c 0
 486.865234375 401 493.34375 403.413085938 497.255859375 403 c 0
 525.670898438 400 567.865234375 401 597.451171875 404 c 1
 595.377929688 378 l 1
 552.57421875 379 492.848632812 341.973632812 449.600585938 292 c 0
EndSplineSet
EndChar
StartChar: afii10079
Encoding: 1085 1085 61
Width: 510
UnlinkRmOvrlpSave: 1
Flags: HW
AnchorPoint: "Bottom" 212.51 -15 basechar 0
AnchorPoint: "Top" 287 465 basechar 0
LayerCount: 2
Fore
SplineSet
162.692382812 154 m 0
 151.703125 100.411132812 145.46484375 77.2060546875 136.29296875 31 c 0
 134.137695312 20.1435546875 130.901367188 8 129.390625 1 c 1
 128.53125 -1 98.4609375 0 93.4609375 0 c 1
 87.4609375 0 70.3212890625 2 66.181640625 4 c 1
 64.041015625 6 66.46875 27.076171875 67.29296875 31 c 0
 78 82 90.412109375 123.385742188 103.874023438 180 c 0
 112.831054688 217.669921875 121.94140625 250.9921875 124.720703125 268 c 0
 129.623046875 298 114.594726562 327 99.5947265625 327 c 3
 89.5947265625 327 64.6923828125 297 57.8603515625 266 c 1
 39.7412109375 282 l 1
 53.2666015625 346 119.979492188 393 160.581054688 413 c 1
 170.720703125 411 182.60546875 400.541015625 187.259765625 389 c 0
 190.1015625 381.952148438 193.84375 366.96875 195.206054688 347.49609375 c 0
 197.046875 321.1640625 192.956054688 290.565429688 185.419921875 258 c 1
 162.692382812 154 l 0
414 260 m 0
 390.225585938 184.155273438 378.03125 147.53125 378.03125 91.544921875 c 3
 378.03125 65 383.466796875 63 391.055664062 63 c 3
 413.055664062 63 444.330078125 116.280273438 458.880859375 137 c 1
 478 121 l 1
 458.844726562 80.310546875 407.16015625 -10 348.16015625 -10 c 3
 318.259765625 -10 305.000976562 27.638671875 305.000976562 58.5654296875 c 3
 305.000976562 114.860351562 327.877929688 176.71875 346.629882812 251 c 0
 359 300 370.396484375 345.022460938 376.888671875 376 c 0
 379.145507812 386.768554688 379.490234375 396 384.000976562 403 c 1
 387.930664062 404 414.791015625 406 420.791015625 406 c 1
 424.791015625 406 445.791015625 406 447.860351562 405 c 1
 452.000976562 403 449.356445312 377.8515625 448.098632812 373 c 0
 440.2109375 342.57421875 423.37890625 289.919921875 414 260 c 0
EndSplineSet
Refer: 487 58113 N 0.23184 0 0 1 138.58 203 2
EndChar
StartChar: afii10091
Encoding: 1097 1097 73
Width: 696
VWidth: 1159
UnlinkRmOvrlpSave: 1
Flags: HW
LayerCount: 2
Fore
SplineSet
627 96 m 1
 647 87 l 1
 646.004882812 84.2763671875 643.884765625 79.1923828125 642.09375 69.978515625 c 0
 639.494140625 56.6025390625 638.55078125 43.4384765625 638.55078125 30.373046875 c 3
 638.55078125 0.474609375 645.15234375 -28.828125 645.15234375 -59.3486328125 c 3
 645.15234375 -142.916015625 597.0546875 -208.01953125 530.447265625 -208.01953125 c 3
 473.451171875 -208.01953125 447.655273438 -178.075195312 442.3359375 -162.2421875 c 1
 455.778320312 -146.299804688 l 1
 467.932617188 -154.55859375 484.002929688 -155.72265625 499.056640625 -155.72265625 c 3
 527 -155.72265625 603.1640625 -131.653320312 603.1640625 49.640625 c 3
 603.1640625 57.22265625 603.090820312 64.9892578125 602.977539062 73 c 1
 627 96 l 1
EndSplineSet
Refer: 1465 623 N 1 0 0 1 8 0 2
EndChar
StartChar: afii10096
Encoding: 1102 1102 78
Width: 613
UnlinkRmOvrlpSave: 1
Flags: HW
LayerCount: 2
Fore
SplineSet
469.71875 419 m 3
 539.957317862 419 581.87109375 354.893251735 581.87109375 269.012695312 c 0
 581.87109375 116.212739622 473.192055025 -10 368.9375 -10 c 3
 298.013878745 -10 250.529296875 46.8090646758 250.529296875 143.842773438 c 0
 250.529296875 318.574276567 391.519469737 419 469.71875 419 c 3
443.530273438 373 m 3
 393.005535034 373 326.249023438 289.718535367 326.249023438 165.911132812 c 0
 326.249023438 85.6957019098 352.710746997 31 390.431640625 31 c 3
 442.285400175 31 507.522460938 122.568818307 507.522460938 250.533203125 c 0
 507.522460938 329.818590609 478.81495511 373 443.530273438 373 c 3
159.692382812 154 m 0
 148.703125 100.411132812 142.46484375 77.2060546875 133.29296875 31 c 0
 131.137695312 20.1435546875 127.901367188 8 126.390625 1 c 1
 125.53125 -1 95.4609375 0 90.4609375 0 c 1
 84.4609375 0 67.3212890625 2 63.181640625 4 c 1
 61.041015625 6 63.46875 27.076171875 64.29296875 31 c 0
 75 82 87.412109375 123.385742188 100.874023438 180 c 0
 109.831054688 217.669921875 118.94140625 250.9921875 121.720703125 268 c 0
 126.623046875 298 111.594726562 327 96.5947265625 327 c 3
 86.5947265625 327 61.6923828125 297 54.8603515625 266 c 1
 36.7412109375 282 l 1
 50.2666015625 346 116.979492188 393 157.581054688 413 c 1
 167.720703125 411 179.60546875 400.541015625 184.259765625 389 c 0
 187.1015625 381.952148438 190.84375 366.96875 192.206054688 347.49609375 c 0
 194.046875 321.1640625 189.956054688 290.565429688 182.419921875 258 c 1
 159.692382812 154 l 0
EndSplineSet
Refer: 487 58113 N 0.161 0 0 1 131 207 2
EndChar
StartChar: afii10099
Encoding: 1106 1106 81
Width: 531
Flags: HW
AnchorPoint: "Bottom" 275 -15 basechar 0
AnchorPoint: "Top" 120 733 basechar 0
LayerCount: 2
Fore
SplineSet
445 -84 m 3
 445 -134 432.819094368 -164.880515375 419 -186 c 0
 396.752808989 -220 368.44138087 -241.377070309 329 -267 c 0
 284.360294118 -296 253 -319 194 -319 c 3
 162 -319 112 -308 87 -286 c 1
 88 -259 87 -259 136 -222 c 1
 165.972222222 -237.857142857 189.796296296 -259 219 -259 c 3
 247.822033898 -259 296.27809609 -258.437912348 316 -237 c 0
 342.595265849 -208.090672547 360.595200234 -175.050461911 367 -146 c 0
 373.749647059 -115.385402827 379 -41.9109823322 379 143 c 3
 379 191.46875 377.575426798 264.394743057 374 284 c 0
 365 333 343 366 288 366 c 3
 240 366 194 350.25 161 330 c 1
 159 290.477539062 157 239.204101562 157 189 c 3
 157 130 159.174612786 75.1904041016 162 54 c 0
 164 39 183.08584558 34.4253676488 194 32 c 0
 203 30 222 28 232 27 c 1
 228 -7 l 1
 189 -1 159 4 117 4 c 3
 87 4 51 -1 21 -5 c 1
 18 28 l 1
 29 30 35.1816198836 30.1778138827 46 33 c 0
 69 39 81.3132346583 48.0576404465 84 76 c 0
 89 128 92 209 92 274 c 3
 92 511 90.3158552714 604.946315657 89 626 c 0
 88 642 82 656 65 656 c 3
 59 656 33 650 23 649 c 1
 15 681 l 1
 67 692 127 720 170 754 c 1
 189 738 l 1
 183 724 176.604461592 696.928671056 175 686 c 0
 165 617.885742188 162 471.927734375 161 361 c 1
 214 394.48046875 288 415 330 415 c 3
 403 415 440.731919282 367.10842187 444 301 c 0
 445 280.771484375 445 216.081655554 445 -84 c 3
EndSplineSet
Refer: 676 821 N 1.18456 0 0 1 397.168 24 2
EndChar
StartChar: afii10193
Encoding: 1119 1119 91
Width: 492
VWidth: 1159
UnlinkRmOvrlpSave: 1
Flags: HW
AnchorPoint: "Top" 295.864 465 basechar 0
AnchorPoint: "Bottom" 306.859 -15 basechar 0
LayerCount: 2
Fore
SplineSet
194.090820312 52 m 1
 213.461914062 43 l 1
 196.250976562 25.30078125 188.564453125 1.5712890625 186.986328125 -21 c 0
 185.813476562 -37.76953125 188.444335938 -45.23046875 187.247070312 -62.3486328125 c 0
 181.8828125 -139.069335938 132.963867188 -208.01953125 66.3564453125 -208.01953125 c 3
 9.3603515625 -208.01953125 -14.341796875 -178.075195312 -18.5537109375 -162.2421875 c 1
 -3.9970703125 -146.299804688 l 1
 7.580078125 -153.55859375 22.568359375 -155.72265625 37.6220703125 -155.72265625 c 3
 74.6025390625 -155.72265625 143.716796875 -139.256835938 151.0078125 -35 c 0
 152.40625 -14.9970703125 154.154296875 10 164.744140625 26.626953125 c 1
 194.090820312 52 l 1
EndSplineSet
Refer: 519 117 N 1 0 0 1 0 0 2
EndChar
StartChar: uni0591
Encoding: 1425 1425 729
Width: 0
Flags: HW
AnchorPoint: "HbBottom" 260 0 mark 0
LayerCount: 2
Fore
SplineSet
258.54296875 -111.58203125 m 3
 253.46947311 -111.58203125 230 -118 230 -153 c 3
 230 -177 230 -215 230 -215 c 17
 197 -215 l 9
 197 -153 l 3
 197 -110.969569573 222.43926087 -91.0126722921 244 -84.7470703125 c 1
 244 -51 l 17
 274 -51 l 9
 274 -85.1162109375 l 1
 295.97125 -92.2965503742 319 -111.116135438 319 -155 c 3
 319 -178 319 -215 319 -215 c 17
 286 -215 l 9
 286 -155 l 3
 286 -117.89458843 264.034934263 -111.58203125 258.54296875 -111.58203125 c 3
EndSplineSet
EndChar
StartChar: uni059C
Encoding: 1436 1436 740
Width: 0
Flags: HW
AnchorPoint: "HbTop" 264 628 mark 0
LayerCount: 2
Fore
SplineSet
266.31640625 641.685546875 m 1
 242.3671875 645.6484375 l 1
 247.171424812 736.885383855 287.608343266 774.461752177 345.823242188 800.51171875 c 1
 363.147460938 763.6640625 l 1
 303.052708061 743.55410559 278.313537442 712.172788598 266.31640625 641.685546875 c 1
EndSplineSet
EndChar
StartChar: afii57645
Encoding: 1470 1470 93
Width: 398
Flags: HW
LayerCount: 2
Back
SplineSet
74.3994140625 439.90625 m 1
 62.51953125 441.759765625 l 1
 92 559 l 1
 116.899414062 557.919921875 l 1
 201.792652776 553.600585938 383.797856958 557.849609375 422.040039062 552.280273438 c 1
 433.893554688 533.599609375 l 1
 409.19921875 434.918945312 l 1
 322.889542728 437.047851562 158.744301373 435.509765625 74.3994140625 439.90625 c 1
EndSplineSet
Fore
SplineSet
50.51953125 441.759765625 m 1
 80 559 l 1
 158.31958275 553.250497071 338.419957677 558.809155567 379.040039062 552.280273438 c 1
 390.893554688 533.599609375 l 1
 366.19921875 434.918945312 l 1
 284.306666083 437.137260322 90.1119887324 435 50.51953125 441.759765625 c 1
EndSplineSet
EndChar
StartChar: afii57664
Encoding: 1488 1488 95
Width: 469
UnlinkRmOvrlpSave: 1
Flags: HW
AnchorPoint: "HbMiddle" 160 213 basechar 0
AnchorPoint: "HbTopLeft" 121.68 619.44 basechar 0
AnchorPoint: "HbBottom" 206 0 basechar 0
AnchorPoint: "HbTop" 287.68 619.44 basechar 0
LayerCount: 2
Back
SplineSet
408.459960938 556.919921875 m 1
 430.852539062 552.095703125 458.206054688 527 465.206054688 509 c 1
 471.206054688 491 468.288085938 446.216796875 449.106445312 410.83984375 c 1
 433.206054688 380.712890625 355.08203125 270.275390625 315.803710938 244.48046875 c 1
 295.625 262.000976562 l 1
 329.173828125 293 374.9765625 376.879882812 381.206054688 405 c 1
 381.70703125 417.200195312 l 1
 381.267578125 424.400390625 372.887695312 427.400390625 372.698242188 427.400390625 c 1
 351.9140625 433.224609375 323.9765625 442.7890625 312.108398438 453.120117188 c 1
 354.212890625 571.719726562 l 1
 372.869140625 566.919921875 l 1
 408.459960938 556.919921875 l 1
115.30078125 567.799804688 m 1
 120.25390625 565.479492188 125.44921875 564.3203125 130.401367188 562 c 1
 134.399414062 556.043945312 138.249219242 552.807725292 144.989257812 540.599609375 c 0
 167.8046875 499.274414062 280.544537273 319.20874855 347.189453125 210.51953125 c 0
 396.368164062 130.315429688 413.28125 99.37109375 417.82421875 82 c 1
 410.211914062 52.923828125 387.362304688 12.0927734375 367.401367188 -5.919921875 c 1
 363.243164062 1.892578125 358.758789062 9.70703125 353.6015625 17.51953125 c 1
 349.838867188 24.640625 344.308914707 33.0279412349 340.254882812 40.0400390625 c 0
 284.032226562 137.286132812 214.606359126 250.210882455 151.026367188 349.759765625 c 0
 126.510742188 388.14453125 98.3408203125 429.99609375 76.60546875 470 c 1
 83.1123046875 504.598632812 89.583984375 526.166015625 115.30078125 567.799804688 c 1
48.794921875 208.3828125 m 0
 71.8525390625 305.890625 91.3994140625 412.477539062 102.099609375 443.120117188 c 1
 121.206054688 435 l 1
 113.875 400.025390625 103.43618929 317.096723385 96.0205078125 260.387695312 c 0
 80.9384765625 145.052734375 80.8759765625 143.44921875 167.456054688 136.799804688 c 1
 166.875976562 97.0126953125 151.755859375 45.166015625 142.24609375 0 c 1
 33.005859375 0 l 1
 12.2294921875 0.2802734375 l 1
 5.9619140625 16.6796875 l 1
 19.9911317856 82.1183709656 33.5542024894 143.931694411 48.794921875 208.3828125 c 0
EndSplineSet
Fore
SplineSet
102.099609375 443.120117188 m 1
 121.206054688 435 l 1
 113.875 400.025390625 103.43618929 317.096723385 96.0205078125 260.387695312 c 0
 80.9384765625 145.052734375 80.8759765625 143.44921875 167.456054688 136.799804688 c 1
 166.875976562 97.0126953125 151.755859375 45.166015625 142.24609375 0 c 1
 98.9450558201 0.131253736762 55.0859811614 -0.29552925523 12.2294921875 0.2802734375 c 1
 5.9619140625 16.6796875 l 1
 29.8871431319 128.277890822 84.3445822908 366.500673921 102.099609375 443.120117188 c 1
408.459960938 556.919921875 m 1
 430.852539062 550.095703125 458.206054688 527 465.206054688 509 c 1
 471.206054688 491 468.288085938 446.216796875 449.106445312 410.83984375 c 1
 433.206054688 380.712890625 355.08203125 270.275390625 315.803710938 244.48046875 c 1
 295.625 262.000976562 l 1
 329.173828125 293 374.9765625 376.879882812 381.206054688 405 c 0
 383.609488783 416.039642997 381 425 372.698242188 427.400390625 c 1
 351.9140625 433.224609375 323.9765625 442.7890625 312.108398438 453.120117188 c 1
 354.212890625 571.719726562 l 1
 372.671321078 567.162532015 390.467150011 561.942735948 408.459960938 556.919921875 c 1
115.30078125 567.799804688 m 1
 120.25390625 565.479492188 125.44921875 564.3203125 130.401367188 562 c 1
 134.399414062 556.043945312 138.249219242 552.807725292 144.989257812 540.599609375 c 0
 167.8046875 499.274414062 280.544537273 319.20874855 347.189453125 210.51953125 c 0
 396.368164062 130.315429688 413.28125 99.37109375 417.82421875 82 c 1
 410.211914062 52.923828125 387.362304688 12.0927734375 367.401367188 -5.919921875 c 1
 345 38 225.21923286 233.594023986 151.026367188 349.759765625 c 0
 126.510742188 388.14453125 98.3408203125 429.99609375 76.60546875 470 c 1
 83.1123046875 504.598632812 89.583984375 526.166015625 115.30078125 567.799804688 c 1
EndSplineSet
EndChar
StartChar: afii57665
Encoding: 1489 1489 96
Width: 431
UnlinkRmOvrlpSave: 1
Flags: HW
AnchorPoint: "HbTop" 275 618.44 basechar 0
AnchorPoint: "HbMiddle" 215 283 basechar 0
AnchorPoint: "HbBottom" 186 0 basechar 0
AnchorPoint: "HbTopLeft" 147.68 618.44 basechar 0
LayerCount: 2
Back
SplineSet
198.706054688 570.719726562 m 1
 210.64453125 568.814453125 282.7109375 562.512695312 302.432617188 551 c 0
 367.486328125 513.025390625 390.560546875 318.485351562 344.905273438 138.280273438 c 0
 340.515625 120.951171875 378.237304688 124.9375 397 120.639648438 c 1
 360.982421875 -0.4404296875 l 1
 338.466796875 -0.0458984375 334.260742188 0.19921875 300.221679688 0.2060546875 c 0
 194.379882812 0.2265625 69.240234375 0 69.240234375 0 c 1
 15.8837890625 -0.0400390625 l 1
 0.6591796875 9.240234375 l 1
 29.4609375 117.719726562 l 1
 52.9501953125 127 30.4931640625 124.763671875 306.203125 124.634765625 c 1
 337.80859375 284 336.528320312 409.745117188 266.620117188 431.759765625 c 0
 205.674804688 453.7265625 127.53515625 436.252929688 97.83203125 460.440429688 c 1
 143.357421875 583.040039062 l 1
 161.747070312 577.240234375 l 1
 198.706054688 570.719726562 l 1
EndSplineSet
Fore
SplineSet
302.432617188 551 m 0
 368.07864083 514.058751457 390.560546875 318.485351562 344.905273438 138.280273438 c 0
 340.515625 120.951171875 378.237304688 124.9375 397 120.639648438 c 1
 360.982421875 -0.4404296875 l 1
 299.428691307 -0.135272368382 69.2305627984 -7.25762105309e-06 15.8837890625 -0.0400390625 c 1
 0.6591796875 9.240234375 l 1
 29.4609375 117.719726562 l 1
 52.9501953125 127 30.4931640625 124.763671875 306.203125 124.634765625 c 1
 337.80859375 284 336.528320312 409.745117188 266.620117188 431.759765625 c 0
 205.674804688 453.7265625 127.53515625 436.252929688 97.83203125 460.440429688 c 1
 143.357421875 583.040039062 l 1
 185.809797864 566.460844597 274 567 302.432617188 551 c 0
EndSplineSet
EndChar
StartChar: afii57668
Encoding: 1492 1492 99
Width: 495
UnlinkRmOvrlpSave: 1
Flags: HW
AnchorPoint: "HbTop" 289 619.44 basechar 0
AnchorPoint: "HbMiddle" 270 284 basechar 0
AnchorPoint: "HbBottom" 202 0 basechar 0
AnchorPoint: "HbTopLeft" 139.68 619.44 basechar 0
LayerCount: 2
Fore
SplineSet
149.844726562 313.200195312 m 1
 161.969726562 303.16015625 l 1
 155.607748868 236.990002391 145.556046797 156.690785642 132.428710938 62.6396484375 c 1
 58.54296875 -20.8798828125 l 1
 43 -8.1201171875 l 1
 89.283203125 237.639648438 l 1
 149.844726562 313.200195312 l 1
268.873046875 570.520507812 m 3
 337.6171875 570.520507812 386.03125 566 421.03125 532 c 1
 449.0625 498.946289062 446.779296875 454.853515625 443.611328125 399.040039062 c 1
 440.877929688 317.83984375 435.2734375 242.440429688 428.323242188 176.3203125 c 0
 424.177734375 136.879882812 419.116210938 99.759765625 414.665039062 68.4404296875 c 1
 391.5625 38.96484375 368.340820312 8.3544921875 346.649414062 -17.7197265625 c 1
 329.024414062 -4.6396484375 l 1
 364.96875 164.931640625 429.03125 350 374.03125 414 c 1
 348.03125 442 243.529296875 442.45703125 201.301757812 442.51953125 c 1
 164.0625 443.16015625 107.153320312 443.479492188 91.142578125 448.440429688 c 1
 136.668945312 571.040039062 l 1
 176.015115867 571.59360196 227.188697616 570.520507812 268.873046875 570.520507812 c 3
EndSplineSet
EndChar
StartChar: afii57669
Encoding: 1493 1493 100
Width: 222
UnlinkRmOvrlpSave: 1
Flags: HW
AnchorPoint: "HbMiddle" 50 284 basechar 0
AnchorPoint: "HbTop" 153.04 619.44 basechar 0
AnchorPoint: "HbBottom" 74 0 basechar 0
AnchorPoint: "HbTopLeft" 100.68 619.44 basechar 0
LayerCount: 2
Back
SplineSet
134.491210938 597.6796875 m 5xa0
 141.354492188 595.360351562 148.33984375 594.200195312 155.202148438 591.879882812 c 1
 159.317382812 584.473632812 162.21875 577.067382812 163.392578125 570.719726562 c 1
 165.380859375 562.951171875 168.131835938 546.13671875 168.890625 533.599609375 c 1
 170.498046875 514 170.068359375 480 167.79296875 449.3203125 c 1
 138.799804688 402.240234375 l 1
 135.258789062 402.3203125 132.60546875 402.400390625 129.060546875 402.440429688 c 1
 105.592773438 414.734375 79.7841796875 440.268554688 71.609375 468.639648438 c 1
 85.0888671875 508.76171875 103.5703125 548.883789062 134.491210938 597.6796875 c 5xa0
160.322265625 504.599609375 m 1
 172.842773438 480.240234375 167.595703125 452.400390625 164.307617188 399.040039062 c 1
 161.939453125 321.3203125 156.45703125 247.080078125 149.62890625 182.120117188 c 0
 145.084960938 138.890625 139.633789062 98.0625 134.940429688 64.4404296875 c 1
 113.836914062 37.017578125 90.3701171875 8.5390625 72.994140625 -15.7197265625 c 1
 53 -4.6396484375 l 1
 75.0029296875 156.599609375 120.489257812 308.559570312 125.423828125 421.080078125 c 5xd0
 135.252929688 469.799804688 138.040039062 498.799804688 160.322265625 504.599609375 c 1
EndSplineSet
Fore
SplineSet
134.491210938 597.6796875 m 1
 141.354492188 595.360351562 148.33984375 594.200195312 155.202148438 591.879882812 c 1
 177.893207654 551.517209778 168.285038128 463.587190124 164.307617188 399.040039062 c 0
 161.939453125 321.3203125 156.45703125 247.080078125 149.62890625 182.120117188 c 0
 145.084960938 138.890625 139.633789062 98.0625 134.940429688 64.4404296875 c 1
 113.836914062 37.017578125 90.3701171875 8.5390625 72.994140625 -15.7197265625 c 1
 53 -4.6396484375 l 1
 73.9713830692 149.040351881 116.275871162 294.290728382 124.469003777 404.997488634 c 1
 102.31830707 418.059393468 79.2538364287 442.109139729 71.609375 468.639648438 c 1
 85.0888671875 508.76171875 103.5703125 548.883789062 134.491210938 597.6796875 c 1
EndSplineSet
EndChar
StartChar: afii57672
Encoding: 1496 1496 103
Width: 447
UnlinkRmOvrlpSave: 1
Flags: HW
AnchorPoint: "HbTop" 251 619.44 basechar 0
AnchorPoint: "HbMiddle" 246 284 basechar 0
AnchorPoint: "HbBottom" 144 0 basechar 0
AnchorPoint: "HbTopLeft" 90.68 619.44 basechar 0
LayerCount: 2
Back
SplineSet
112.639648438 563.376953125 m 1
 112.827148438 558.69921875 113.046875 542.754882812 112.540039062 532.458984375 c 0
 112.109375 523.698242188 108.575195312 453.774414062 108.509765625 437.059570312 c 0
 108.485351562 430.831054688 108.143554688 426.029296875 108.502929688 420.203125 c 0
 109.775390625 399.59375 109.971679688 381.694335938 111.071289062 366.547851562 c 0
 119.182617188 254.826171875 129.670898438 147.5546875 146.043945312 65.025390625 c 1
 121.765625 47.423828125 101.795898438 33.083984375 79.513671875 16.240234375 c 1
 72.59765625 110.831054688 65.3486328125 234.3359375 63.46875 315.889648438 c 0
 62.5849609375 354.239257812 61.783203125 384.549804688 61.9423828125 395.83984375 c 0
 62.060546875 404.177734375 61.5087890625 419.502929688 61.4912109375 469.564453125 c 1
 92.3037109375 441.9140625 l 1
 73.384765625 432.891601562 l 1
 46.603515625 446.944335938 35.0087890625 469.188476562 37.4208984375 484.404296875 c 0
 39.88671875 499.958984375 55.1064453125 556.889648438 85.2021484375 596.658203125 c 1
 111.463867188 590.475585938 l 1
 112.639648438 563.376953125 l 1
213.532226562 119.559570312 m 0
 259.615234375 121.05078125 303.58203125 166.604492188 326.215820312 192.306640625 c 0
 347.891601562 216.919921875 379.095703125 271.818359375 384.134765625 312.623046875 c 0
 394.849609375 399.381835938 346.55078125 444 317.530273438 444 c 3
 296.814453125 444 276.904296875 441.21484375 243.302734375 436.51953125 c 1
 219.383789062 461.157226562 218.096679688 455.680664062 279.125 563.919921875 c 1
 322.006835938 573.64453125 345.857421875 574.200195312 366.596679688 574.200195312 c 3
 389.21875 574.200195312 454.662109375 529.533203125 441.190429688 401.360351562 c 0
 426.00390625 256.873046875 333.380859375 121.641601562 254.252929688 52.2001953125 c 0
 221.703125 23.634765625 187.3125 1.16015625 158.448242188 1.16015625 c 0
 118.40625 0 l 1
 98.2255859375 -0.759765625 l 1
 75.083984375 10.83984375 l 1
 107.427734375 116.227539062 l 1
 128.155273438 118.03515625 143.138671875 117.110351562 213.532226562 119.559570312 c 0
EndSplineSet
Fore
SplineSet
108.509765625 437.059570312 m 0
 109 329 126.567491185 163.197592601 146.043945312 65.025390625 c 1
 121.765625 47.423828125 101.795898438 33.083984375 79.513671875 16.240234375 c 1
 67.9194305052 174.815469242 61.5453314843 315.432142639 61.4912109375 469.564453125 c 1
 92.3037109375 441.9140625 l 1
 73.384765625 432.891601562 l 1
 46.603515625 446.944335938 35.0087890625 469.188476562 37.4208984375 484.404296875 c 0
 39.88671875 499.958984375 55.1064453125 556.889648438 85.2021484375 596.658203125 c 1
 111.463867188 590.475585938 l 1
 115 507 108.268184387 490.309946244 108.509765625 437.059570312 c 0
213.532226562 119.559570312 m 0
 259.615234375 121.05078125 303.58203125 166.604492188 326.215820312 192.306640625 c 0
 347.891601562 216.919921875 379.095703125 271.818359375 384.134765625 312.623046875 c 0
 394.849609375 399.381835938 346.55078125 444 317.530273438 444 c 3
 296.814453125 444 276.904296875 441.21484375 243.302734375 436.51953125 c 1
 219.383789062 461.157226562 218.096679688 455.680664062 279.125 563.919921875 c 1
 322.006835938 573.64453125 345.857421875 574.200195312 366.596679688 574.200195312 c 3
 389.21875 574.200195312 454.662109375 529.533203125 441.190429688 401.360351562 c 0
 426.00390625 256.873046875 333.380859375 121.641601562 254.252929688 52.2001953125 c 0
 221.703125 23.634765625 187.3125 1.16015625 158.448242188 1.16015625 c 0
 138.330194637 0.577266205618 118.11508176 -0.0109619593744 98.2255859375 -0.759765625 c 1
 75.083984375 10.83984375 l 1
 107.427734375 116.227539062 l 1
 128.155273438 118.03515625 143.138671875 117.110351562 213.532226562 119.559570312 c 0
EndSplineSet
EndChar
StartChar: afii57676
Encoding: 1500 1500 107
Width: 374
UnlinkRmOvrlpSave: 1
Flags: HW
AnchorPoint: "HbTop" 245 619.44 basechar 0
AnchorPoint: "HbMiddle" 173 302 basechar 0
AnchorPoint: "HbBottom" 123 0 basechar 0
LayerCount: 2
Back
SplineSet
136.826171875 568.944335938 m 1
 172.557617188 551.052734375 300.595703125 521.59765625 344.624023438 496 c 1
 364.36328125 437.9140625 365.66796875 362.418945312 360.2421875 310.799804688 c 0
 359.388671875 302.6796875 359.500976562 294.213867188 356.643554688 287.599609375 c 0
 328.544921875 222.559570312 148.157226562 73.560546875 35.58203125 -29.3203125 c 1
 23.3525390625 -18.5595703125 l 1
 37.83203125 108.16015625 l 1
 147.901367188 168.58984375 243.8046875 210.134765625 318.536132812 299.520507812 c 1
 321.809570312 329.759765625 314.387695312 351.752929688 303 375.120117188 c 1
 236.249023438 411.822265625 192.657226562 415.819335938 127.624023438 444 c 0
 105.7109375 455.606445312 89.5830078125 460.256835938 73.6552734375 479.440429688 c 1
 86.4453125 545.807617188 l 1
 91.6240234375 566 101.624023438 607 101.5 625.240234375 c 1
 89.3759765625 667 l 1
 102.247070312 710.364257812 127.84765625 769.530273438 161.1328125 801.48046875 c 1
 176.560546875 794.51953125 l 1
 136.826171875 568.944335938 l 1
EndSplineSet
Fore
SplineSet
136.826171875 568.944335938 m 1
 172.557617188 551.052734375 300.595703125 521.59765625 344.624023438 496 c 1
 364.36328125 437.9140625 365.66796875 362.418945312 360.2421875 310.799804688 c 0
 359.388671875 302.6796875 359.500976562 294.213867188 356.643554688 287.599609375 c 0
 328.544921875 222.559570312 148.157226562 73.560546875 35.58203125 -29.3203125 c 1
 23.3525390625 -18.5595703125 l 1
 37.83203125 108.16015625 l 1
 147.901367188 168.58984375 243.8046875 210.134765625 318.536132812 299.520507812 c 1
 321.809570312 329.759765625 314.387695312 351.752929688 303 375.120117188 c 1
 220 422 113 433 73.6552734375 479.440429688 c 1
 85 546 102 598 101.5 625.240234375 c 1
 89.3759765625 667 l 1
 102.247070312 710.364257812 127.84765625 769.530273438 161.1328125 801.48046875 c 1
 176.560546875 794.51953125 l 1
 136.826171875 568.944335938 l 1
EndSplineSet
EndChar
StartChar: afii57685
Encoding: 1509 1509 116
Width: 397
UnlinkRmOvrlpSave: 1
Flags: HW
AnchorPoint: "HbMiddle" 87 200 basechar 0
AnchorPoint: "HbTop" 210 619.44 basechar 0
AnchorPoint: "HbBottom" 123 0 basechar 0
AnchorPoint: "HbTopLeft" 61.68 619.44 basechar 0
LayerCount: 2
Back
SplineSet
203.610351562 259 m 1
 351.583984375 436 371.506835938 438 227.610351562 467 c 1
 268.610351562 578 l 1
 293.610351562 580 l 1
 337.953125 580 398.858398438 552.577148438 408.077148438 533.440429688 c 1
 418.159179688 509.067382812 415.174804688 479.0390625 400.610351562 444 c 1
 385.831054688 416.16015625 l 1
 370.165039062 384 323.796875 333.516601562 226.610351562 247 c 1
 203.610351562 259 l 1
49.1083984375 590.440429688 m 1
 55.6728515625 588.453125 68.2373046875 586.466796875 74.8017578125 584.48046875 c 1
 78.7109375 577.51953125 80.9384765625 570.559570312 82.96875 564.759765625 c 0
 96.6103515625 538.88671875 122.1484375 484 138.610351562 451 c 0
 140.33203125 446.052734375 144.139648438 437.947265625 146.610351562 432 c 0
 154.375976562 416 164.052734375 396 173.610351562 377 c 0
 340.610351562 105 285.610351562 -15 225.444335938 -150 c 1
 204.341796875 -182.52734375 182.002929688 -216.305664062 164.611328125 -245.080078125 c 1
 148.986328125 -232 l 1
 220.610351562 -59 278.610351562 53 84.6103515625 349 c 0
 64.6103515625 383 45.162109375 423.44140625 34.6103515625 455 c 0
 28.7275390625 473.426757812 30.634765625 487.193359375 32.6103515625 507 c 0
 35.328125 534.245117188 40.0048828125 558.005859375 49.1083984375 590.440429688 c 1
EndSplineSet
Fore
SplineSet
203.610351562 259 m 1
 283.138786302 354.128656919 325.67942705 398.708118548 325.67942705 424.097634776 c 0
 325.67942705 445.948818858 294.169664785 453.586051134 227.610351562 467 c 1
 268.610351562 578 l 1
 272.898497969 578.648990812 287.921514623 580 293.610351562 580 c 3
 337.953125 580 398.858398438 552.577148438 408.077148438 533.440429688 c 1
 412.05610704 523.821401327 413.999903948 513.321534299 413.999903948 501.980448025 c 3
 413.999903948 426.941368439 348.176235266 355.219398656 226.610351562 247 c 1
 203.610351562 259 l 1
49.1083984375 590.440429688 m 1
 55.6728515625 588.453125 68.2373046875 586.466796875 74.8017578125 584.48046875 c 1
 185 332 284.718727183 227.004408571 284.718727183 63.8126332355 c 3
 284.718727183 -62.5986705405 210.858194823 -177.94661037 164.611328125 -245.080078125 c 1
 148.986328125 -232 l 1
 184.366188331 -146.543814743 216.421748764 -75.9717998725 216.421748764 9.24569337329 c 0
 216.421748764 96.5449850402 182.780872141 199.214051076 84.6103515625 349 c 0
 61.7118941737 387.927377561 30.6633492694 449.970847715 30.6633492694 480.628565187 c 3
 30.6633492694 509.001997251 37.6499163342 549.615438688 49.1083984375 590.440429688 c 1
EndSplineSet
EndChar
StartChar: afii57687
Encoding: 1511 1511 118
Width: 462
UnlinkRmOvrlpSave: 1
Flags: HW
AnchorPoint: "HbTop" 275 619.44 basechar 0
AnchorPoint: "HbMiddle" 256 284 basechar 0
AnchorPoint: "HbBottom" 233 0 basechar 0
AnchorPoint: "HbTopLeft" 110.68 619.44 basechar 0
LayerCount: 2
Back
SplineSet
409.44921875 519 m 0
 422.643554688 505.998046875 437.338867188 464.3046875 441.631835938 424.559570312 c 0
 443.825195312 404.258789062 444.177734375 334.9453125 440.44921875 290 c 0
 431.998046875 188.822265625 310.48828125 -3 193.44921875 -3 c 3
 155.98828125 -3 96.6796875 -2.7998046875 96.6796875 -2.7998046875 c 1
 41.9189453125 -3.16015625 l 1
 27.4130859375 4.9599609375 l 1
 57.7060546875 116.599609375 l 1
 94.4453125 120.602539062 124.45703125 120.720703125 259.533203125 120.720703125 c 3
 351.452148438 120.720703125 391.938476562 197.78515625 396.44921875 281 c 0
 397.126953125 293.659179688 394.400390625 325.823242188 392.5625 337.599609375 c 0
 387.791015625 368.1796875 367.30859375 396.950195312 354.44921875 407 c 0
 328.266601562 427.4609375 259.5546875 441.4375 201.95703125 442.6796875 c 0
 166.16015625 443.451171875 129.532226562 445.303710938 121.397460938 447.3203125 c 1
 147.956054688 570.240234375 l 1
 188.764648438 569.879882812 l 1
 220.561523438 570.360351562 l 1
 343.810546875 568.505859375 379.206054688 548.803710938 409.44921875 519 c 0
EndSplineSet
Fore
SplineSet
139.506835938 313.200195312 m 1
 158.560546875 301.16015625 l 1
 137.866210938 262.200195312 l 1
 123.840820312 194.974609375 112.135742188 -26.7509765625 100.077148438 -163.559570312 c 1
 32.763671875 -246.080078125 l 1
 17 -234.3203125 l 1
 62.2919921875 207.639648438 l 1
 139.506835938 313.200195312 l 1
227.981445312 570.520507812 m 3
 300.037109375 570.520507812 383.7265625 558.98828125 416.34765625 512 c 0
 446.59375 468.431640625 447.829101562 337 437.870117188 266.799804688 c 0
 436.55859375 257.560546875 434.880859375 249.400390625 434.02734375 241.280273438 c 1
 414.237304688 187.274414062 295.6171875 60.689453125 215.796875 -27.3203125 c 1
 204.516601562 -18.5595703125 l 1
 218.99609375 108.16015625 l 1
 291.802734375 153.877929688 378.889648438 177.680664062 394.129882812 255.200195312 c 0
 402.34765625 297 392.34765625 376 357.34765625 405 c 0
 319.170898438 436.631835938 210.349609375 442.51953125 171.498046875 442.51953125 c 3
 135.29296875 442.51953125 79.361328125 443.966796875 64.2294921875 451.440429688 c 1
 109.544921875 572.040039062 l 1
 160.084199303 569.597620452 142.896976327 570.520507812 227.981445312 570.520507812 c 3
EndSplineSet
EndChar
StartChar: uni1E9E
Encoding: 7838 7838 770
Width: 862
Flags: HW
LayerCount: 2
Fore
SplineSet
656.7734375 662.286132812 m 1
 616.641601562 684.631835938 566.751953125 691 531.876953125 691 c 3
 456.75390625 691 394.379882812 665.109375 346.276367188 620 c 0
 295.958984375 572.815429688 261.256835938 504.602539062 243.911132812 423 c 0
 237.109375 391 182.405273438 96 180.91796875 89 c 0
 170.2265625 34 199.801757812 32 266.526367188 26 c 1
 254.874023438 -10 l 1
 175.362304688 -3 42.3623046875 -3 -19.1259765625 -10 c 1
 -15.623046875 30 l 1
 68.2900390625 39 80.927734375 42 90.2802734375 86 c 0
 93.1728515625 99.609375 148.150390625 381.78125 153.935546875 409 c 0
 173.22265625 499.737304688 226.859375 585.629882812 299.87109375 646 c 0
 363.653320312 698.73828125 442.220703125 732 525.591796875 732 c 3
 632.494140625 732 714.143554688 692.708984375 766.66015625 657.049804688 c 1
 746.611328125 623.885742188 l 1
 648.366210938 658.17578125 564.0546875 583.630859375 549.466796875 515 c 0
 528.124023438 414.591796875 604.231445312 407.956054688 727.544921875 346 c 0
 824.052734375 297.59765625 826.991210938 216.370117188 816.709960938 168 c 0
 800.416992188 91.3505859375 725.483398438 -15 542.811523438 -15 c 3
 496.921875 -15 450.655273438 -5 412.763671875 13 c 0
 395.091796875 21.39453125 395.0390625 19 379.086914062 -9 c 1
 347.9375 -5 l 1
 363.603515625 64 364.4296875 82 361.172851562 189 c 1
 396.448242188 195 l 1
 401.907226562 136 404.475585938 117.52734375 421.193359375 95 c 0
 448.651367188 58 519.8125 28 574.951171875 28 c 3
 668.451171875 28 721.719726562 97.48046875 733.095703125 151 c 0
 758.177734375 269 591.08984375 296 543.71875 328 c 0
 527.481445312 338.967773438 444.28125 377.693359375 468.15234375 490 c 0
 482.434570312 557.19140625 547.244140625 629.646484375 656.7734375 662.286132812 c 1
EndSplineSet
Position2: "cpsp-1" dx=0 dy=0 dh=50 dv=100
EndChar
StartChar: uni1FBF
Encoding: 8127 8127 831
Width: 198
Flags: HW
AnchorPoint: "Top" 192.023 465 mark 0
LayerCount: 2
Fore
SplineSet
162.860351562 494 m 1
 166.13671875 516 l 1
 201.859375 516 243.755859375 534.618164062 251.60546875 575 c 0
 259.232421875 614.237304688 219.653320312 604.219726562 190.8828125 618.799804688 c 0
 187.28125 620.541992188 186.681640625 626 187.615234375 630.799804688 c 0
 188.547851562 635.599609375 191.2890625 638.61328125 195.237304688 641.200195312 c 0
 203.0859375 646.341796875 225.06640625 672.174804688 228.266601562 685.599609375 c 0
 229.29296875 689.903320312 236.067382812 692.799804688 240.8671875 692.799804688 c 3
 245.666992188 692.799804688 250.181640625 691.154296875 251.4453125 689.599609375 c 0
 257.66796875 681.9453125 314.083007812 664.912109375 300.493164062 595 c 0
 284.822265625 514.379882812 215.5390625 494 162.860351562 494 c 1
EndSplineSet
EndChar
StartChar: dagger
Encoding: 8224 8224 198
Width: 442
Flags: HW
LayerCount: 2
Fore
SplineSet
275 370 m 1
 247 262 246 250 234 -18 c 9
 209 -18 l 17
 195 266 194.440429688 282.899414062 168 370 c 1
 196 441 201 460 209 523 c 1
 134 513 l 2
 79 503 83 491 57 491 c 3
 43.9615951896 491 17 518 17 535 c 3
 17 552 45.9580078125 580 58 580 c 3
 83 580 84 569 134 560 c 2
 209 550 l 1
 198 620 l 2
 191 658 177 681 177 702 c 3
 177 718 205 741 222 741 c 3
 239 741 267 718 267 704 c 3
 267 681 253 657 246 620 c 2
 235 550 l 1
 310 560 l 2
 365 570 360 581 386 581 c 3
 398.165039062 581 427 554 427 537 c 3
 427 520 398.038085938 492 385 492 c 3
 360 492 360 504 310 513 c 2
 234 523 l 1
 242 461 247 442 275 370 c 1
EndSplineSet
EndChar
StartChar: daggerdbl
Encoding: 8225 8225 199
Width: 442
Flags: HW
LayerCount: 2
Fore
SplineSet
176 369 m 1
 198.536585366 440 202.56097561 460 209 523 c 1
 134 513 l 2
 79 503 83 491 57 491 c 3
 43.9619140625 491 17 518 17 535 c 3
 17 552 45.9580078125 580 58 580 c 3
 83 580 84 569 134 560 c 2
 209 550 l 1
 198 620 l 2
 191 658 177 681 177 702 c 3
 177 718 205 741 222 741 c 3
 239 741 267 718 267 704 c 3
 267 681 253 657 246 620 c 2
 235 550 l 1
 310 560 l 2
 365 570 360 581 386 581 c 3
 398.165039062 581 427 554 427 537 c 3
 427 520 398.038085938 492 385 492 c 3
 360 492 360 504 310 513 c 2
 234 523 l 1
 240.43902439 461 244.463414634 441 267 369 c 1
 244.463414634 298 240.43902439 275 234 212 c 1
 309 222 l 2
 364 232 360 244 386 244 c 3
 399.038085938 244 426 217 426 200 c 3
 426 183 397.041992188 155 385 155 c 3
 360 155 359 166 309 175 c 2
 234 185 l 1
 245 115 l 2
 252 77 266 54 266 33 c 3
 266 17 238 -6 221 -6 c 3
 204 -6 176 17 176 31 c 3
 176 54 190 78 197 115 c 2
 208 185 l 1
 133 175 l 2
 78 165 83 154 57 154 c 3
 44.8349609375 154 16 181 16 198 c 3
 16 215 44.9619140625 243 58 243 c 3
 83 243 83 231 133 222 c 2
 209 212 l 1
 202.56097561 274 198.536585366 297 176 369 c 1
EndSplineSet
EndChar
StartChar: uni2023
Encoding: 8227 8227 874
Width: 614
Flags: HW
LayerCount: 2
Fore
SplineSet
558.770507812 306.640625 m 9
 552.2578125 276 l 17
 513.006835938 256 401.59375 263.59375 346.735351562 245.313476562 c 0
 120.075195312 205.319335938 130.4296875 96.8505859375 14.1787109375 8.7802734375 c 1
 -4.224609375 23.8203125 l 17
 42.875 121.580078125 122.727539062 383.547851562 95.0224609375 561.5 c 1
 129.500976562 569.021484375 l 17
 160.798828125 486.30078125 170.633789062 337.610351562 334.831054688 332.140625 c 0
 424.157226562 328.91015625 524.267578125 321.211914062 558.770507812 306.640625 c 9
EndSplineSet
EndChar
StartChar: minute
Encoding: 8242 8242 342
Width: 148
Flags: HW
LayerCount: 2
Fore
SplineSet
67.3046875 464.926757812 m 1
 182.811523438 743.795898438 l 1
 246.234375 728.2578125 l 1
 99.4658203125 455.303710938 l 1
 67.3046875 464.926757812 l 1
EndSplineSet
EndChar
StartChar: uni20B9
Encoding: 8377 8377 923
Width: 426
UnlinkRmOvrlpSave: 1
Flags: HW
LayerCount: 2
Fore
SplineSet
33.25 666.09375 m 1
 411.25 666.09375 l 1
 411.25 637.094726562 l 1
 33.25 637.094726562 l 1
 33.25 666.09375 l 1
33.25 489.09375 m 1
 411.25 489.09375 l 1
 411.25 460.094726562 l 1
 33.25 460.094726562 l 1
 33.25 489.09375 l 1
32.5 666 m 1
 57.25390625 666 67.658203125 666 96 666 c 0
 222.431640625 666 327 583 327 480 c 0
 327 393 262.599609375 334 189 304 c 1
 265.474609375 110.581054688 332.772460938 -13.0947265625 412 -19 c 1
 409 -42 l 1
 258 -39 178 134 114 284 c 1
 100.875 283 89.2080078125 283 79 283 c 0
 60.6474609375 283 50.3525390625 285.400390625 32 286 c 1
 32 316 l 1
 49.912109375 315.5 59.087890625 314 77 314 c 3
 219.663085938 314 248 410.737304688 248 469 c 3
 248 534.418945312 188.37890625 638 75 638 c 3
 61.8720703125 638 35.193359375 638 33.5 638 c 1
 32.5 666 l 1
EndSplineSet
EndChar
StartChar: afii61289
Encoding: 8467 8467 143
Width: 445
UnlinkRmOvrlpSave: 1
Flags: HW
LayerCount: 2
Fore
SplineSet
399 701 m 3
 362.084960938 701 337.483398438 635.404296875 304 532 c 0
 299.466796875 518 283.837890625 462.815429688 270 413 c 0
 243.638671875 318.099609375 205.334960938 163.696289062 201 90 c 0
 200 73 200 54 217 53 c 1
 232 52 270 80 292 101 c 1
 313 81 l 1
 287 44 215 -10 174 -10 c 3
 125.345703125 -10 121.963867188 11.48828125 119 37 c 0
 117.25 52.0634765625 120.700195312 69.8564453125 126 96 c 0
 141 170 182.435546875 310.6875 208 401 c 0
 221.333007812 448.103515625 236.260742188 510.791015625 240 527 c 0
 270.682617188 660 307.610351562 686.6328125 369 735 c 0
 389.044921875 750.791992188 417.782226562 766 435 766 c 3
 464.766601562 766 482 724.46875 482 697 c 3
 482 517.135742188 202.44140625 232.830078125 24 -10 c 1
 0 13 l 1
 196.947265625 279.6796875 416 486.96484375 416 677 c 3
 416 684.783203125 406.961914062 701 399 701 c 3
EndSplineSet
EndChar
StartChar: partialdiff
Encoding: 8706 8706 403
Width: 464
UnlinkRmOvrlpSave: 1
Flags: HW
LayerCount: 2
Fore
SplineSet
268 702 m 3
 388.737304688 702 440 588.3203125 440 461 c 3
 440 116.124023438 314.014648438 -9 177 -9 c 3
 69.9765625 -9 32 81.845703125 32 141 c 0
 32 312.795133252 160.800339958 409 287 409 c 3
 336.673828125 409 387.995117188 374.107077206 394 361 c 1
 370 291 l 1
 369.583984375 337.846031688 313.961914062 378 277 378 c 3
 158.623411458 378 111 257.412115188 111 173 c 3
 111 106.502929688 145.416015625 31 202 31 c 3
 256 31 367 114.999023438 367 472 c 3
 367 621.176757812 311.520507812 662 255 662 c 3
 208.728515625 662 169.442382812 639.706054688 142 613 c 1
 134 620 130 624 122 631 c 1
 156.247070312 672.359375 222.9296875 702 268 702 c 3
EndSplineSet
EndChar
StartChar: proportional
Encoding: 8733 8733 418
Width: 606
UnlinkRmOvrlpSave: 1
Flags: HW
LayerCount: 2
Fore
SplineSet
528.635742188 65.2119140625 m 3
 362.631835938 65.2119140625 288.676757812 306.791015625 162.77734375 309.70703125 c 0
 114.3359375 310.829101562 77.0205078125 262.848632812 77.0205078125 207.325195312 c 3
 77.0205078125 151.364257812 116.732421875 105.936523438 168.526367188 105.936523438 c 3
 286.641601562 105.936523438 348.575195312 274.198242188 452 338.114257812 c 0
 483.383789062 357.508789062 509.989257812 362 553 362 c 1
 553 324 l 1
 523.430664062 323.421875 502.598632812 321.171875 480 308.412109375 c 0
 377.916992188 250.772460938 313.416015625 69.3759765625 172.668945312 69.3759765625 c 3
 93.013671875 69.3759765625 42.8671875 137.7734375 42.8671875 217.883789062 c 3
 42.8671875 301.290039062 97.205078125 365.767578125 180.959960938 365.767578125 c 3
 358.004313919 365.767578125 416.984680137 133 553 133 c 1
 553 66 l 1
 546 65 537.969726562 65.2119140625 528.635742188 65.2119140625 c 3
EndSplineSet
EndChar
StartChar: infinity
Encoding: 8734 8734 305
Width: 710
UnlinkRmOvrlpSave: 1
Flags: HW
LayerCount: 2
Fore
SplineSet
168.526367188 105.936523438 m 3
 314.334047796 105.936523438 374.52825744 362.348632812 532.84765625 362.348632812 c 3
 613.139538337 362.348632812 666.904296875 296.315429688 666.904296875 219.224609375 c 3
 666.904296875 134.610016724 611.80859375 65.2119140625 528.635742188 65.2119140625 c 3
 362.631835938 65.2119140625 288.676741487 306.791032744 162.77734375 309.70703125 c 0
 114.336303308 310.828990561 77.0205078125 262.848969733 77.0205078125 207.325195312 c 3
 77.0205078125 151.364257812 116.732258274 105.936523438 168.526367188 105.936523438 c 3
42.8671875 217.883789062 m 3
 42.8671875 301.290177841 97.205078125 365.767578125 180.959960938 365.767578125 c 3
 355.05859375 365.767578125 438.880859375 120.58203125 553.21484375 120.58203125 c 3
 603.597304998 120.58203125 634.760742188 169.966597849 634.760742188 225.346679688 c 3
 634.760742188 282.682617188 597.31680894 325.771484375 542.63671875 325.771484375 c 3
 399.563472849 325.771484375 340.002073757 69.3759765625 172.668945312 69.3759765625 c 3
 93.013671875 69.3759765625 42.8671875 137.7734375 42.8671875 217.883789062 c 3
EndSplineSet
EndChar
StartChar: logicaland
Encoding: 8743 8743 329
Width: 492
VWidth: 1159
Flags: HW
LayerCount: 2
Fore
SplineSet
6 0 m 1
 234.424804688 700 l 1
 258.103515625 700 l 1
 486 0 l 1
 434 0 l 1
 246.559570312 585.079101562 l 3
 58 0 l 1
 6 0 l 1
EndSplineSet
EndChar
StartChar: circle
Encoding: 9675 9675 1431
Width: 569
Flags: HW
LayerCount: 2
Fore
SplineSet
295.650390625 515.599609375 m 3
 178.917057292 515.599609375 89.650390625 428.518398639 89.650390625 296.200195312 c 3
 89.650390625 155.449871159 206.818840779 40.400390625 331.950195312 40.400390625 c 3
 417.898218615 40.400390625 531.349609375 113.000201057 531.349609375 264.799804688 c 3
 531.349609375 382.499713028 448.228628849 515.599609375 295.650390625 515.599609375 c 3
EndSplineSet
Refer: 1430 9679 N 1 0 0 1 0 0 2
EndChar
StartChar: uni2619
Encoding: 9753 9753 959
Width: 1004
UnlinkRmOvrlpSave: 1
Flags: HW
LayerCount: 2
Fore
SplineSet
832 360 m 1
 801 373 l 1
 830.547851562 397 842 435.810546875 842 473 c 3
 842 519.818359375 817.521484375 527 799 527 c 3
 767.033203125 527 750 490.467773438 750 467 c 3
 750 299.23046875 971 287.998046875 971 137 c 3
 971 94.3515625 956.185546875 71.490234375 946 30 c 1
 916.201171875 47.466796875 876.6328125 63.3427734375 869 87 c 1
 871.036969866 98.6004909939 874 123.047485351 874 148 c 3
 874 273.287657729 714 292.926754732 714 476 c 3
 714 510.340820312 739.73828125 563 792 563 c 3
 828.016601562 563 872 542.036132812 872 478 c 3
 872 444.532226562 866.333007812 404.237304688 832 360 c 1
828 643.067382812 m 1
 852 700.490234375 l 1
 915.66796875 675.018554688 960 618.465820312 960 533 c 3
 960 411.457192096 836.084054129 353.604840686 678 267 c 1
 724.286132812 259.05859375 786 199.165039062 786 132 c 3
 786 61.765625 737.708984375 -12 651 -12 c 3
 495.793945312 -12 408.279296875 42 252 42 c 3
 209.4296875 42 187.30859375 40 145 40 c 3
 93.4619140625 40 51 75.9609375 51 120 c 3
 51 162.31640625 54.375 183.461914062 78 219 c 1
 96.8828125 219.05859375 122.857421875 191.159179688 150 159 c 1
 136.286132812 139.799804688 114 131.7109375 114 111 c 3
 114 92.169921875 132.063476562 75 159 75 c 3
 197.622070312 75 226.114257812 107.84375 237 159 c 0
 286.27734375 390.569335938 340.92578125 547 475 547 c 3
 545.271484375 547 627 507.708007812 627 404 c 3
 627 305.7890625 600 294.384765625 413 199 c 1
 406.555664062 184.366210938 401.491210938 173.06640625 399 165 c 1
 609.147239264 274.568179777 918 390.922413793 918 524 c 3
 918 600.9765625 864.760742188 634.026367188 828 643.067382812 c 1
EndSplineSet
EndChar
StartChar: uni263F
Encoding: 9791 9791 972
Width: 500
UnlinkRmOvrlpSave: 1
Flags: HW
LayerCount: 2
Fore
SplineSet
53 663 m 1
 103.144441835 546.715162568 190.598320927 535.999023438 258.392578125 535.999023438 c 3
 321.879275669 535.999023438 403.356465713 561.221109614 447 663 c 1
 463 660 l 1
 443.474422046 551.600535894 396.438356163 524.782257022 334 494 c 1
 176 492 l 1
 103.411945745 522.327456241 48.6013403044 557.796604329 37 660 c 1
 53 663 l 1
EndSplineSet
Refer: 251 9792 N 1 0 0 1 0 0 2
EndChar
StartChar: uni26B8
Encoding: 9912 9912 1443
Width: 568
Flags: HW
LayerCount: 2
Fore
SplineSet
6 21 m 1
 26 21 l 1
 40.4169921875 7.7392578125 112.624023438 1 176.87890625 1 c 3
 237.133789062 1 298.360351562 7.595703125 325 21 c 1
 346 21 l 1
 346 -60 l 1
 325 -60.123046875 l 1
 298.201171875 -44.53125 236.52734375 -36.97265625 176.443359375 -36.97265625 c 3
 109.151367188 -36.97265625 43.7265625 -45.4638671875 25 -61.888671875 c 1
 6 -62 l 1
 6 21 l 1
200.896484375 185.344726562 m 1
 200.668771647 138.845333265 199.972394279 82.8624897755 200.161132812 42 c 0
 200.817193869 -100.039295095 202.692330365 -140.019647548 219 -180 c 1
 219 -200 l 1
 133 -200 l 1
 133 -180 l 1
 151.261817495 -136.650270771 155.020533502 -112.876738528 154.516601562 42 c 0
 154.384378799 82.6368972152 154.249637567 138.635355638 154.103515625 185.344726562 c 1
 200.896484375 185.344726562 l 1
27.6083984375 353.916015625 m 0
 27.6083984375 524.861836136 170.764392503 640.592720851 352.720703125 629.219726562 c 0
 359.600260417 628.789726825 363.040039062 622.554730633 363.040039062 616.427734375 c 0
 363.040039062 610.300006302 359.56248012 605.0002851 352.720703125 604.280273438 c 0
 314.939515956 600.304274891 188.712890625 563.466288362 188.712890625 347.901367188 c 0
 188.712890625 175.77279529 287.488823852 120.291638429 352.720703125 108.059570312 c 0
 359.802466163 106.731621328 363.694335938 101.075838603 363.694335938 95.8984375 c 0
 363.694335938 91.0166023781 360.232451775 86.5595703125 352.720703125 86.5595703125 c 0
 121.740966946 86.5595703125 27.6083984375 221.860989839 27.6083984375 353.916015625 c 0
EndSplineSet
EndChar
StartChar: uni26E2
Encoding: 9954 9954 1448
Width: 466
UnlinkRmOvrlpSave: 1
Flags: HW
LayerCount: 2
Fore
SplineSet
232 -9 m 0
 106 -9 22 81.716 22 198 c 0
 22 256.667 41 305.667 79 345 c 0
 117 384.333 157 405.333 199 408 c 1
 203.667 438 207.333 500.333 210 595 c 1
 197.333 595 152.333 551 75 463 c 1
 62 472 l 1
 109.333 518.667 162 615 220 761 c 1
 236 761 l 1
 300 616.333 354.667 520.667 400 474 c 1
 387 466 l 1
 306.333 551.333 260.333 594.333 249 595 c 1
 253 498.333 257.333 436 262 408 c 1
 304 406.667 344.833 386 384.5 346 c 0
 424.167 306 444 256.667 444 198 c 0
 443.333 123.333 410.333 63.667 345 19 c 1
 307.667 0.333008 270 -9 232 -9 c 0
78.9140625 209 m 0
 78.9140625 137.417 131.0260625 52 238.9140625 52 c 0
 332.7700625 52 386.9140625 125.419 386.9140625 188 c 0
 386.971320858 189.977842716 387 191.942686466 387 193.89453125 c 0
 387 278.721782745 327.318023447 352 227.9140625 352 c 0
 139.4080625 352 78.9140625 294.8 78.9140625 209 c 0
183 196 m 0
 183 223.211 205.345 247 235 247 c 0
 265.836 247 286 223.647 286 196 c 0
 286 166.239 262.194 145 235 145 c 256
 205.326 145 183 168.806 183 196 c 0
EndSplineSet
EndChar
StartChar: uniE000
Encoding: 57344 57344 1082
Width: 0
Flags: HW
LayerCount: 2
Fore
SplineSet
-44 -1 m 0
 -38 25 -14 43 9 43 c 0
 33 43 49 25 44 1 c 0
 38 -25 14 -43 -9 -43 c 0
 -33 -43 -50 -27 -44 -1 c 0
EndSplineSet
EndChar
StartChar: uniE001
Encoding: 57345 57345 1083
Width: 0
Flags: HW
LayerCount: 2
Fore
SplineSet
11 52 m 0
 40 52 59 30 53 1 c 0
 46 -30 17 -52 -11 -52 c 0
 -40 -52 -60 -32 -53 -1 c 0
 -46 30 -17 52 11 52 c 0
EndSplineSet
EndChar
StartChar: a.pcap
Encoding: 57347 57347 1
Width: 453
Flags: HW
AnchorPoint: "Ogonek" 304.275 27 basechar 0
AnchorPoint: "Top" 300.375 465 basechar 0
AnchorPoint: "Bottom" 187.348 -15 basechar 0
LayerCount: 2
Back
SplineSet
171.858398438 168.09375 m 1
 201.12109375 163.279296875 245.022460938 163.975585938 272.956054688 163.975585938 c 1
 261.3515625 219.15625 256.065429688 228.901367188 242.643554688 282.916992188 c 1
 209.52734375 227.40234375 201.352539062 215.76171875 171.858398438 168.09375 c 1
257.821289062 -6.7275390625 m 1
 257.821289062 -6.7275390625 256.802734375 10.3798828125 256.265625 17.8095703125 c 1
 274.708007812 22.734375 295.265625 36.763671875 293.646484375 44.259765625 c 0
 290.209960938 82.2109375 283.306640625 97.361328125 278.366210938 131.54296875 c 1
 258.439453125 138.333984375 185.32421875 142.833007812 153.44140625 138.177734375 c 1
 132.411132812 103.774414062 117.37890625 84.0556640625 100.250976562 50.7568359375 c 0
 93.4609375 36.9462890625 110.912109375 17.580078125 149.471679688 22.40625 c 1
 142.415039062 -6.7275390625 l 1
 124.229492188 -2.5400390625 88.96484375 -0.3525390625 56.1396484375 -0.3525390625 c 0
 32.974609375 -0.3525390625 11.025390625 -1.44140625 -2.8515625 -3.6865234375 c 1
 -2.69921875 -2.0732421875 -2.091796875 12.4873046875 -1.138671875 21.599609375 c 1
 29.5126953125 27.0771484375 52.626953125 42.8046875 55.921875 47.451171875 c 0
 134.62890625 166.268554688 204.397460938 274.791015625 262.387695312 371.904296875 c 0
 275.40234375 393.705078125 271.041015625 389.572265625 279.061523438 414.827148438 c 1
 309.859375 414.500976562 l 1
 309.651367188 394.877929688 306.458007812 395.7578125 310.010742188 373.374023438 c 0
 327.844726562 244.7421875 340.557617188 160.876953125 378.291992188 37.1630859375 c 0
 382.229492188 26.3779296875 399.989257812 20.4306640625 410.233398438 20.689453125 c 1
 409.823242188 18.99609375 406.305664062 4.6884765625 404.211914062 -3.1103515625 c 1
 387.512695312 -0.5166015625 363.888671875 0.9736328125 339.60546875 0.9736328125 c 0
 309.317382812 0.9736328125 278.00390625 -1.3447265625 257.821289062 -6.7275390625 c 1
EndSplineSet
Fore
SplineSet
162.245117188 168 m 1
 191.182617188 163 235.395507812 164 263.395507812 164 c 1
 253.0859375 219 247.2109375 229 234.689453125 283 c 1
 200.786132812 227 192.448242188 216 162.245117188 168 c 1
245.047851562 -7 m 1
 245.047851562 -7 244.874023438 11 244.362304688 18 c 1
 262.424804688 23 283.400390625 37 281.888671875 44 c 0
 278.965820312 82 273.366210938 98 268.59375 132 c 1
 249.081054688 139 174.931640625 143 142.869140625 138 c 1
 121.641601562 104 106.390625 84 88.3759765625 51 c 0
 81.400390625 37 98.1494140625 17 137.211914062 22 c 1
 130.047851562 -7 l 1
 112.249023438 -2.9169921875 77.001953125 -0.875 44.1572265625 -0.875 c 3
 20.697265625 -0.875 -1.5380859375 -1.9169921875 -15.314453125 -4 c 1
 -14.8896484375 -2 -14.701171875 13 -13.7880859375 22 c 1
 17.275390625 27 40.462890625 42 43.5263671875 47 c 0
 124.8203125 166 196.989257812 275 256.607421875 372 c 0
 270.283203125 394 265.432617188 390 273.747070312 415 c 1
 304.747070312 415 l 1
 304.49609375 395 300.49609375 395 303.819335938 373 c 0
 319.399414062 244 330.7578125 161 366.400390625 37 c 0
 370.0625 26 388 21 398 21 c 1
 397.57421875 19 394.598632812 5 391.8984375 -3 c 1
 375.431640625 -0.380859375 352.244140625 1.0947265625 328.3359375 1.0947265625 c 3
 297.471679688 1.0947265625 265.405273438 -1.365234375 245.047851562 -7 c 1
EndSplineSet
EndChar
StartChar: e.pcap
Encoding: 57351 57351 216
Width: 462
Flags: HW
AnchorPoint: "Ogonek" 340.085 27 basechar 0
AnchorPoint: "Bottom" 194.158 -15 basechar 0
AnchorPoint: "Top" 296.185 465 basechar 0
LayerCount: 2
Back
SplineSet
106.33203125 397.1796875 m 1
 145.95703125 395.112304688 197.852539062 394.297851562 247.892578125 394.297851562 c 0
 329.494140625 394.297851562 406.16015625 396.46484375 416.629882812 398.907226562 c 1
 421.13671875 394.325195312 423.067382812 390.099609375 423.067382812 385.059570312 c 0
 423.067382812 370.779296875 407.568359375 349.954101562 391.258789062 295.922851562 c 1
 371.03125 294.034179688 l 1
 368.171875 305.50390625 383.006835938 335.473632812 363.202148438 352.161132812 c 0
 350.57421875 362.411132812 320.895507812 368.215820312 289.674804688 368.215820312 c 0
 272.703125 368.215820312 255.276367188 366.500976562 239.883789062 362.8515625 c 0
 230.274414062 361.3984375 221.279296875 352.256835938 219.366210938 343.823242188 c 0
 205.642578125 298.135742188 193.151367188 255.329101562 184.350585938 213.016601562 c 1
 214.979492188 213.349609375 271.665039062 214.09375 284.318359375 217.400390625 c 0
 314.833007812 222.447265625 323.396484375 235.583984375 339.5625 264.384765625 c 1
 359.607421875 259.788085938 l 1
 350.111328125 239.826171875 343.658203125 214.095703125 339.744140625 189 c 0
 336.665039062 169.259765625 335.157226562 149.912109375 334.974609375 134.07421875 c 1
 310.938476562 128.002929688 l 1
 310.140625 185.2421875 308.104492188 176.602539062 276.534179688 182.951171875 c 0
 256.034179688 189.784179688 222.876953125 189.526367188 179.594726562 189.376953125 c 1
 168.427734375 134.47265625 160.586914062 88.5009765625 164.923828125 51.2109375 c 0
 165.456054688 43.46484375 168.583984375 37.857421875 177.4453125 35.7216796875 c 0
 201.561523438 30.7021484375 221.166992188 26.5224609375 240.923828125 26.5224609375 c 0
 263.751953125 26.5224609375 286.78125 32.1015625 317.19921875 48.4091796875 c 0
 361.522460938 73.61328125 366.477539062 85.06640625 394.254882812 119.701171875 c 1
 412.295898438 115.024414062 l 1
 395.198242188 75.306640625 378.837890625 32.818359375 364.490234375 -4.19140625 c 1
 298.94921875 -3.2958984375 225.56640625 -0.72265625 158.831054688 -0.72265625 c 0
 112.325195312 -0.72265625 69.0478515625 -1.97265625 33.900390625 -5.91015625 c 1
 31.8818359375 17.072265625 l 1
 62.0458984375 23.814453125 72.1767578125 27.0146484375 80.865234375 52.6142578125 c 1
 89.7333984375 75.982421875 107.663085938 159.680664062 121.389648438 232 c 0
 130.534179688 280.182617188 137.813476562 323.314453125 139.301757812 340.190429688 c 0
 142.349609375 368.211914062 136.456054688 369.499023438 99.4130859375 378.4765625 c 1
 106.33203125 397.1796875 l 1
EndSplineSet
Fore
SplineSet
103.21875 404 m 1
 143.5390625 402.131835938 195.956054688 401.380859375 246.73828125 401.380859375 c 3
 331.900390625 401.380859375 399.461914062 403.494140625 410.64453125 406 c 1
 416.5390625 399.821289062 417.989257812 394.350585938 416.400390625 386.875976562 c 0
 413.361328125 372.575195312 399.1953125 350.943359375 383.750976562 303 c 1
 363.325195312 301 l 1
 360.6640625 312 376.040039062 342 356.654296875 359 c 0
 343.256835938 369.40625 317.682617188 375.159179688 283.579101562 375.159179688 c 3
 265.245117188 375.159179688 252.46875 373.49609375 235.9921875 370 c 0
 226.779296875 369 217.654296875 359 215.953125 351 c 0
 200.876953125 303.595703125 187.458007812 259.282226562 177.258789062 216 c 1
 213.258789062 216 258.470703125 217 273.108398438 220 c 0
 304.170898438 225 311.934570312 238 329.098632812 267 c 1
 349.248046875 263 l 1
 341.18359375 246.552734375 335.034179688 226.348632812 330.670898438 205.8203125 c 0
 325.483398438 181.415039062 322.8203125 156.552734375 322.466796875 137 c 1
 298.19140625 131 l 1
 298.306640625 178 291.344726562 180.752929688 264.881835938 186 c 0
 251.771484375 188.599609375 219.157226562 192 172.157226562 192 c 1
 160.211914062 135.8046875 150.221679688 88.8046875 154.186523438 51 c 0
 154.486328125 43 158.422851562 38 166.998046875 36 c 0
 189.807617188 30.84375 208.189453125 26.56640625 226.8828125 26.56640625 c 3
 248.071289062 26.56640625 274.66015625 32.0615234375 303.548828125 48 c 0
 347.862304688 73 353.413085938 85 381.852539062 120 c 1
 399.790039062 115 l 1
 382.288085938 75 364.360351562 33 349.49609375 -4 c 1
 286.505859375 -2.83984375 212.955078125 -0.384765625 149.193359375 -0.384765625 c 3
 101.986328125 -0.384765625 57.89453125 -1.7412109375 22.0703125 -6 c 1
 20.9599609375 17 l 1
 51.447265625 24 61.0849609375 27 70.611328125 53 c 1
 78.712890625 73.8935546875 94.572265625 141.57421875 108.594726562 207.544921875 c 0
 121.385742188 267.721679688 132.6484375 326.475585938 135.103515625 347 c 0
 139.0546875 375 133.267578125 376 96.1806640625 385 c 1
 103.21875 404 l 1
EndSplineSet
EndChar
StartChar: h.pcap
Encoding: 57354 57354 293
Width: 579
Flags: HW
AnchorPoint: "Bottom" 248.238 -15 basechar 0
AnchorPoint: "Top" 354.266 465 basechar 0
LayerCount: 2
Back
SplineSet
100.861328125 403.361328125 m 1
 136.393554688 400.098632812 167.852539062 397.086914062 201.903320312 397.086914062 c 0
 222.825195312 397.086914062 244.724609375 398.223632812 269.149414062 401.137695312 c 1
 265.8359375 376.922851562 l 1
 251.940429688 373.938476562 223.404296875 372.796875 217.991210938 360.094726562 c 1
 209.094726562 340.057617188 194.857421875 270.638671875 181.935546875 213.82421875 c 1
 430.798828125 214.549804688 l 1
 437.026367188 248.4609375 444.02734375 288.05078125 451.77734375 336.55859375 c 0
 456.981445312 371.477539062 433.778320312 370.640625 412.66796875 379.387695312 c 1
 420.225585938 401.794921875 l 1
 442.2734375 397.375 464.724609375 394.986328125 487.984375 394.986328125 c 0
 515.771484375 394.986328125 544.709960938 398.395507812 575.489257812 405.826171875 c 1
 574.96484375 381.611328125 l 1
 548.025390625 374.231445312 539.688476562 372.1796875 531.498046875 346.34375 c 0
 514.263671875 289.916015625 490.471679688 194.372070312 477.614257812 126 c 0
 470.475585938 88.0390625 466.708007812 58.453125 469.3046875 48.5888671875 c 0
 470.3515625 19.1142578125 486.967773438 18.0927734375 502.810546875 15.0908203125 c 1
 502.810546875 15.0908203125 496.555664062 -1.025390625 495.704101562 -7.9599609375 c 1
 475.901367188 -3.4169921875 450.245117188 -0.7900390625 423.168945312 -0.7900390625 c 0
 395.87109375 -0.7900390625 367.131835938 -3.4599609375 341.494140625 -9.52734375 c 1
 341.5 -7.833984375 340.73046875 5.5751953125 340.900390625 13.6162109375 c 1
 367.849609375 21.818359375 382.240234375 24.3720703125 391.685546875 53.2890625 c 0
 406.4453125 103.581054688 413.35546875 132.25390625 425.170898438 185.59765625 c 1
 175.44921875 186.323242188 l 1
 165.00390625 139.279296875 155.293945312 90.3388671875 150.577148438 51.671875 c 0
 145.455078125 19.806640625 174.815429688 20.8720703125 191.923828125 15.3447265625 c 1
 191.923828125 15.3447265625 186.002929688 -2.015625 184.159179688 -8.951171875 c 1
 155.407226562 -3.8271484375 124.143554688 -0.93359375 93.939453125 -0.93359375 c 0
 67.919921875 -0.93359375 42.6875 -3.080078125 20.525390625 -7.798828125 c 1
 20.525390625 -7.798828125 20.564453125 10.541015625 21.3076171875 19.45703125 c 1
 41.306640625 24.7314453125 64.109375 23.79296875 73.3369140625 53.2841796875 c 0
 91.0283203125 112.725585938 111.33203125 202.5 123.819335938 268 c 0
 131.920898438 310.4921875 136.732421875 342.76953125 135.408203125 349.920898438 c 0
 135.315429688 373.846679688 115.331054688 375.33203125 94.1376953125 378.489257812 c 1
 100.861328125 403.361328125 l 1
EndSplineSet
Fore
SplineSet
96.3623046875 409 m 1
 131.672851562 405.899414062 162.752929688 402.797851562 196.702148438 402.797851562 c 3
 217.494140625 402.797851562 239.362304688 403.9609375 263.9375 407 c 1
 260.8359375 383 l 1
 247.198242188 380 217.985351562 379 212.22265625 366 c 1
 202.883789062 345.588867188 187.916015625 275.170898438 173.551757812 217 c 1
 421.763671875 218 l 1
 429.168945312 252.8359375 437.662109375 292.794921875 446.333007812 343 c 0
 451.772460938 378 428.34765625 376 407.260742188 385 c 1
 415.149414062 408 l 1
 437.078125 403.419921875 459.662109375 400.9375 483.17578125 400.9375 c 3
 510.998046875 400.9375 540.12109375 404.412109375 571 412 c 1
 569.8984375 388 l 1
 542.41015625 381 533.772460938 378 525.24609375 352 c 0
 507.720703125 298.2734375 483.9453125 209.879882812 469.688476562 142.805664062 c 0
 460.59375 100.017578125 455.372070312 65.9052734375 458.1171875 55 c 0
 458.953125 26 475.528320312 24 490.890625 21 c 1
 490.890625 21 484.489257812 5 483.000976562 -2 c 1
 463.436523438 2.392578125 438.702148438 4.8798828125 412.512695312 4.8798828125 c 3
 385.041015625 4.8798828125 355.966796875 2.1435546875 329.576171875 -4 c 1
 330.000976562 -2 327.977539062 12 328.677734375 20 c 1
 355.377929688 28 370.803710938 30 380.967773438 59 c 0
 396.35546875 107.872070312 403.587890625 137.1953125 415.599609375 189 c 1
 166.599609375 189 l 1
 156.333007812 143.051757812 146.359375 96.126953125 139.754882812 58 c 0
 133.953125 26 163.166015625 27 179.890625 21 c 1
 179.890625 21 173.276367188 4 171.7890625 -3 c 1
 144.033203125 2.2490234375 113.545898438 5.0185546875 83.8818359375 5.0185546875 c 3
 57.0361328125 5.0185546875 30.8642578125 2.7509765625 8.0009765625 -2 c 1
 8.0009765625 -2 8.8271484375 16 9.740234375 25 c 1
 29.8037109375 30 52.8037109375 30 61.9677734375 59 c 0
 80.537109375 118.028320312 102.60546875 207.16796875 116.52734375 272.6640625 c 0
 125.71875 315.90625 131.359375 348.841796875 130.096679688 356 c 0
 130.198242188 380 110.41015625 381 89.0478515625 384 c 1
 96.3623046875 409 l 1
EndSplineSet
EndChar
StartChar: j.pcap
Encoding: 57356 57356 312
Width: 310
Flags: HW
AnchorPoint: "Bottom" 98.3193 -77 basechar 0
AnchorPoint: "Top" 206.525 465 basechar 0
LayerCount: 2
Back
SplineSet
142.631835938 331.09375 m 0
 143.358398438 372.84375 117.86328125 369.819335938 88.7763671875 372.728515625 c 1
 96.396484375 398.833984375 l 1
 125.845105942 393.100395973 154.572779717 390.781673958 183.934061299 390.781673958 c 0
 218.994428125 390.781673958 254.958243482 394.087892679 294.131835938 398.833984375 c 1
 290.115234375 371.001953125 l 1
 258.987304688 370.252929688 238.280273438 376.338867188 225.372070312 333.213867188 c 0
 206.260742188 269.364257812 196.703125 208.438476562 181.427734375 130.1640625 c 1
 166.981445312 55.8486328125 166.083984375 26.4619140625 162.466796875 1.693359375 c 1
 152.041015625 -51.943359375 108.162109375 -87.7255859375 62.1298828125 -114.876953125 c 0
 36.3095703125 -130.107421875 8.9609375 -142.06640625 -15.6435546875 -151.443359375 c 1
 -22.8984375 -151.443359375 -34.38671875 -125.224609375 -34.38671875 -125.224609375 c 1
 -18.17578125 -114.333984375 14.8544921875 -101.6015625 27.888671875 -93.779296875 c 1
 89.7607421875 -57.4345703125 90.6806640625 13.154296875 94.986328125 38.166015625 c 1
 99.3720703125 62.5185546875 142.0859375 299.6953125 142.631835938 331.09375 c 0
EndSplineSet
Fore
SplineSet
138.956054688 340 m 0
 140.8828125 382 115.245117188 379 85.8828125 382 c 1
 94.4091796875 408 l 1
 123.676757812 402.077148438 152.44921875 399.682617188 181.903320312 399.682617188 c 0
 217.095703125 399.682617188 253.26171875 403.100585938 292.409179688 408 c 1
 287.458007812 380 l 1
 256.245117188 379 236.520507812 385 222.380859375 342 c 0
 201.173828125 275.162109375 189.6328125 211.458007812 172.318359375 130 c 1
 156.58984375 56 156.42578125 27 152.111328125 2 c 1
 140.633789062 -52 94.9814453125 -88 48.2421875 -115 c 0
 22.0537109375 -130 -4.49609375 -142 -29.4091796875 -151 c 1
 -36.4091796875 -151 -47.8828125 -125 -47.8828125 -125 c 1
 -35.087890625 -116.385742188 -12.349609375 -107.158203125 3.4912109375 -99.7177734375 c 0
 7.876953125 -97.658203125 11.7353515625 -95.7353515625 14.7060546875 -94 c 1
 77.3583984375 -58 80.4501953125 13 84.763671875 38 c 1
 90.021484375 62.7373046875 138.1640625 308.047851562 138.956054688 340 c 0
EndSplineSet
EndChar
StartChar: m.pcap
Encoding: 57359 57359 337
Width: 627
Flags: HW
AnchorPoint: "Top" 389.967 465 basechar 0
AnchorPoint: "Bottom" 259.939 -15 basechar 0
LayerCount: 2
Back
SplineSet
557.485351562 -0.3115234375 m 5xb0
 514.038085938 8.0751953125 439.2421875 8.732421875 379.563476562 -1.9580078125 c 1
 381.08203125 23.1552734375 l 1
 438.961914062 28.5751953125 445.87109375 34.7353515625 457.588867188 108.508789062 c 0
 471.1953125 178.485351562 478.30078125 220.580078125 485.282226562 289.978515625 c 1
 430.227539062 228.974609375 391.81640625 180.521484375 342.891601562 104.692382812 c 0
 323.09375 74.1767578125 301.022460938 32.2431640625 289.595703125 3.7412109375 c 5x68
 260.190429688 3.7412109375 l 1
 266.533203125 39.8232421875 258.475585938 79.8583984375 249.66015625 109.95703125 c 1
 250.719726562 108.666992188 189.6953125 290.333984375 187.166015625 283.034179688 c 1
 161.266601562 208.004882812 145.75390625 166.836914062 128.788085938 84.9814453125 c 0
 117.3671875 28.3623046875 138.75 28.2578125 176.717773438 20.1943359375 c 1
 168.263671875 -6.4052734375 l 1
 127.34765625 0.25390625 62.4013671875 2.9716796875 8.46484375 -6.56640625 c 1
 11.984375 19.953125 l 1
 58.21484375 26.0595703125 72.9814453125 28.986328125 87.306640625 79.1083984375 c 1
 87.03515625 77.59375 146.453125 283.141601562 146.190429688 280.592773438 c 1
 153.203125 312.119140625 155.451171875 334.98828125 145.547851562 352.587890625 c 0
 137.549804688 367.950195312 122.860351562 375.791992188 86.732421875 377.833007812 c 1
 97.265625 406.241210938 l 1
 130.47265625 401.88671875 185.236328125 397.440429688 222.32421875 398.591796875 c 1
 236.330078125 398.81640625 236.28125 387.165039062 237.931640625 376.977539062 c 0
 261.356445312 281.575195312 285.779296875 216.598632812 322.426757812 134.169921875 c 1
 322.450195312 128.133789062 518.596679688 393.975585938 518.42578125 393.096679688 c 0
 522.552734375 398.68359375 528.6171875 401.552734375 532.913085938 400.896484375 c 0
 560.869140625 397.440429688 604.140625 398.833984375 633.248046875 401.713867188 c 1
 630.784179688 375.529296875 l 1
 587.455078125 376.100585938 572.192382812 367.853515625 559.818359375 311.310546875 c 0
 545.912109375 233.201171875 529.08203125 160.879882812 524.287109375 104.48828125 c 0
 516.889648438 35.53515625 527.385742188 28.2587890625 563.663085938 27.6826171875 c 1
 557.485351562 -0.3115234375 l 5xb0
EndSplineSet
Fore
SplineSet
544.127929688 0 m 1
 523.049804688 3.89453125 494.747070312 6.1298828125 464.287109375 6.1298828125 c 0
 432.17578125 6.1298828125 397.66796875 3.6455078125 366.702148438 -2 c 1
 368.016601562 23 l 1
 426.079101562 28 433.567382812 35 446.295898438 109 c 0
 461.33984375 179.7734375 470.365234375 222.237304688 478.194335938 292 c 1
 422.087890625 230.340820312 381.774414062 181.821289062 331.446289062 105 c 0
 310.856445312 74 289.141601562 33 276.977539062 4 c 1
 246.977539062 4 l 1
 253.629882812 40 247.131835938 80 238.508789062 110 c 1
 239.293945312 108.98828125 182.2109375 292.081054688 179.706054688 285 c 1
 152.603515625 209.2421875 135.80078125 167.828125 117.1953125 85 c 0
 105.079101562 28 126.079101562 28 164.37890625 20 c 1
 154.852539062 -6 l 1
 134.00390625 -2.3974609375 106.783203125 -0.119140625 77.8935546875 -0.119140625 c 0
 50.64453125 -0.119140625 21.9111328125 -2.146484375 -4.3603515625 -7 c 1
 -0.62109375 20 l 1
 45.654296875 26 60.2919921875 29 75.919921875 79 c 1
 75.490234375 76.98046875 139.924804688 286.029296875 139.28125 283 c 1
 147.083007812 315 148.758789062 337 139.584960938 355 c 0
 131.7734375 370 117.473632812 378 80.8994140625 380 c 1
 91.8505859375 408 l 1
 125 404 180.150390625 400 217.362304688 401 c 1
 231.362304688 401 230.8125 389 232.686523438 379 c 0
 254.327148438 283.217773438 276.18359375 216.674804688 311.610351562 134 c 1
 311.325195312 127.954101562 513.301757812 396.0078125 513.086914062 395 c 0
 517.362304688 401 524 404 527.788085938 403 c 0
 556.150390625 400 598.362304688 401 628 404 c 1
 625.473632812 378 l 1
 582.686523438 379 565.7734375 370 552.658203125 313 c 0
 536.91796875 234.24609375 519.251953125 160.541015625 513.233398438 104 c 0
 504.567382812 35 515.291992188 29 551.079101562 28 c 1
 544.127929688 0 l 1
EndSplineSet
EndChar
StartChar: p.pcap
Encoding: 57362 57362 399
Width: 430
Flags: HW
AnchorPoint: "Top" 278.993 465 basechar 0
AnchorPoint: "Bottom" 114.967 -15 basechar 0
LayerCount: 2
Back
SplineSet
205.87890625 159.635742188 m 5xd0
 255.123046875 159.635742188 317.860351562 181.87890625 332.912109375 253.962890625 c 1
 344.298828125 318 320.298828125 348 304.579101562 357.8046875 c 0
 282.938476562 371.301757812 256.58984375 374.59765625 225.467773438 374.59765625 c 1
 222.548828125 374.59765625 218.862304688 360.974609375 216.444335938 351.36328125 c 0
 209.568359375 308.678710938 192.104492188 239.422851562 179.486328125 166.1328125 c 1
 188.240234375 162.506835938 193.700195312 159.635742188 205.87890625 159.635742188 c 5xd0
98.802734375 394.146484375 m 5xe0
 114.409179688 392.83203125 143.184570312 391.6796875 166.455078125 391.6796875 c 5xd0
 207.108398438 391.6796875 240.4609375 398.015625 280.953125 398.015625 c 1
 375.510742188 398.015625 421.993164062 320.940429688 410.584960938 259.134765625 c 1
 392.8984375 173.084960938 297.637695312 137.21484375 199.61328125 137.21484375 c 1
 186.584960938 137.21484375 186.6015625 137.362304688 176.038085938 139.504882812 c 1
 170.077148438 103.331054688 162.2109375 69.5625 163.286132812 54.72265625 c 0
 162.299804688 24.4990234375 173.372070312 28.83203125 214.00390625 23.328125 c 1
 205.647460938 -6.56640625 l 1
 147.890625 4.1240234375 100.579101562 5.8525390625 32.70703125 -10.5986328125 c 1
 28.255859375 13.7890625 l 1
 75.162109375 33.748046875 82.5458984375 32.7314453125 89.4267578125 60.9404296875 c 0
 108.684570312 135.688476562 127.697265625 246.529296875 138.639648438 337.310546875 c 0
 140.568359375 358.094726562 130.329101562 366.311523438 91.615234375 366.888671875 c 1
 98.802734375 394.146484375 l 5xe0
EndSplineSet
Fore
SplineSet
195.375976562 161 m 1
 244.375976562 161 307.5859375 185.509765625 323.631835938 261 c 1
 334.90625 314.041015625 318.0546875 355.3828125 298.950195312 366 c 0
 277.728515625 377.794921875 249.713867188 379 218.713867188 379 c 1
 215.713867188 379 212.056640625 367.376953125 210.462890625 359 c 0
 201.927734375 314.140625 182.626953125 242.157226562 168.439453125 166 c 1
 176.83203125 163.142578125 183.375976562 161 195.375976562 161 c 1
93.6025390625 402 m 1
 109.389648438 401 138.177734375 400 161.177734375 400 c 1
 202.177734375 400 235.453125 406 275.453125 406 c 1
 370.453125 406 414.99609375 328.576171875 401.6953125 266 c 1
 382.352539062 175 286.275390625 137 188.275390625 137 c 1
 175.275390625 137 174.487304688 138 163.913085938 140 c 1
 157.260742188 104 150.547851562 70.3125 149.845703125 55 c 0
 148.46875 25 159.319335938 29 200.043945312 23 c 1
 191.666992188 -7 l 1
 164.44921875 -1.8076171875 139.431640625 1.15625 113.408203125 1.15625 c 0
 84.298828125 1.15625 53.9306640625 -2.552734375 17.81640625 -11 c 1
 13.91796875 13 l 1
 61.1689453125 33 68.3662109375 33.041015625 76.12109375 61 c 0
 84.201171875 90.1328125 92.3740234375 124.3984375 100.11328125 160.807617188 c 0
 112.874023438 220.845703125 125.66015625 286.811523438 132.487304688 345 c 0
 134.950195312 366 124.651367188 374 85.86328125 375 c 1
 93.6025390625 402 l 1
EndSplineSet
EndChar
StartChar: u.pcap
Encoding: 57367 57367 520
Width: 529
Flags: HW
AnchorPoint: "Horn" 475.255 361.478 basechar 0
AnchorPoint: "Ogonek" 239.866 27 basechar 0
AnchorPoint: "Top" 335.966 465 basechar 0
AnchorPoint: "Bottom" 218.938 -15 basechar 0
LayerCount: 2
Back
SplineSet
83.3623046875 396.44921875 m 1
 123.404296875 392.255859375 208.33203125 392.17578125 262.418945312 396.368164062 c 1
 260.53125 372.728515625 l 1
 221.7109375 369.2734375 203.643554688 366.64453125 191.25390625 317.177734375 c 0
 192.034179688 319.346679688 156.658203125 157.697265625 154.96484375 147.122070312 c 1
 148.8671875 113.947265625 149.69140625 85.484375 163.024414062 65.0419921875 c 0
 177.56640625 43.5400390625 206.7265625 31.9951171875 258.790039062 31.9951171875 c 1
 276.688476562 31.9951171875 325.342773438 30.4541015625 363.48828125 59.77734375 c 0
 389.422851562 80.029296875 400.233398438 104.96875 410.6484375 147.708984375 c 0
 422.5390625 199.099609375 437.477539062 283.375 446.840820312 336.538085938 c 0
 451.862304688 371.174804688 434.600585938 369.930664062 394.520507812 370.505859375 c 1
 400.715820312 396.44921875 l 1
 433.063476562 392.17578125 530.54296875 389.62890625 555.166015625 395.5390625 c 1
 552.126953125 369.768554688 l 1
 519.616210938 370.2421875 503.974609375 372.032226562 494.797851562 340.041015625 c 0
 491.396484375 337.4921875 474.578125 273.92578125 448.634765625 146.71875 c 0
 439.673828125 102.009765625 419.107421875 67.4677734375 390.834960938 42.619140625 c 0
 351.399414062 9.70703125 294.580078125 -6.32421875 225.908203125 -6.32421875 c 1
 160.981445312 -6.32421875 118.520507812 9.1357421875 96.2783203125 36.357421875 c 0
 76.892578125 60.6298828125 72.3310546875 94.3466796875 81.0439453125 136.016601562 c 0
 84.6025390625 147.048828125 119.178710938 318.174804688 119.416992188 324.62890625 c 0
 123.625 364.291015625 121.470703125 363.907226562 75.1982421875 370.505859375 c 1
 83.3623046875 396.44921875 l 1
EndSplineSet
Fore
SplineSet
79 404 m 1
 99.0751953125 402 130.362304688 401 163.362304688 401 c 0
 196.362304688 401 231.075195312 402 258 404 c 1
 256.111328125 381 l 1
 217.473632812 378 198.623046875 374 185.208007812 325 c 0
 184.635742188 322.91015625 146.821289062 158.517578125 144.373046875 147 c 1
 137.358398438 114 138.008789062 84.865234375 150.943359375 65 c 0
 165.266601562 43 193.928710938 32 245.928710938 32 c 1
 263.928710938 32 313.750976562 30.9501953125 351.880859375 60 c 0
 378.131835938 80 389.823242188 104.984375 400.584960938 148 c 0
 413.884765625 201.159179688 432.885742188 289.837890625 441.458984375 345 c 0
 446.8984375 380 429.473632812 378 389.685546875 379 c 1
 396 404 l 1
 413.63671875 401.805664062 451.263671875 400.212890625 485.6484375 400.212890625 c 0
 513.942382812 400.212890625 540.041992188 401.291015625 551 404 c 1
 547.473632812 378 l 1
 514.473632812 378 500.8984375 380 490.096679688 348 c 0
 488.645507812 343.702148438 466.487304688 279.268554688 438.373046875 147 c 0
 428.807617188 102 407.393554688 67.0205078125 378.266601562 43 c 0
 338.252929688 10 281.8515625 -6 212.8515625 -6 c 1
 147.8515625 -6 105.4375 8.4951171875 83.779296875 36 c 0
 64.880859375 60 57.48828125 94.1474609375 70.03515625 136 c 0
 73.4716796875 147.465820312 113.19921875 326.698242188 113.908203125 333 c 0
 118.41015625 373 117.198242188 372 70.685546875 379 c 1
 79 404 l 1
EndSplineSet
EndChar
StartChar: x.pcap
Encoding: 57370 57370 1217
Width: 475
Flags: HW
AnchorPoint: "Top" 297.541 465 basechar 0
AnchorPoint: "Bottom" 195.514 -15 basechar 0
LayerCount: 2
Back
SplineSet
72.3349609375 399.728515625 m 5xa0
 139.205078125 396.272460938 186.453125 395.12109375 248.9765625 403.921875 c 1
 245.3125 381.2734375 l 1
 240.859375 379.879882812 230.387695312 380.2734375 221.307617188 377.91015625 c 0
 210.400390625 374.78125 211.462890625 361.90234375 214.899414062 352.315429688 c 1
 213.689453125 351.951171875 270.203125 237.88671875 268.663085938 239.36328125 c 1
 299.999023438 274.071289062 322.977539062 305.303710938 336.434570312 321.331054688 c 0
 346.115234375 332.783203125 357.467773438 356.919921875 341.71484375 367.286132812 c 1
 338.412109375 371.029296875 315.896484375 377.981445312 312.512695312 377.817382812 c 1
 319.734375 398.081054688 l 1
 367.063476562 392.655273438 434.979492188 393.887695312 484.91796875 399.809570312 c 1
 481.923828125 376.827148438 l 1
 473.672851562 374.716796875 443.69140625 372.055664062 412.43359375 347.7734375 c 0
 396.202148438 336.51953125 390.67578125 333.405273438 280.928710938 224.336914062 c 1
 303.657226562 190.495117188 378.715820312 69.8251953125 389.076171875 59.466796875 c 1
 412.033203125 29.1220703125 422.607421875 30.5703125 445.794921875 23.904296875 c 1
 436.39453125 -0.806640625 l 5x60
 397.797851562 7.580078125 294.970703125 5.1953125 251.213867188 -4.423828125 c 1
 253.518554688 17.568359375 l 1
 259.274414062 22.1552734375 272.635742188 25.2607421875 279.068359375 29.4609375 c 0
 297.381835938 40.6552734375 290.239257812 60.208984375 283.280273438 75.1669921875 c 0
 270.631835938 106.938476562 258.54296875 132.639648438 234.137695312 173.013671875 c 1
 190.348632812 127.935546875 166.9453125 97.8212890625 143.356445312 67.7861328125 c 0
 133.71484375 55.7861328125 122.264648438 36.8369140625 140.159179688 25.4453125 c 0
 148.454101562 20.8291015625 158.422851562 18.380859375 163.680664062 17.4755859375 c 1
 159.421875 -3.60546875 l 1
 107.06640625 0.091796875 50.1875 1.8203125 -0.0400390625 -4.7578125 c 1
 2.923828125 16.8310546875 l 1
 14.169921875 18.08984375 47.0654296875 29.572265625 77.78125 55.0322265625 c 0
 87.5537109375 65.103515625 90.7197265625 60.619140625 219.7421875 190.147460938 c 1
 134.853515625 329.364257812 133.345703125 335.135742188 124.274414062 341.392578125 c 0
 96.9765625 371.967773438 83.8486328125 379.803710938 68.3154296875 382.010742188 c 1
 72.3349609375 399.728515625 l 5xa0
EndSplineSet
Fore
SplineSet
65.3623046875 403 m 1
 96.1318359375 401.629882812 122.564453125 400.467773438 148.197265625 400.467773438 c 0
 178.681640625 400.467773438 208.036132812 402.111328125 242.212890625 407 c 1
 238.323242188 384 l 1
 234.111328125 383 224.111328125 383 214.685546875 381 c 0
 204.047851562 378 204.28515625 365 207.159179688 355 c 1
 208.309570312 351 257.565429688 244 259.140625 242 c 1
 291.852539062 278.280273438 315.682617188 310.415039062 329.208007812 327 c 0
 338.545898438 338 350.860351562 363 334.985351562 373 c 1
 331.41015625 375 309.323242188 384 306.323242188 384 c 1
 313.575195312 404 l 1
 333.862304688 401.838867188 358.125 400.798828125 383.196289062 400.798828125 c 0
 416.12890625 400.798828125 450.455078125 402.59375 479 406 c 1
 476.111328125 383 l 1
 467.685546875 381 438.047851562 378 405.947265625 354 c 0
 389.551757812 342.733398438 383.681640625 338.63671875 270.952148438 227 c 1
 292.59375 192.381835938 365.407226562 69.181640625 375.243164062 59 c 1
 397.866210938 29 409.291015625 31 431.803710938 24 c 1
 424.489257812 -1 l 1
 407.467773438 2.5556640625 377.8203125 4.3330078125 346.259765625 4.3330078125 c 0
 306.80859375 4.3330078125 264.366210938 1.5556640625 239.8515625 -4 c 1
 239.528320312 18 l 1
 245.590820312 23 258.015625 25 264.866210938 29 c 0
 283.204101562 40 277.455078125 60 270.643554688 75 c 0
 258.653320312 107.979492188 246.349609375 134.775390625 223.112304688 176 c 1
 178.2734375 129.713867188 154.71484375 98.857421875 130.155273438 68 c 0
 120.60546875 56 108.353515625 36 126.015625 25 c 0
 133.953125 20 144.528320312 18 149.315429688 17 c 1
 144.8515625 -4 l 1
 117.608398438 -1.91015625 89.1572265625 -0.3662109375 60.9970703125 -0.3662109375 c 0
 35.2529296875 -0.3662109375 9.751953125 -1.6572265625 -14.361328125 -5 c 1
 -10.6845703125 17 l 1
 0.5283203125 18 33.078125 30 64.392578125 55 c 0
 75.552734375 64.0732421875 77.478515625 60.111328125 209.725585938 193 c 1
 127.270507812 332 123.768554688 336.142578125 116.821289062 344 c 0
 89.41015625 375 77.111328125 383 61.5361328125 385 c 1
 65.3623046875 403 l 1
EndSplineSet
EndChar
StartChar: uogonek.pcap
Encoding: 57459 57459 1208
Width: 529
UnlinkRmOvrlpSave: 1
Flags: HW
LayerCount: 2
Fore
SplineSet
342.759765625 15.54296875 m 1
 265.469726562 -46.119140625 249.560546875 -75.447265625 237.540039062 -132 c 0
 227.681640625 -178.375976562 243.201171875 -205.872070312 270.232421875 -205.872070312 c 3
 285.907226562 -205.872070312 306.998046875 -195.18359375 331.323242188 -171.599609375 c 1
 331.323242188 -171.599609375 340.237304688 -181.926757812 341.2109375 -190 c 1
 306.303710938 -242.788085938 261.459960938 -266 225.056640625 -266 c 3
 179.858398438 -266 148.208984375 -226.658203125 162.200195312 -160.834960938 c 0
 170.895507812 -119.928710938 218.401367188 -40.7978515625 319.71484375 23 c 1
 342.759765625 15.54296875 l 1
EndSplineSet
Refer: 520 57367 N 1 0 0 1 0 0 2
EndChar
StartChar: exclam.pcap
Encoding: 57473 57473 242
Width: 258
Flags: HW
LayerCount: 2
Fore
SplineSet
97.6337890625 144 m 1
 111.434570312 215 121.736328125 268 120.844726562 320 c 0
 123.064453125 352 104.174804688 368 112.783203125 402 c 1
 164.950195312 408 235.78125 438 234.560546875 406 c 1
 215.895507812 382 213.786132812 366 199.844726562 320 c 0
 175.625976562 252 149.62890625 216 135.439453125 143 c 1
 97.6337890625 144 l 1
EndSplineSet
Refer: 405 46 N 0.836878 0 0 0.88855 42.8914 -4 2
EndChar
StartChar: ampersand.pcap
Encoding: 57477 57477 147
Width: 617
VWidth: 1159
Flags: HW
LayerCount: 2
Fore
SplineSet
102.25 197.276367188 m 1
 276.698242188 320.137695312 366.581054688 395.192382812 356.65625 486.25 c 1
 355.166015625 500.772460938 412.998046875 544.911132812 423.564453125 529.818359375 c 1
 435.288085938 404.45703125 285.21875 286.591796875 106.91796875 161.935546875 c 1
 102.25 197.276367188 l 1
365.583007812 189.063476562 m 3
 349.96875 189.063476562 338.76171875 202.551757812 338.76171875 226.3984375 c 3
 338.76171875 261.762695312 413.599609375 329.318359375 444.568359375 329.318359375 c 3
 494.438476562 329.318359375 540.016601562 255.291992188 576.233398438 255.291992188 c 3
 587.844726562 255.291992188 592.74609375 264.071289062 592.74609375 277.319335938 c 0
 592.74609375 283.745117188 591.461914062 296.1015625 590.123046875 308.087890625 c 1
 598.7421875 309.643554688 604.891601562 309.643554688 613.510742188 311.200195312 c 1
 624.1484375 287.022460938 629.895507812 264.825195312 625.3203125 232.622070312 c 0
 619.638671875 192.6328125 596.505859375 186.719726562 569.828125 186.719726562 c 3
 519.915039062 186.719726562 466.873046875 274.416015625 416.567382812 274.416015625 c 3
 409.163085938 274.416015625 397.291992188 268.161132812 397.291992188 249.629882812 c 3
 397.291992188 237.759765625 402.130859375 221.6328125 404.483398438 216.293945312 c 1
 402.5078125 206.048828125 377.870117188 189.063476562 365.583007812 189.063476562 c 3
233.362304688 271.51171875 m 1
 239.926757812 335.779296875 232.041992188 368.306640625 207.971679688 368.306640625 c 3
 162.159179688 368.306640625 111.104492188 278.900390625 111.104492188 199.936523438 c 3
 111.104492188 120.095703125 169.151367188 56.34765625 237.622070312 56.34765625 c 3
 340.318359375 56.34765625 436.219726562 161.547851562 471.5078125 280.779296875 c 1
 503.91796875 276.190429688 l 1
 458.33203125 120.825195312 335.223632812 -6.2333984375 214.690429688 -6.2333984375 c 3
 101.196289062 -6.2333984375 39.2509765625 69.92578125 39.2509765625 165.104492188 c 3
 39.2509765625 306.7578125 165.267578125 413.287109375 243.048828125 413.287109375 c 3
 269.602539062 413.287109375 307.008789062 377.170898438 286.635742188 308.866210938 c 1
 233.362304688 271.51171875 l 1
EndSplineSet
EndChar
StartChar: theta.pcap
Encoding: 57530 57530 484
Width: 568
Flags: HW
LayerCount: 2
Fore
SplineSet
384.240234375 253.5 m 1
 377.741210938 227.764648438 368.622070312 183.744140625 366.080078125 156.299804688 c 1
 341.239257812 154.700195312 l 1
 340.83984375 178.330078125 337.229492188 179.114257812 323.180664062 180.299804688 c 0
 320.0546875 181.099609375 295.811523438 185.900390625 277.87109375 185.900390625 c 3
 256.568359375 185.900390625 225.899414062 181.947265625 221.680664062 180.299804688 c 0
 207.307617188 178.2421875 204.236328125 168.642578125 200.580078125 156.299804688 c 1
 175.75 157.099609375 l 1
 186.221679688 191.1328125 193.307617188 222.559570312 196.919921875 256.700195312 c 1
 221.760742188 258.299804688 l 1
 221.740234375 248.53515625 221.76953125 241.1484375 235.668945312 236.700195312 c 0
 238.4453125 233.5 246.258789062 228.700195312 286.96875 228.700195312 c 3
 322.640625 228.700195312 330.958007812 231.845703125 333.319335938 232.700195312 c 0
 349.73046875 234.634765625 353.456054688 233.344726562 359.91015625 254.299804688 c 1
 384.240234375 253.5 l 1
EndSplineSet
Refer: 359 57361 N 1 0 0 1 0 0 2
EndChar
StartChar: n.smcp
Encoding: 57684 57684 1406
Width: 624
VWidth: 1047
Flags: HW
LayerCount: 2
Fore
SplineSet
101.583007812 491.5 m 1
 137.276757812 486.8 181.457714844 484.2 215.343847656 485.6 c 0
 225.843847656 485.6 227.425292969 482.47578125 230.946191406 477.4 c 0
 312.78046875 352.881738281 388.718945313 245.467871093 478.380761719 139.7 c 1
 498.055601926 206.008735118 508.034720607 260.118683868 522.85759405 326.5 c 0
 525.940303066 340.494248298 529.118553148 354.824619746 532.455566406 369.6 c 0
 552.058789062 463.6 516.99765625 463.1 476.804003907 466.6 c 1
 485.925976563 495.5 l 1
 525.078704988 489.457212936 560.711515889 487.40126297 594.650217018 487.40126297 c 0
 615.772600947 487.40126297 636.227885125 488.192024956 656.4 489.3 c 1
 653.764160156 460.7 l 1
 615.637890625 456.8 600.521484375 456.041015625 586.871386719 415.4 c 0
 553.139355469 305.031054687 521.514941407 174.33125 498.043164062 56.6 c 0
 494.487792969 39.3 493.860546875 13.2 494.327832031 -2.8 c 1
 465.529882812 -11 l 1
 461.136425782 19.4 447.452441407 40.0252929688 431.792480468 63.7 c 0
 356.213476562 173.132519531 275.416894532 280.26640625 192.453613281 384.1 c 1
 193.351171875 388.321191407 131.31015625 120.478808593 132.907714844 124.7 c 1
 116.742773438 49.7791992188 139.08671875 33.4 196.626855468 24.8 c 1
 183.266015625 -10 l 1
 158.423661347 -0.592377396551 132.234516712 2.45612114095 106.607039248 2.45612114095 c 0
 70.6468553284 2.45612114095 35.7799514464 -3.53997728142 7.3470703125 -6.4 c 1
 10.0853515625 27.1 l 1
 51.3336914062 27.8 69.1661132813 37.4477539062 79.9990234374 81.9 c 0
 100.445322493 158.300125318 117.07201012 234.570961512 133.747053202 314.611420623 c 0
 139.322762326 341.184671576 144.910394871 368.51405204 150.71796875 397.1 c 0
 155.106640625 431.2 129.166210938 453.4 93.5441406251 458 c 1
 101.583007812 491.5 l 1
EndSplineSet
EndChar
StartChar: o.smcp
Encoding: 57685 57685 1407
Width: 636
VWidth: 1047
Flags: HW
LayerCount: 2
Fore
SplineSet
341.5375 461.1 m 3
 247.805957031 461.1 158.417578125 391.016113281 146.216796875 266.782324219 c 1
 130.295898438 145.357714844 197.625585938 35.3 306.656738282 35.3 c 3
 406.353417969 35.3 488.506054688 124.694726562 500.706835937 237.237304688 c 1
 518.264257812 364.999609375 444.446191406 461.1 341.5375 461.1 c 3
384.645800782 500.6 m 3
 523.314453125 500.6 610.445996094 393.768945313 593.483984375 263.34921875 c 1
 576.670996094 115.82109375 433.942089843 -6.5 278.151074218 -6.5 c 3
 123.945019531 -6.5 42.8646484375 111.592480469 56.4045898438 226.389160156 c 1
 73.3666015625 378.928027344 229.913378907 500.6 384.645800782 500.6 c 3
EndSplineSet
EndChar
StartChar: Acute
Encoding: 58018 58018 1244
Width: 222
Flags: HW
AnchorPoint: "Top" 199.872 699 mark 0
LayerCount: 2
Fore
SplineSet
178.197265625 780.448242188 m 17
 238.41796875 818.389648438 339.055664062 869.749023438 402.340820312 892.052734375 c 1
 404.563476562 889.095703125 418.145507812 854.846679688 421.75 825.016601562 c 1
 360.484375 816.883789062 275.1953125 788.180664062 184.65625 744.900390625 c 9
 178.197265625 780.448242188 l 17
EndSplineSet
EndChar
StartChar: Grave
Encoding: 58019 58019 1277
Width: 222
Flags: HW
AnchorPoint: "Top" 199.872 699 mark 0
LayerCount: 2
Fore
SplineSet
270.412109375 779.864257812 m 9
 250.134765625 744.31640625 l 17
 176.421875 787.595703125 102.291015625 816.30078125 44.1884765625 824.43359375 c 1
 59.150390625 853.971679688 87.8681640625 889.083007812 89.658203125 891.467773438 c 1
 144.272460938 869.165039062 224.94140625 817.8046875 270.412109375 779.864257812 c 9
EndSplineSet
EndChar
StartChar: Tilde
Encoding: 58022 58022 1327
Width: 329
VWidth: 1159
Flags: HW
AnchorPoint: "Top" 313.577 699 mark 0
LayerCount: 2
Fore
SplineSet
176.313476562 755.353515625 m 1
 219.771484375 809.608398438 275.846679688 850.836914062 283.607421875 850.836914062 c 3
 327.500976562 850.836914062 369.012695312 814.052734375 411.735351562 814.052734375 c 3
 422.341796875 814.052734375 450.59765625 838.275390625 469.90625 867.82421875 c 1
 501.3515625 854.5390625 l 1
 467.658203125 803.78125 414.3203125 754.052734375 401.326171875 754.052734375 c 3
 359.407226562 754.052734375 306.357421875 791.390625 266.704101562 791.390625 c 3
 253.638671875 791.390625 226.118164062 760.771484375 207.8046875 741.64453125 c 1
 176.313476562 755.353515625 l 1
EndSplineSet
EndChar
StartChar: Uni030B
Encoding: 58027 58027 1331
Width: 300
Flags: HW
AnchorPoint: "Top" 222.872 699 mark 0
LayerCount: 2
Fore
SplineSet
135.732421875 752.299804688 m 1
 167.98828125 801.505859375 199.473632812 849.52734375 244.165039062 896 c 1
 244.165039062 896 274.409179688 879.559570312 292.891601562 866.299804688 c 1
 240.908203125 827.651367188 219.869140625 806.5703125 159.622070312 736.299804688 c 1
 135.732421875 752.299804688 l 1
298.017578125 756.4921875 m 1
 334.908203125 810.02734375 371.150390625 854 413.616210938 891.51953125 c 1
 413.616210938 891.51953125 441.887695312 874.6484375 458.349609375 862.18359375 c 1
 415.103515625 831.91796875 380.833984375 804 322.29296875 737.471679688 c 1
 298.017578125 756.4921875 l 1
EndSplineSet
EndChar
StartChar: Uni0328
Encoding: 58029 58029 1337
Width: 0
VWidth: 1159
Flags: HW
AnchorPoint: "Ogonek" -100.751 23.6582 mark 0
LayerCount: 2
Fore
SplineSet
-89.7626953125 12.392578125 m 1
 -171.807617188 -37.517578125 -227.559570312 -122.700195312 -240.064453125 -187.03125 c 0
 -248.119140625 -228.46875 -226.938476562 -264.510742188 -195.930664062 -264.510742188 c 3
 -174.955078125 -264.510742188 -148.073242188 -255.77734375 -118.487304688 -236.510742188 c 9
 -118.487304688 -236.510742188 -109.385742188 -246.838867188 -108.265625 -254.911132812 c 1
 -144.599609375 -302.647460938 -203.950195312 -338.23046875 -245.530273438 -338.23046875 c 3
 -294.709960938 -338.23046875 -331.841796875 -289.419921875 -319.875 -227.85546875 c 0
 -303.602539062 -144.145507812 -249.076171875 -38.8974609375 -90.1025390625 45.111328125 c 1
 -89.7626953125 12.392578125 l 1
EndSplineSet
EndChar
StartChar: Uni0327
Encoding: 58030 58030 1336
Width: 0
VWidth: 1159
Flags: HW
AnchorPoint: "Bottom" -193.916 -15 mark 0
LayerCount: 2
Fore
SplineSet
-346.206054688 -226.84375 m 1
 -336.440429688 -200.880859375 l 1
 -284.772460938 -212.80078125 -230.31640625 -182.056640625 -221.96484375 -139.090820312 c 0
 -218.426757812 -120.891601562 -224.762695312 -92.2900390625 -260.91015625 -104.141601562 c 1
 -260.98046875 -77.6220703125 l 1
 -255.354492188 -73.583984375 -249.561523438 -70.2294921875 -243.70703125 -67.529296875 c 0
 -210.599609375 -48.408203125 -215.51171875 -43.3330078125 -186.70703125 4.443359375 c 1
 -140.15234375 12.443359375 l 1
 -140.15234375 12.443359375 -158.995117188 -33.28515625 -185.377929688 -61.6669921875 c 1
 -159.353515625 -69.2158203125 -141.854492188 -91.6923828125 -148.272460938 -124.708984375 c 0
 -163.697265625 -204.06640625 -274.20703125 -260.771484375 -346.206054688 -226.84375 c 1
EndSplineSet
EndChar
StartChar: Q.alt
Encoding: 58116 58116 1314
Width: 778
Flags: HW
AnchorPoint: "Top" 485.221 699 basechar 0
AnchorPoint: "Bottom" 294.433 -15 basechar 0
AnchorPoint: "Middle" 417.966 364.853 basechar 0
LayerCount: 2
Back
SplineSet
468.922851562 23.0390625 m 1
 681.025269645 -90.0166015625 788.580242484 -205 1032.50097656 -205 c 0
 1083.44739485 -205 1145.17213644 -195.632653061 1168.02539062 -188 c 1
 1173 -219 l 1
 1143.3767855 -231.356164384 1040.23497935 -260 959.809570312 -260 c 0
 710.210796816 -260 616.775885173 -128.029296875 350.376953125 -5 c 1
 138.987304688 -5 29.2416635569 164.081346356 67.908203125 363 c 0
 109.38671875 576.384765625 289.38671875 705 480.38671875 705 c 3
 672.38671875 705 804.172465834 559.842468765 766.297851562 365 c 0
 736.522460938 211.823242188 614.92578125 78.0419921875 468.922851562 23.0390625 c 1
467 693 m 3
 272 693 122.59206767 526.667916112 90 359 c 0
 52.0949950177 164 148 19 310 19 c 3
 449 19 654.791531525 164 696 376 c 0
 734.875913656 576 607 693 467 693 c 3
440 24 m 1
 658.365694045 -85 791.389648438 -228 1021 -228 c 0
 1062 -228 1127.12890625 -214 1168.02539062 -196 c 1
 1173 -219 l 1
 1129.953125 -238 1070.109375 -252 1019.80957031 -252 c 0
 780.671875 -252 647 -103.816861025 410 12 c 1
 183 -58.4413398496 14.7572141361 109 67.908203125 363 c 0
 112.431630441 575.770274896 283 716 466 716 c 3
 646 716 757.874614273 566.842468764 720 372 c 0
 690.224609375 218.823242188 561.002929688 73.0029296875 440 24 c 1
EndSplineSet
Fore
SplineSet
463.166992188 673 m 3
 325.166992188 673 203.749262365 557.667732482 171.157226562 390 c 0
 136.756835938 213.029296875 205.290039062 46 367.290039062 46 c 3
 506.290039062 46 626.426928153 170.169698938 660.41015625 345 c 0
 700.70703125 552.311523438 603.166992188 673 463.166992188 673 c 3
503.922851562 39.0390625 m 1
 726.939408878 -77.9827874544 840.028830401 -197 1096.50097656 -197 c 0
 1123.38847681 -197 1155.96434888 -192.040816327 1168.02539062 -188 c 1
 1173 -219 l 1
 1152.26970687 -228.945205479 1080.09118365 -252 1023.80957031 -252 c 0
 763.56225598 -252 666.141165005 -120.546829044 388.376953125 2 c 1
 125.549445135 -48.6610644258 30.0455839447 166.584827481 67.908203125 363 c 0
 109.38671875 576.384765625 289.38671875 705 480.38671875 705 c 3
 672.38671875 705 801.446824941 560.352562592 766.297851562 365 c 0
 740.026920532 218.990224893 619.692008842 90.4745600551 503.922851562 39.0390625 c 1
EndSplineSet
Position2: "cpsp-1" dx=0 dy=0 dh=50 dv=110
EndChar
StartChar: Eng.alt
Encoding: 58128 58128 1265
Width: 644
Flags: HW
AnchorPoint: "Top" 376 699 basechar 0
LayerCount: 2
Fore
SplineSet
472 -189 m 0
 433 -216 396 -241 337 -241 c 3
 305 -241 255 -230 230 -208 c 1
 231.224489796 -178.046875 230 -178.046875 290 -137 c 1
 329 -155 352.349151158 -179 398 -179 c 3
 430.844834062 -179 454.83488091 -169.009507851 472.325428578 -152.000001538 c 0
 501.877861918 -123.260346783 512.875354622 -74.4826263989 516.67882769 -20.0000030978 c 0
 520.065805052 28.5165522951 517.748046875 81.5569989285 517.748046875 129 c 3
 517.748046875 262.322736529 516.444941261 418.337634996 514.400390625 474.25 c 0
 510.45703125 557.28515625 482.892578125 616.5 398.799804688 616.5 c 3
 315.755859375 616.5 243.092773438 591.5 186 554 c 1
 186.35546875 394.240234375 187.599609375 171.71875 187.599609375 103.25 c 3
 187.599609375 31.212890625 219.473632812 38.583984375 277 26 c 1
 277 26 273 3 272 -11 c 1
 220.392393862 -2.39873231031 175.431590595 2.44564680006 132.612272285 2.44564680006 c 3
 95.7794837565 2.44564680006 60.5312407821 -1.1388469203 24 -9 c 1
 24 -9 19 15 17 33 c 1
 74.3115234375 42.5517578125 103.879626051 52.6318416483 105.200195312 112 c 0
 106.524414062 171.532226562 106 286.786132812 106 348.25 c 3
 106 383.25 101.497214487 503.950207231 98.599609375 539 c 0
 94.0888671875 593.5625 73.6376953125 597 64.400390625 597 c 3
 52.6728515625 597 30 588 12.2001953125 586.25 c 1
 4 622 l 1
 50.0712890625 631.827148438 98.142578125 647.166015625 158.400390625 695 c 1
 169.73501623 692.225454124 175.466794585 685.750398119 178.695350016 676.0000023 c 0
 185.180868524 656.413418178 186.200195312 617.967124914 186.200195312 592.5 c 1
 259.465820312 640.010742188 338.837890625 698.25 435 698.25 c 3
 535.096679688 698.25 596.799804688 628.25 596.799804688 504 c 3
 596.799804688 425.760144292 595.857421875 274.53035286 595.857421875 156 c 3
 595.857421875 38.8947195443 595.126004381 -30.1617295323 570.632804953 -84 c 0
 552.977241109 -122.80852823 522.974969982 -153.709636166 472 -189 c 0
EndSplineSet
Substitution2: "c2sc-1" eng.altsmcp
Substitution2: "c2pc-1" eng
EndChar
StartChar: uniE31D
Encoding: 58141 58141 1354
Width: 771
VWidth: 1361
Flags: HW
AnchorPoint: "Top" 485 699 basechar 0
AnchorPoint: "Bottom" 256 -15 basechar 0
LayerCount: 2
Fore
SplineSet
342.427734375 236.215820312 m 3
 382.755103596 236.215820312 450.107421875 261.711668124 450.107421875 324 c 3
 450.107421875 330.885505548 442.674742691 350.962890625 420 350.962890625 c 3
 408.592952325 350.962890625 395.192487191 347.734599233 379 348 c 1
 376 379 l 1
 393.15961914 382.559452998 410.547649628 395.887695312 429 395.887695312 c 3
 477.742110849 395.887695312 518.055664062 374.316096289 518.055664062 330 c 3
 518.055664062 216.542140273 375.558890011 185.551757812 301.360351562 185.551757812 c 3
 179.333062422 185.551757812 99.9462890625 258.048712731 99.9462890625 380.587890625 c 3
 99.9462890625 562.590740158 281.179258186 705.000976562 482.2109375 705.000976562 c 3
 629.290878926 705.000976562 751.096679688 601.707670301 751.096679688 444.422851562 c 3
 751.096679688 179.012033801 488.964603988 -25.69921875 255.967773438 -25.69921875 c 3
 200.034090027 -25.69921875 148.334960938 3.06105802241 148.334960938 59.810546875 c 3
 148.334960938 112.062013814 194.125195743 142.395507812 245.319335938 142.395507812 c 3
 416.033517162 142.395507812 524.665743234 -194.374023438 804.157226562 -194.374023438 c 3
 904.489923781 -194.374023438 988.954929702 -182.291421576 1079 -156 c 1
 1082 -186 l 1
 979.885558813 -228.610488588 881.183241263 -254.01953125 757.670898438 -254.01953125 c 3
 491.869863643 -254.01953125 339.644898625 86.7421875 230.428710938 86.7421875 c 3
 211.662130023 86.7421875 196.514648438 74.9607357935 196.514648438 56.1220703125 c 3
 196.514648438 29.1657960643 228.432365873 19.2060546875 259.881835938 19.2060546875 c 3
 470.835763918 19.2060546875 658.057617188 201.220049154 658.057617188 460.009765625 c 3
 658.057617188 585.494078647 573.815935802 674.138671875 452.395507812 674.138671875 c 3
 293.871331905 674.138671875 198.41015625 545.341856042 198.41015625 404.11328125 c 3
 198.41015625 304.636147265 243.781619861 236.215820312 342.427734375 236.215820312 c 3
EndSplineSet
EndChar
StartChar: uniE320
Encoding: 58144 58144 1358
Width: 480
VWidth: 1159
Flags: HW
LayerCount: 2
Fore
SplineSet
477 412 m 1
 473 392 479 379 472 354 c 1
 462 295 431 188 374 108 c 0
 338 58 289 9 247 -18 c 1
 242 -19 219 -23 215 -23 c 1
 197 9 62 119 207 327 c 1
 86 334 96 336 89 316 c 0
 85 310 80 294 122 287 c 1
 112 202 -15 244 71 347 c 1
 123 402 141 395 255 395 c 3
 273 395 298 393 305 391 c 1
 305 382 297 363 287 353 c 1
 281 349 264 341 264 341 c 0
 260 339 254 335 252 330 c 0
 252 329 243 318 241 314 c 0
 152 189 228 77 261 60 c 1
 340 77 423 209 419 317 c 0
 419 324 415 336 413 343 c 0
 408 358 398 368 375 379 c 1
 385 397 409 434 424 448 c 1
 433 446 443 441 449 437 c 1
 455 436 463 435 469 435 c 1
 471 430 475 417 477 412 c 1
EndSplineSet
EndChar
StartChar: three.smaller
Encoding: 58361 58361 495
Width: 285
Flags: HW
LayerCount: 2
Fore
SplineSet
13.0625 5 m 1
 122.803710938 19 155.77734375 46 164.067382812 85 c 0
 168.645507812 106.538085938 136.404296875 118.845703125 111.569335938 125 c 1
 106.926757812 125 85.939453125 118 71.08203125 118 c 1
 67.1201171875 137 l 1
 110.557617188 144 172.284179688 166 180.149414062 203 c 0
 185.887695312 230 155.80078125 239 135.80078125 239 c 3
 105.80078125 239 88.8251953125 225 71.2744140625 213 c 1
 62.25 227 l 1
 81.564453125 252 140.515625 280 168.515625 280 c 3
 215.515625 280 247.989257812 254 240.336914062 218 c 0
 232.8046875 182.5625 178.805664062 155 177.946289062 155 c 1
 203.315429688 148.892578125 236.104492188 127.517578125 229.830078125 98 c 0
 212.826171875 18 62.46875 -15 16.8115234375 -15 c 1
 13.0625 5 l 1
EndSplineSet
EndChar
StartChar: zero.tabularlining
Encoding: 58378 58378 1236
Width: 463
VWidth: 1159
Flags: HW
LayerCount: 2
Fore
SplineSet
307.35546875 587 m 3
 233.35546875 587 183.8359375 516.734375 140.51953125 343 c 0
 99.2314453117 177.403320312 125.44921875 34 204.477539062 34 c 3
 283.477539062 34 322.89453125 111.87890625 372.541015625 311 c 0
 410.68359375 463.983398438 397.361328125 587 307.35546875 587 c 3
336.331054688 623 m 3
 443.331054688 623 505.158203125 526.045898438 454.283203125 322 c 0
 400.353515625 105.69921875 293.249023438 1 182.249023438 1 c 3
 71.249023438 1 8.35351562522 105.69921875 62.283203125 322 c 0
 112.407226562 523.03515625 228.331054688 623 336.331054688 623 c 3
EndSplineSet
Substitution2: "pnum-1" zero.proportionallining
Substitution2: "onum-1" zero.tabulartext
Substitution2: "numr-1" zero.numerator
Substitution2: "dnom-1" zero.denom
Substitution2: "'zero' Slashed Zero lookup 22-1" zero.tabularliningalt
EndChar
StartChar: two.tabularlining
Encoding: 58380 58380 513
Width: 463
VWidth: 1159
Flags: HW
LayerCount: 2
Fore
SplineSet
129.157226562 510 m 1
 182.139648438 568.75390625 252.359375 623 350.331054688 623 c 3
 435.143554688 623 486.604492189 551.90234375 463.192382812 458 c 0
 422.135742188 293.331054688 114.971679688 99.5166015625 83.4560546875 66 c 9
 324.204101562 69 l 2
 356.204101562 69 388.927734375 108 418.407226562 138 c 1
 434.168945312 121 l 1
 434.168945312 121 353.723632812 39 336.2578125 -11 c 1
 306.247070312 5 230.499023438 2 156.499023438 2 c 0
 53.0576171873 2 -15.2529296875 0 -21 0 c 1
 -22.51171875 18 l 1
 51.9033203126 95.23828125 340.584960938 247.00390625 387.208007812 434 c 0
 409.374023439 522.900390625 359.65625 570 302.1171875 570 c 3
 233.860351562 570 185.279296875 535.845703125 145.666992188 496 c 1
 129.157226562 510 l 1
EndSplineSet
Substitution2: "pnum-1" two.proportionallining
Substitution2: "onum-1" two.tabulartext
Substitution2: "numr-1" two.numerator
Substitution2: "dnom-1" two.denom
EndChar
StartChar: three.tabularlining
Encoding: 58381 58381 496
Width: 463
VWidth: 1159
Flags: HW
LayerCount: 2
Fore
SplineSet
33.1396484375 -37 m 1
 215.6875 20.74609375 292.108398438 87.208984375 315.7421875 182 c 0
 337.485351562 269.20703125 278.41015625 305 183.158203125 308 c 1
 179.676757812 308 152.134765625 298.768554688 133.166015625 296 c 1
 130.6484375 322 l 1
 213.615234375 339.705078125 348.041015625 395.76953125 374.52734375 502 c 0
 390.618164062 566.53515625 330.353515625 581 306.224609375 581 c 3
 247.002929688 581 212.67578125 553.400390625 177.256835938 533 c 1
 167.745117188 551 l 1
 189.379882812 585 288.826171875 625 336.1953125 625 c 3
 410.213867188 625 462.975585938 580 446.768554688 515 c 0
 424.502929688 425.698242188 302.16015625 358.720703125 296.875976562 355 c 1
 360.3828125 345 417.921875 295.01953125 392.983398438 195 c 0
 353.315429688 35.900390625 96.4072265625 -55.474609375 36.6572265625 -63 c 1
 33.1396484375 -37 l 1
EndSplineSet
Substitution2: "pnum-1" three.proportionallining
Substitution2: "onum-1" three.tabulartext
Substitution2: "numr-1" three.numerator
Substitution2: "dnom-1" three.denom
EndChar
StartChar: five.tabularlining
Encoding: 58383 58383 259
Width: 463
VWidth: 1159
Flags: HW
LayerCount: 2
Fore
SplineSet
233.110351562 579.5 m 9
 318.2265625 581.450195312 430.348632812 582 451.357421875 584.5 c 0
 478.831054688 588.759765625 498.974609375 614.610351562 515.823242188 634.5 c 9
 515.823242188 634.5 532.236328125 622.83984375 536.333007812 620.5 c 9
 498.53125 578.379882812 456.78125 512 439.405273438 512.5 c 0
 398.15234375 513.372070312 325.905273438 509.5 241.657226562 509.5 c 9
 241.657226562 509.5 214.897460938 450.299804688 203.228515625 403.5 c 1
 290.734375 410 395.922851562 362.166015625 364.092773438 234.5 c 0
 328.165039062 90.404296875 123.956054688 -20 -0.60546875 -29 c 9
 -0.60546875 -29 6.25390625 -2.849609375 5.373046875 3 c 1
 104.603515625 6 266.037109375 93.8994140625 295.981445312 214 c 0
 310.708007812 273.065429688 282.662109375 350 136.897460938 338 c 1
 164.540039062 394 205.842773438 491.161132812 233.110351562 579.5 c 9
EndSplineSet
Substitution2: "pnum-1" five.proportionallining
Substitution2: "onum-1" five.tabulartext
Substitution2: "numr-1" five.numerator
Substitution2: "dnom-1" five.denom
EndChar
StartChar: seven.tabularlining
Encoding: 58385 58385 455
Width: 420
VWidth: 1159
Flags: HW
LayerCount: 2
Fore
SplineSet
199.079101562 626 m 17
 204.086914062 614 213.9453125 610.586914062 228.08984375 610 c 24
 346.8828125 605.072265625 521.591796875 608 536.588867188 612 c 9
 536.588867188 612 539.205078125 594.900390625 541.352539062 591 c 1
 496.228515625 558.416015625 100.689453125 27.2744140625 94.509765625 -14 c 9
 94.509765625 -14 48.3818359375 -11.2197265625 24.0078125 -12 c 1
 172.9609375 172.626953125 284.618164062 307.521484375 438.899414062 521 c 0
 444.309570312 528.166992188 441.232421875 538.358398438 433.387695312 539 c 0
 358.499023438 545.12109375 349.3828125 547 232.384765625 543 c 0
 186.130859375 541.418945312 148.841796875 532.799804688 122.422851562 487 c 9
 122.422851562 487 103.767578125 495.440429688 97.916015625 497 c 9
 97.916015625 497 162.596679688 600 176.326171875 631 c 9
 199.079101562 626 l 17
EndSplineSet
Substitution2: "pnum-1" seven.proportionallining
Substitution2: "onum-1" seven.tabulartext
Substitution2: "numr-1" seven.numerator
Substitution2: "dnom-1" seven.denom
EndChar
StartChar: eight.tabularlining
Encoding: 58386 58386 223
Width: 463
VWidth: 1159
UnlinkRmOvrlpSave: 1
Flags: HW
LayerCount: 2
Fore
SplineSet
303.034179688 601 m 3
 264.794921875 601 213.116210938 557.240234375 205.73046875 521 c 0
 172.865234375 359.752929688 442.522460938 333.541992188 406.1328125 155 c 24
 386.286132812 57.6220703125 291.4921875 -7 183.114257812 -7 c 3
 100.19921875 -7 33.001953125 41.5078125 51.6494140625 133 c 0
 92.6513671875 334.173828125 350.205078125 331.985351562 379.557617188 476 c 0
 388.565429688 520.192382812 375.2265625 601 303.034179688 601 c 3
313.149414062 631 m 3
 436.71875 631 450.82421875 546 440.837890625 497 c 0
 408.427734375 337.97265625 158.477539062 333.3203125 125.801757812 173 c 0
 111.076171875 100.75 148.1875 27 218.044921875 27 c 3
 304.127929688 27 329.161132812 101.166992188 335.649414062 133 c 0
 351.254882812 209.573242188 319.922851562 244.362304688 261.94140625 296 c 0
 201.743164062 349.612304688 137.512695312 402.180664062 154.188476562 484 c 0
 170.647460938 564.750976562 257.3984375 631 313.149414062 631 c 3
EndSplineSet
Substitution2: "dnom-1" eight.denom
Substitution2: "numr-1" eight.numerator
Substitution2: "onum-1" eight.tabulartext
Substitution2: "pnum-1" eight.proportionallining
EndChar
StartChar: onetenth.afrc
Encoding: 58445 58445 391
Width: 463
Flags: HW
LayerCount: 2
Fore
SplineSet
318.250976562 247.83984375 m 3
 281.353071941 247.83984375 257.205067721 202.819683353 249.5 156.658203125 c 0
 236.834632504 80.779296875 253.518317128 25.84375 304.3515625 25.84375 c 3
 344.296173734 25.84375 362.437163383 79.4526708837 369.331054688 120.775390625 c 0
 381.214634581 192.006835938 371.093203176 247.83984375 318.250976562 247.83984375 c 3
345.504882812 275.151367188 m 3
 411.221364523 275.151367188 455.084105414 213.70172914 439.797851562 135.481445312 c 0
 423.284188926 50.9804687502 348.947119099 -0.1904296875 280.163085938 -0.1904296875 c 3
 213.104842181 -0.1904296875 165.913226448 56.3200435551 181.259765625 135.115234375 c 0
 197.200437592 216.9609375 276.98164847 275.151367188 345.504882812 275.151367188 c 3
47.5419921875 272.82421875 m 1
 56.5745283252 271.936523438 69.0466895413 271.434570312 82.8759765625 271.434570312 c 0
 118.517590509 271.434570312 161.857336934 273.868164062 186.856445312 279.969726562 c 1
 184.194335938 261.599609375 l 1
 147.49848211 252.99609375 147.580164983 250.681938999 139.44140625 223.462890625 c 0
 136.58984375 215.66796875 121.220562778 169.042998583 114.640625 138.087890625 c 0
 106.59765625 100.25 100.007598407 50.4027823703 99.8955078125 43.05859375 c 0
 99.6290415348 20.7919921875 115.339832013 22.2109375 136.209960938 20.755859375 c 1
 130.931640625 0 l 1
 108.337598411 2.072265625 82.3973117754 3.2119140625 56.025390625 3.2119140625 c 0
 31.2328001917 3.2119140625 6.05793947172 2.19921875 -17.06640625 0 c 1
 -14.533203125 20.0625 l 1
 4.5916089223 22.849609375 18.9524713266 22.8812342011 32.0927734375 45.47265625 c 0
 37.1279296876 52.6005859375 46.2676076765 67.6523374686 61.2392578125 138.087890625 c 0
 72.3964843751 190.578125 73.9924224889 218.253908477 73.923828125 225.481445312 c 0
 73.7746657553 246.266601562 76.3429168533 251.666015625 42.9150390625 254.525390625 c 1
 47.5419921875 272.82421875 l 1
EndSplineSet
Refer: 914 8321 N 1 0 0 1 172 496 2
Refer: 487 58113 N 0.394 0 0 0.875 52 342 2
Substitution2: "'zero' Slashed Zero lookup 22-1" onetenth.afrcalt
LCarets2: 3 0 0 0
Ligature2: "'afrc' Nut Fractions lookup 23-1" uni2152
Ligature2: "'afrc' Nut Fractions lookup 23-1" one.numerator fraction one.denom zero.denom
EndChar
StartChar: two.small
Encoding: 58453 58453 511
Width: 344
Flags: HW
LayerCount: 2
Fore
SplineSet
63.5107421875 266.725585938 m 1
 97.1865234375 307.319335938 140.4609375 341.633789062 197.223632812 341.633789062 c 1
 257.329101562 341.633789062 294.31640625 296.383789062 282.221679688 239.481445312 c 0
 265.369140625 160.19921875 105.057617188 75.7802734375 92.0576171875 57.9970703125 c 1
 92.525390625 56.1904296875 226.623046875 58.318359375 227.3046875 59.8310546875 c 1
 256.916015625 60.783203125 279.723632812 91.1103515625 298.7421875 110.123046875 c 1
 312.647460938 96.0400390625 l 1
 312.647460938 96.0400390625 248.708007812 29.8310546875 237.479492188 -9.81640625 c 1
 215.75390625 1.9267578125 169.159179688 1.4365234375 116.836914062 1.4365234375 c 1
 53.70703125 1.4365234375 -0.068359375 0.216796875 -4.8740234375 -0.3427734375 c 1
 -7.0712890625 15.4755859375 l 1
 36.615234375 62.5244140625 194.739257812 129.65234375 215.279296875 226.286132812 c 0
 226.762695312 280.310546875 192.6484375 297.970703125 164.510742188 297.970703125 c 1
 127.083984375 297.970703125 98.974609375 278.583984375 76.771484375 254.72265625 c 1
 63.5107421875 266.725585938 l 1
EndSplineSet
EndChar
StartChar: six.small
Encoding: 58457 58457 467
Width: 335
Flags: HW
LayerCount: 2
Fore
SplineSet
282.322265625 361.139648438 m 1
 282.322265625 361.139648438 285.415039062 345.682617188 287.670898438 341.419921875 c 1
 192.237304688 304.728515625 129.701171875 239.563476562 110.765625 150.48046875 c 0
 97.859375 89.763671875 111.766601562 30.1796875 166.775390625 30.1796875 c 3
 189.05078125 30.1796875 211.323242188 52.896484375 217.165039062 80.3798828125 c 0
 228.393554688 133.206054688 212.41796875 171.540039062 184.322265625 171.540039062 c 3
 174.248046875 171.540039062 168.157226562 166.274414062 158.473632812 158.139648438 c 1
 145.020507812 170.5 l 1
 159.28125 193.1015625 184.403320312 208.98046875 212.98046875 208.98046875 c 3
 256.0625 208.98046875 291.416015625 163.32421875 280.740234375 113.099609375 c 0
 267.348632812 50.0986328125 195.486328125 -3.259765625 130.586914062 -3.259765625 c 3
 53.7919921875 -3.259765625 28.0634765625 73.1259765625 40.5693359375 131.959960938 c 0
 63.80859375 241.293945312 163.551757812 332.28125 282.322265625 361.139648438 c 1
EndSplineSet
EndChar
StartChar: seven.small
Encoding: 58458 58458 453
Width: 315
Flags: HW
LayerCount: 2
Fore
SplineSet
121.11328125 348.959960938 m 1
 127.259765625 340.240234375 135.9140625 337.166015625 143.384765625 337.059570312 c 0
 214.942382812 332.892578125 319.69921875 335.059570312 328.809570312 339.059570312 c 1
 328.809570312 339.059570312 331.873046875 324.501953125 333.403320312 321.33984375 c 1
 309.249023438 304.62109375 122.590820312 31.1953125 117.290039062 -1.080078125 c 1
 117.290039062 -1.080078125 72.41796875 1.060546875 46.541015625 0.099609375 c 1
 121.670898438 92.7998046875 174.338867188 154.072265625 248.91015625 262 c 0
 253.116210938 267.416992188 249.666015625 274.96484375 244.499023438 276.719726562 c 0
 213.337890625 283.561523438 193.470703125 283.080078125 138.46875 280.719726562 c 0
 106.19921875 279.615234375 84.3330078125 268.223632812 62.3515625 235.379882812 c 1
 62.3515625 235.379882812 47.0380859375 242.639648438 42.8681640625 243.740234375 c 1
 42.8681640625 243.740234375 93.7158203125 330.33984375 102.921875 353.139648438 c 1
 121.11328125 348.959960938 l 1
EndSplineSet
EndChar
StartChar: one.tabulartextalt
Encoding: 58462 58462 1366
Width: 463
VWidth: 1159
Flags: HW
LayerCount: 2
Fore
SplineSet
327.71484375 336.200195312 m 0
 324.604492188 327.044921875 299.55859375 257.741210938 288 207 c 0
 274.852539062 149.2890625 257.580078125 68.56640625 257.9453125 58 c 0
 258.877929688 31 298.766601562 29 350.215820312 27 c 1
 342.484375 0 l 1
 294.573242188 3.333984375 248.178710938 5.1669921875 201.1875 5.1669921875 c 0
 157.068359375 5.1669921875 112.421875 3.537109375 65.484375 0 c 1
 69.966796875 26 l 1
 116.736328125 30 162.399414062 28.3037109375 180.942382812 62 c 0
 186.145507812 71.45703125 200.129882812 94.7265625 227 207 c 0
 235.349609375 241.891601562 240.055664062 263.381835938 243.290039062 278 c 0
 247.493164062 297.000976562 244.931640625 311 227.931640625 311 c 3
 219.31640625 311 178.01953125 295.571289062 163 293 c 1
 161.483398438 319 l 1
 216.506835938 335.274414062 286.274414062 376.697265625 341.989257812 427 c 1
 357 411 l 1
 346.556640625 390.862304688 332.975585938 351.690429688 327.71484375 336.200195312 c 0
EndSplineSet
EndChar
StartChar: four.pcap
Encoding: 58522 58522 1371
Width: 477
Flags: HW
LayerCount: 2
Fore
SplineSet
240.388671875 115.5 m 1
 254.083007812 179.924804688 275.99609375 250.950195312 276.436523438 294.5 c 1
 276.436523438 294.5 161.669921875 180.904296875 83.388671875 115.5 c 1
 240.388671875 115.5 l 1
389.879882812 409.5 m 1
 376.916015625 383.370117188 361.033203125 359.629882812 356.638671875 342.5 c 0
 334.200195312 255.750976562 324.806640625 213.8671875 300.388671875 115.5 c 1
 358.12109375 114.279296875 372.315429688 115.907226562 413.591796875 163.5 c 1
 413.591796875 163.5 428.49609375 156.83984375 432.678710938 154.5 c 1
 432.678710938 154.5 396.364257812 98.6845703125 371.229492188 63 c 1
 354.055664062 72.591796875 314.180664062 71.060546875 290.9296875 71 c 1
 285.844726562 48.044921875 283.334960938 23.1953125 286.1328125 15.5 c 1
 256.677734375 -0.7568359375 238.481445312 -17.359375 225.399414062 -35 c 1
 225.399414062 -35 204.704101562 -21.849609375 202.4375 -16 c 1
 216.233398438 4.0732421875 220.50390625 27.1630859375 229.717773438 70 c 1
 78.705078125 70 46.91015625 71 20.103515625 53 c 1
 20.103515625 53 7.513671875 68.7099609375 3.35546875 73 c 1
 19.1826171875 86.3291015625 341.143554688 376.8984375 369.100585938 422.299804688 c 1
 389.879882812 409.5 l 1
EndSplineSet
EndChar
StartChar: five.pcap
Encoding: 58523 58523 1372
Width: 403
Flags: HW
LayerCount: 2
Fore
SplineSet
158.916992188 405.5 m 1
 223.681640625 407.450195312 308.994140625 408.626953125 324.979492188 410.5 c 0
 344.252929688 412.7578125 356.912109375 426.458007812 367.612304688 437 c 1
 367.612304688 437 384.454101562 425.33984375 388.63671875 423 c 1
 360.181640625 390.044921875 329.342773438 338.107421875 315.67578125 338.5 c 0
 285.336914062 339.372070312 232.047851562 335.5 170.038085938 335.5 c 1
 170.038085938 335.5 158.1875 300.873046875 148.859375 273.5 c 1
 232.209960938 277.5 338.453125 248.064453125 321.75390625 169.5 c 0
 300.7734375 70.79296875 128.697265625 -4.8349609375 19.3876953125 -11 c 1
 19.3876953125 -11 25.28515625 15.150390625 24.189453125 21 c 1
 108.576171875 22.8203125 238.91015625 76.142578125 254.396484375 149 c 0
 260.370117188 177.103515625 224.650390625 213.708984375 91.9375 208 c 1
 111.171875 253.796875 139.920898438 333.255859375 158.916992188 405.5 c 1
EndSplineSet
EndChar
StartChar: six.pcap
Encoding: 58524 58524 1373
Width: 477
Flags: HW
LayerCount: 2
Fore
SplineSet
375.595703125 434 m 1
 375.595703125 434 379.966796875 416.459960938 382.70703125 411 c 1
 266.858398438 365 190.256835938 281.856445312 166.268554688 169 c 0
 152.258789062 103.088867188 168.344726562 30 238.72265625 30 c 0
 270.873046875 30 302.063476562 64.5361328125 310.452148438 104 c 0
 322.473632812 160.55859375 295.045898438 201 249.0703125 201 c 0
 236.6640625 201 228.416992188 197.631835938 218.369140625 193 c 1
 208.408203125 212 l 1
 222.868164062 225.48828125 255.899414062 245 291.422851562 245 c 0
 348.686523438 245 393.947265625 195.71875 382.104492188 140 c 0
 364.797851562 58.578125 270.702148438 -10 196.220703125 -10 c 0
 102.026367188 -10 74.8720703125 77.74609375 87.8916015625 139 c 0
 117.973632812 280.5234375 235.477539062 392.870117188 375.595703125 434 c 1
EndSplineSet
EndChar
StartChar: eight.pcap
Encoding: 58526 58526 1375
Width: 472
UnlinkRmOvrlpSave: 1
Flags: HW
LayerCount: 2
Fore
SplineSet
266.000976562 391 m 0
 240.5078125 391 206.419921875 364.744140625 201.797851562 343 c 0
 180.072265625 240.7890625 400.541015625 224.173828125 376.484375 111 c 0
 361.15234375 38.8681640625 279.666992188 -9 184.978515625 -9 c 0
 119.682617188 -9 65.974609375 23.916015625 79.1708984375 86 c 0
 106.223632812 213.2734375 311.9296875 211.888671875 331.295898438 303 c 0
 337.908203125 334.111328125 325.453125 391 266.000976562 391 c 0
286.376953125 421 m 0
 351.510742188 421 406.961914062 390.815429688 392.759765625 324 c 0
 371.581054688 224.362304688 173.9609375 221.447265625 152.610351562 121 c 0
 142.512695312 73.4931640625 169.81640625 25 220.205078125 25 c 0
 284.767578125 25 301.723632812 69.7802734375 305.80859375 89 c 0
 316.493164062 139.265625 293.55859375 164.647460938 245.623046875 196 c 0
 194.977539062 228.240234375 139.7578125 258.126953125 149.93359375 306 c 0
 165.024414062 376.99609375 237.97265625 421 286.376953125 421 c 0
EndSplineSet
EndChar
StartChar: four.smcp
Encoding: 58532 58532 1381
Width: 487
VWidth: 999
Flags: HW
LayerCount: 2
Fore
SplineSet
252.155273438 154.461914062 m 1
 267.942382812 228.737304688 292.1640625 310.623046875 294.020507812 360.83203125 c 1
 294.020507812 360.83203125 167.090820312 229.8671875 80.6650390625 154.461914062 c 1
 252.155273438 154.461914062 l 1
409.5859375 485.814453125 m 1
 396.728515625 460.186523438 380.857421875 436.905273438 376.618164062 420.1015625 c 0
 351.041015625 318.586914062 340.131835938 269.573242188 312.155273438 154.461914062 c 1
 372.768554688 153.151367188 387.681640625 154.8984375 431.262695312 206.00390625 c 1
 431.262695312 206.00390625 446.166992188 199.34375 450.349609375 197.00390625 c 1
 450.349609375 197.00390625 413.576171875 139.028320312 388.147460938 101.961914062 c 1
 369.766601562 111.553710938 327.407226562 110.022460938 302.696289062 109.961914062 c 1
 294.553710938 72.6240234375 288.734375 32.2041015625 290.5078125 19.685546875 c 1
 256.370117188 1.0966796875 235.306640625 -17.8876953125 220.18359375 -38.05859375 c 1
 220.18359375 -38.05859375 199.48828125 -24.908203125 197.221679688 -19.05859375 c 1
 221.625976562 10.8212890625 227.725585938 45.1943359375 241.483398438 108.961914062 c 1
 79.849609375 108.961914062 45.802734375 109.961914062 17.3798828125 91.9619140625 c 1
 17.3798828125 91.9619140625 4.7900390625 107.671875 0.630859375 111.961914062 c 1
 17.4072265625 126.715820312 358.907226562 448.357421875 388.806640625 498.614257812 c 1
 409.5859375 485.814453125 l 1
EndSplineSet
EndChar
StartChar: six.smcp
Encoding: 58534 58534 1383
Width: 474
VWidth: 999
Flags: HW
LayerCount: 2
Fore
SplineSet
386.36328125 509.026367188 m 1
 386.36328125 509.026367188 390.734375 491.486328125 393.474609375 486.026367188 c 1
 260.692382812 431.45703125 172.404296875 332.825195312 143.947265625 198.946289062 c 0
 126.952148438 118.987304688 144.319335938 30.322265625 224.916992188 30.322265625 c 0
 262.244140625 30.322265625 298.87109375 72.3720703125 309.084960938 120.421875 c 0
 324.538085938 193.126953125 294.61328125 245.114257812 242.318359375 245.114257812 c 0
 225.090820312 245.114257812 213.052734375 237.678710938 198.294921875 227.454101562 c 1
 185.737304688 244.84375 l 1
 204.075195312 266.869140625 242.826171875 289.114257812 284.670898438 289.114257812 c 0
 347.646484375 289.114257812 395.703125 226.8359375 380.736328125 156.421875 c 0
 361.572265625 66.2607421875 261.256835938 -9.677734375 182.415039062 -9.677734375 c 0
 78.2548828125 -9.677734375 49.9619140625 95.513671875 65.5703125 168.946289062 c 0
 100.249023438 332.096679688 231.18359375 461.611328125 386.36328125 509.026367188 c 1
EndSplineSet
EndChar
StartChar: uniFB01
Encoding: 64257 64257 1159
Width: 511
VWidth: 1159
UnlinkRmOvrlpSave: 1
Flags: HW
LayerCount: 2
Fore
SplineSet
46 362 m 1
 137.726389547 361.398046323 242.204280884 375.892669166 345 394 c 1
 341 352 l 1
 237.406091163 344.733671276 125.928010624 330.926866261 41 320 c 1
 46 362 l 1
371 197 m 0
 359 153.317460317 348 91.3492063496 353 69 c 1
 355 60 362 59 374 63 c 1
 388 67.1428571428 420 97.1785714281 440 121 c 1
 460 106 l 1
 433 66.025 356 -11 319 -11 c 3
 285.454126218 -11 271 20.1579839821 271 56 c 3
 271 100.187516119 295.485038163 147.643484023 310 194 c 0
 315.818181818 212.581560284 336.974420393 274.744203934 342 325 c 0
 343 335 344 350 333 351 c 1
 320.226723702 351 277.936087872 346.89140625 254.000976562 345 c 1
 247 378 l 1
 351.510457516 393.243243243 380.968575851 413 406 413 c 3
 436 413 436.911521443 392.380650102 433 365 c 0
 432 358 425.313552197 346.886210685 423 341 c 0
 408.142857143 303.2 375.235403486 212.41776507 371 197 c 0
419 754 m 3
 449.74796748 754 520.170731707 702 541 658 c 1
 536 631 527 624 475 598 c 1
 440.324324324 632.941176471 403.666666667 697 365 697 c 3
 283 697 260.857286895 620.143217238 212 498 c 0
 168 388 115.333333333 -30 68 -172 c 0
 46.79296875 -235.62109375 15.2421875 -278.947265625 -20 -323 c 1
 -30 -322 -29 -321 -71 -321 c 3
 -92 -321 -124 -325 -136 -326 c 1
 -141 -290 l 1
 -81.8916015625 -275.814453125 -46.4205396097 -236.986829044 -18 -187 c 0
 38.2874956299 -88 107.485570922 293.408615836 139 493 c 0
 160 626 213.582663748 654.627607834 284 701 c 0
 325 728 362 754 419 754 c 3
EndSplineSet
LCarets2: 1 246
Ligature2: "liga-1" f i
EndChar
StartChar: uniFB25
Encoding: 64293 64293 1168
Width: 812
Flags: HW
AnchorPoint: "Top" 294.64 619.44 basechar 0
LayerCount: 2
Fore
SplineSet
49.8798828125 515.040039062 m 1
 55.4208984375 580.7734375 61.11328125 559.506835938 59.16015625 625.240234375 c 1
 11.599609375 696 l 1
 90.48046875 799.48046875 l 1
 120.639648438 792.51953125 l 1
 127.599609375 512.719726562 l 1
 49.8798828125 515.040039062 l 1
122.959960938 567.240234375 m 1
 215.581054688 562.599609375 583.862304688 576.51953125 725 557.959960938 c 1
 749.360351562 477.919921875 764.440429688 371.200195312 764.440429688 302.759765625 c 0
 764.440429688 294.639648438 763.280273438 286.51953125 763.280273438 279.559570312 c 1
 741.240234375 215.759765625 586.959960938 69.599609375 481.400390625 -31.3203125 c 1
 457.040039062 -18.5595703125 l 1
 458.200195312 117.16015625 l 1
 564.919921875 172.83984375 642.639648438 211.120117188 709.919921875 293.48046875 c 1
 706.440429688 347.767578125 696 387.25 682.080078125 429.200195312 c 1
 476.653320312 431.004882812 256.375976562 431.77734375 145 431.51953125 c 1
 109.040039062 436.16015625 52.2001953125 438.48046875 33.6396484375 474.440429688 c 1
 67.2802734375 602.040039062 l 1
 97.4404296875 596.240234375 l 1
 122.959960938 567.240234375 l 1
EndSplineSet
EndChar
StartChar: uniFB28
Encoding: 64296 64296 1171
Width: 812
Flags: HW
AnchorPoint: "Top" 276.08 619.44 basechar 0
LayerCount: 2
Fore
SplineSet
248.240234375 436.16015625 m 1
 186.759765625 382.799804688 176.3203125 251.719726562 226.200195312 150.799804688 c 1
 172.83984375 0 l 1
 88.16015625 0 l 1
 48.7197265625 -19.7197265625 l 1
 24.3603515625 -2.3203125 l 1
 48.7197265625 134.559570312 l 1
 74.240234375 156.599609375 128.759765625 163.559570312 168.200195312 165.879882812 c 1
 133.400390625 132.240234375 l 1
 118.3203125 242.440429688 125.280273438 404.83984375 207.639648438 444.280273438 c 1
 248.240234375 436.16015625 l 1
179.799804688 567.240234375 m 1
 205.596202757 569.631576734 241.530395448 570.598371049 281.53349912 570.598371049 c 3
 385.774089033 570.598371049 545.675904728 569.489480689 601.407241563 534.000001799 c 0
 705.897671274 467.460939398 759.799804688 344.556319753 759.799804688 183.280273438 c 3
 759.799804688 141.51953125 757.48046875 103.240234375 754 70.759765625 c 1
 734.280273438 39.4404296875 713.400390625 8.1201171875 696 -19.7197265625 c 1
 665.83984375 -4.6396484375 l 1
 683.814851702 79.5725037683 689.2894128 155.1589964 689.2894128 219.999986943 c 3
 689.2894128 328.007696879 609.449257101 411.837135312 498.00000487 423.456551628 c 0
 424.158106687 431.155120612 256.950839752 432.55937846 193.719726562 431.51953125 c 1
 157.759765625 436.16015625 102.080078125 438.48046875 83.51953125 474.440429688 c 1
 117.16015625 602.040039062 l 1
 147.3203125 596.240234375 l 1
 179.799804688 567.240234375 l 1
EndSplineSet
EndChar
